STARTFONT 2.3
FONT -FontForge-Source Code Pro-Bold-R-Normal--28-280-72-72-M-170-ISO10646-1
SIZE 28 72 72  4
FONTBOUNDINGBOX 29 43 -6 -13
COMMENT "Generated by fontforge, http://fontforge.sourceforge.net"
COMMENT "Copyright 2010, 2012 Adobe Systems Incorporated (http://www.adobe.com/), with Reserved Font Name `Source'."
STARTPROPERTIES 41
FOUNDRY "FontForge"
FAMILY_NAME "Source Code Pro"
WEIGHT_NAME "Bold"
SLANT "R"
SETWIDTH_NAME "Normal"
ADD_STYLE_NAME ""
PIXEL_SIZE 28
POINT_SIZE 280
RESOLUTION_X 72
RESOLUTION_Y 72
SPACING "M"
AVERAGE_WIDTH 170
CHARSET_REGISTRY "ISO10646"
CHARSET_ENCODING "1"
FONTNAME_REGISTRY ""
CHARSET_COLLECTIONS "ASCII ISOLatin1Encoding ISO8859-2 ISO8859-5 ISO8859-7 ISO8859-9 ISO8859-4 ISO10646-1"
BITS_PER_PIXEL 4
FONT_NAME "SourceCodePro-Bold"
FACE_NAME "Source Code Pro Bold"
COPYRIGHT "Copyright 2010, 2012 Adobe Systems Incorporated (http://www.adobe.com/), with Reserved Font Name `Source'."
FONT_VERSION "2.030;PS 1.000;hotconv 16.6.51;makeotf.lib2.5.65220"
FONT_ASCENT 21
FONT_DESCENT 7
UNDERLINE_POSITION -3
UNDERLINE_THICKNESS 2
X_HEIGHT 13
CAP_HEIGHT 17
RAW_ASCENT 750
RAW_DESCENT 250
NORM_SPACE 17
RELATIVE_WEIGHT 70
RELATIVE_SETWIDTH 50
SUPERSCRIPT_X 0
SUPERSCRIPT_Y 9
SUPERSCRIPT_SIZE 16
SUBSCRIPT_X 0
SUBSCRIPT_Y 2
SUBSCRIPT_SIZE 16
FIGURE_WIDTH 17
AVG_LOWERCASE_WIDTH 170
AVG_UPPERCASE_WIDTH 170
ENDPROPERTIES
CHARS 1564
STARTCHAR space
ENCODING 32
SWIDTH 600 0
DWIDTH 17 0
BBX 1 1 0 0
BITMAP
00
ENDCHAR
STARTCHAR exclam
ENCODING 33
SWIDTH 600 0
DWIDTH 17 0
BBX 7 18 5 0
BITMAP
09FFF600
09FFF600
08FFF500
07FFF400
06FFF300
05FFF200
03FFF000
02FFE000
01FFD000
00FFC000
00000000
00000000
04CEB200
1EFFFC00
5FFFFF20
5FFFFF20
1EFFFC00
03CEB200
ENDCHAR
STARTCHAR quotedbl
ENCODING 34
SWIDTH 600 0
DWIDTH 17 0
BBX 13 11 2 8
BITMAP
AFFFF104FFFF70
AFFFF003FFFF70
9FFFF003FFFF60
9FFFE002FFFF60
7FFFD001FFFF50
5FFFB000EFFF20
3FFF9000CFFF00
1FFF7000AFFD00
0EFF50008FFB00
0CFF20005FF900
0AFF00003FF700
ENDCHAR
STARTCHAR numbersign
ENCODING 35
SWIDTH 600 0
DWIDTH 17 0
BBX 14 18 1 0
BITMAP
00006FE002FF40
00008FC003FF20
0000AFB005FF00
0000DF9007FD00
07FFFFA66BFD76
07FFFFFFFFFFFE
07FFFFFFFFFFFE
0004FF211FF732
0006FE002FF400
0008FC004FF200
1FFFFFDDEFFCC5
1FFFFFFFFFFFF6
1FFFFDCCEFECC5
000FF500BFA000
002FF300DF8000
004FF100FF6000
006FF002FF4000
008FD004FF2000
ENDCHAR
STARTCHAR dollar
ENCODING 36
SWIDTH 600 0
DWIDTH 17 0
BBX 14 24 1 -3
BITMAP
000000DFD00000
000000DFD00000
000000DFD00000
000000DFD00000
00018CFFFEA300
003DFFFFFFFF90
01DFFFFFFFFFD2
05FFFD2026DE30
06FFF900000200
05FFFF82000000
00DFFFFFB50000
003DFFFFFFD500
00018EFFFFFF70
0000016BFFFFF3
000000003DFFF8
0073000005FFF9
04FFB5202BFFF7
1DFFFFFFFFFFE1
07EFFFFFFFFE30
0016BEFFFC7100
000000DFD00000
000000DFD00000
000000DFD00000
000000DFD00000
ENDCHAR
STARTCHAR percent
ENCODING 37
SWIDTH 600 0
DWIDTH 17 0
BBX 17 18 0 0
BITMAP
004CFEA2000003A100
04FFFFFE10001DFB10
0DFFFFFF9000BFFC10
3FFC13EFE009FFB100
4FF800CFF06FFA0000
3FFC13EFE1FFA00000
0DFFFFFF9058000000
04FFFFFE1000000000
004CFEA20000000000
0000000004BEEB3000
000009303FFFFFE200
0001BFD0CFFFFFFB00
001CFF41FFD22EFF00
02CFF703FFA00BFF10
2DFFA001FFD22EFF00
1DFC0000BFFFFFFA00
01B200003FFFFFE200
0000000003BEEB3000
ENDCHAR
STARTCHAR ampersand
ENCODING 38
SWIDTH 600 0
DWIDTH 17 0
BBX 17 18 0 0
BITMAP
00005CEEC500000000
0007FFFFFF60000000
002FFFFFFFE1000000
007FFF32FFF4000000
009FFD00EFF4000000
007FFE06FFF2000000
003FFFBFFFA0000000
000CFFFFFD20377720
000AFFFFD2009FFF20
00BFFFFF3000DFFC00
08FFFFFFD405FFF700
1FFFE6FFFF9CFFE100
4FFF905FFFFFFF8000
5FFFA005EFFFFF2000
2FFFF7119FFFFFE920
0AFFFFFFFFFFFFFF20
01CFFFFFFFE8DFFD00
0006BEFEC71006B800
ENDCHAR
STARTCHAR quotesingle
ENCODING 39
SWIDTH 600 0
DWIDTH 17 0
BBX 5 11 6 8
BITMAP
FFFFB0
EFFFB0
EFFFA0
DFFFA0
CFFF90
AFFF70
8FFF50
5FFF20
3FFF00
1FFD00
0EFB00
ENDCHAR
STARTCHAR parenleft
ENCODING 40
SWIDTH 600 0
DWIDTH 17 0
BBX 9 26 5 -5
BITMAP
0000089000
00008FFB10
0005FFFA00
002EFFC000
00AFFE2000
04FFF60000
0AFFD00000
1FFF700000
5FFF200000
9FFD000000
BFFB000000
DFF9000000
EFF8000000
EFF8000000
DFF9000000
BFFB000000
9FFD000000
5FFF200000
1FFF700000
0AFFD00000
04FFF60000
00AFFE1000
002EFFB000
0005FFFA00
00008FFB10
0000089000
ENDCHAR
STARTCHAR parenright
ENCODING 41
SWIDTH 600 0
DWIDTH 17 0
BBX 9 26 3 -5
BITMAP
01B5000000
2DFF500000
1CFFE30000
01EFFC0000
004FFF7000
0009FFE100
0002FFF700
0000AFFD00
00005FFF20
00001FFF60
00000EFF80
00000CFFA0
00000BFFB0
00000BFFB0
00000CFFA0
00000EFF80
00001FFF60
00005FFF20
0000AFFD00
0002FFF700
0009FFE100
004FFF7000
01DFFC0000
1CFFE30000
2DFF500000
01B5000000
ENDCHAR
STARTCHAR asterisk
ENCODING 42
SWIDTH 600 0
DWIDTH 17 0
BBX 14 14 1 3
BITMAP
00000046300000
000000BF800000
000000CF900000
000000DFA00000
065100EFB00264
0EFFC9FFD9DFFB
1CFFFFFFFFFFFA
004CFFFFFFFA30
00005FFFFE3000
00008FFFFF5000
0003FFE5FFD100
000CFF306FF900
006FF60009FF30
0019800000B700
ENDCHAR
STARTCHAR plus
ENCODING 43
SWIDTH 600 0
DWIDTH 17 0
BBX 14 15 1 2
BITMAP
00000022200000
000002FFE00000
000002FFE00000
000002FFE00000
000002FFE00000
000002FFE00000
1FFFFFFFFFFFFD
1FFFFFFFFFFFFD
1FFFFFFFFFFFFD
000002FFE00000
000002FFE00000
000002FFE00000
000002FFE00000
000002FFE00000
00000022200000
ENDCHAR
STARTCHAR comma
ENCODING 44
SWIDTH 600 0
DWIDTH 17 0
BBX 7 13 5 -7
BITMAP
04CED500
3FFFFF30
8FFFFFA0
8FFFFFD0
3FFFFFF0
05CFFFF0
0005FFD0
000AFFA0
006FFF30
3AFFF900
AFFF9000
4FD50000
03000000
ENDCHAR
STARTCHAR hyphen
ENCODING 45
SWIDTH 600 0
DWIDTH 17 0
BBX 14 3 1 8
BITMAP
1FFFFFFFFFFFFD
1FFFFFFFFFFFFD
1FFFFFFFFFFFFD
ENDCHAR
STARTCHAR period
ENCODING 46
SWIDTH 600 0
DWIDTH 17 0
BBX 7 7 5 0
BITMAP
05DFC300
4FFFFE10
AFFFFF70
CFFFFF90
AFFFFF70
4FFFFE10
05CEC300
ENDCHAR
STARTCHAR slash
ENCODING 47
SWIDTH 600 0
DWIDTH 17 0
BBX 13 24 2 -4
BITMAP
000000000DFF80
000000004FFF20
00000000AFFC00
00000001FFF600
00000007FFE100
0000000CFF9000
0000003FFF4000
0000009FFD0000
000001EFF70000
000005FFF10000
00000BFFB00000
00002FFF500000
00008FFE000000
0000DFF8000000
0004FFF2000000
000AFFC0000000
001FFF60000000
006FFE10000000
00CFF900000000
03FFF400000000
09FFD000000000
0EFF7000000000
5FFF2000000000
BFFB0000000000
ENDCHAR
STARTCHAR zero
ENCODING 48
SWIDTH 600 0
DWIDTH 17 0
BBX 15 18 1 0
BITMAP
00005BEFDA400000
001BFFFFFFF80000
00AFFFFFFFFF7000
05FFFC304DFFF200
0BFFE10004FFF800
1FFFA00000DFFC00
4FFF6013109FFF10
5FFF43EFD18FFF20
6FFF4AFFF67FFF30
6FFF49FFF67FFF30
5FFF52CEA08FFF20
3FFF700000AFFF00
1FFFA00000DFFC00
0BFFF20004FFF700
04FFFC304EFFE200
00AFFFFFFFFF7000
000AFFFFFFF80000
00005BEFDA300000
ENDCHAR
STARTCHAR one
ENCODING 49
SWIDTH 600 0
DWIDTH 17 0
BBX 14 18 2 0
BITMAP
036ADA77710000
0EFFFFFFF20000
0EFFFFFFF20000
06666FFFF20000
00000FFFF20000
00000FFFF20000
00000FFFF20000
00000FFFF20000
00000FFFF20000
00000FFFF20000
00000FFFF20000
00000FFFF20000
00000FFFF20000
00000FFFF20000
00000FFFF54441
CFFFFFFFFFFFF2
CFFFFFFFFFFFF2
CFFFFFFFFFFFF2
ENDCHAR
STARTCHAR two
ENCODING 50
SWIDTH 600 0
DWIDTH 17 0
BBX 14 18 1 0
BITMAP
0006BDFEC71000
04DFFFFFFFE300
4FFFFFFFFFFE20
0AFE7214DFFF90
008300003FFFE0
000000000EFFF0
000000000EFFF0
000000004FFFB0
00000000CFFF50
00000008FFFB00
0000006FFFE200
000005FFFF4000
00006FFFF50000
0006FFFF500000
008FFFF5000000
0AFFFFEDEFFFFF
5FFFFFFFFFFFFF
6FFFFFFFFFFFFF
ENDCHAR
STARTCHAR three
ENCODING 51
SWIDTH 600 0
DWIDTH 17 0
BBX 14 18 1 0
BITMAP
0016BDFEDA4000
06EFFFFFFFFB10
1DFFFFFFFFFFA0
03EE72029FFFF2
004200000EFFF4
000000001EFFF2
00000126DFFF90
00009FFFFFE700
00009FFFFF6000
00009FFFFFFD30
00000125BFFFF3
0000000009FFFA
0000000005FFFD
0370000007FFFC
1DFC51027FFFF8
9FFFFFFFFFFFD1
1BFFFFFFFFFC20
0038CEFEDA4000
ENDCHAR
STARTCHAR four
ENCODING 52
SWIDTH 600 0
DWIDTH 17 0
BBX 15 18 1 0
BITMAP
0000001DFFFF6000
0000009FFFFF6000
000004FFFFFF6000
00001DFFAFFF6000
00008FFB6FFF6000
0003FFF36FFF6000
000DFFA07FFF6000
008FFE107FFF6000
03FFF7007FFF6000
0CFFC0007FFF6000
7FFF40007FFF6000
FFFFFFFFFFFFFF90
FFFFFFFFFFFFFF90
FFFFFFFFFFFFFF90
000000007FFF6000
000000007FFF6000
000000007FFF6000
000000007FFF6000
ENDCHAR
STARTCHAR five
ENCODING 53
SWIDTH 600 0
DWIDTH 17 0
BBX 14 18 1 0
BITMAP
00DFFFFFFFFFF1
00DFFFFFFFFFF1
00EFFFFFFFFFF1
00FFFB00000000
01FFF900000000
02FFF800000000
02FFF910000000
03FFFFFFEC8200
04FFFFFFFFFE50
00BFFFFFFFFFF3
001A62027FFFF9
0000000007FFFC
0000000004FFFD
0280000008FFFB
0CFD51028FFFF5
7FFFFFFFFFFFB0
19FFFFFFFFFA10
0028BDFED93000
ENDCHAR
STARTCHAR six
ENCODING 54
SWIDTH 600 0
DWIDTH 17 0
BBX 15 18 1 0
BITMAP
000006BEFEB71000
0003DFFFFFFFE700
002EFFFFFFFFF700
00CFFFA3026E8000
05FFFA0000010000
0BFFF20000000000
0FFFC00000000000
3FFF917CEEC60000
4FFFBEFFFFFFC100
4FFFFFFFFFFFF900
4FFFFD5117FFFF10
2FFFC10000AFFF30
0EFFC000008FFF30
09FFF40000BFFF20
02FFFE5129FFFC00
007FFFFFFFFFF300
0007FFFFFFFE4000
000029DFEC810000
ENDCHAR
STARTCHAR seven
ENCODING 55
SWIDTH 600 0
DWIDTH 17 0
BBX 15 18 1 0
BITMAP
4FFFFFFFFFFFFF10
4FFFFFFFFFFFFF10
4FFFFFFFFFFFFB00
000000000AFFD100
000000006FFF3000
00000002EFF80000
0000000AFFE10000
0000003FFF700000
000000AFFF100000
000001FFFA000000
000006FFF6000000
00000AFFF3000000
00000EFFF0000000
00002FFFD0000000
00004FFFC0000000
00006FFFA0000000
00007FFF90000000
00008FFF90000000
ENDCHAR
STARTCHAR eight
ENCODING 56
SWIDTH 600 0
DWIDTH 17 0
BBX 15 18 1 0
BITMAP
00017BEFEB710000
002DFFFFFFFD2000
00DFFFFFFFFFC000
05FFFA203BFFF300
07FFF20002FFF500
06FFF70003FFF200
02FFFFB52CFF8000
007FFFFFFFF80000
0007FFFFFFE70000
002AFFFFFFFFA000
03EFF738EFFFF700
0CFF900018FFFE00
3FFF500000CFFF10
4FFF800000DFFF10
1FFFF72029FFFC00
09FFFFFFFFFFF500
00AFFFFFFFFE6000
00049DEFEC820000
ENDCHAR
STARTCHAR nine
ENCODING 57
SWIDTH 600 0
DWIDTH 17 0
BBX 15 18 1 0
BITMAP
00039DFEC7100000
008FFFFFFFE40000
07FFFFFFFFFF3000
1EFFF6117FFFD000
5FFF800008FFF500
7FFF400001FFFA00
7FFF600002EFFD00
4FFFE4116EFFFF00
0DFFFFFFFFFFFF10
03EFFFFFFCDFFF00
0018DFEB50DFFE00
0000000001FFFB00
0000000005FFF700
001000001DFFF200
00BC5114CFFF9000
0BFFFFFFFFFC1000
19FFFFFFFFB10000
0028CEFDA4000000
ENDCHAR
STARTCHAR colon
ENCODING 58
SWIDTH 600 0
DWIDTH 17 0
BBX 7 16 5 0
BITMAP
05DFC300
4FFFFE10
AFFFFF70
CFFFFF90
AFFFFF70
4FFFFE10
05CEC300
00000000
00000000
05DFC300
4FFFFE10
AFFFFF70
CFFFFF90
AFFFFF70
4FFFFE10
05CEC300
ENDCHAR
STARTCHAR semicolon
ENCODING 59
SWIDTH 600 0
DWIDTH 17 0
BBX 7 23 5 -7
BITMAP
05DFC300
4FFFFE10
AFFFFF70
CFFFFF90
AFFFFF70
4FFFFE10
05CEC300
00000000
00000000
00000000
04CED500
3FFFFF30
8FFFFFA0
8FFFFFD0
3FFFFFF0
05CFFFF0
0005FFD0
000AFFA0
006FFF30
3AFFF900
AFFF9000
4FD50000
03000000
ENDCHAR
STARTCHAR less
ENCODING 60
SWIDTH 600 0
DWIDTH 17 0
BBX 12 15 3 2
BITMAP
0000000002A1
000000019FF1
0000007EFFF1
00005DFFFD50
004CFFFF8100
2AFFFFB20000
BFFFD5000000
BFFD10000000
BFFFD5000000
2AFFFFB20000
004CFFFF8100
00005DFFFD50
0000007EFFF1
000000019FF1
0000000002A1
ENDCHAR
STARTCHAR equal
ENCODING 61
SWIDTH 600 0
DWIDTH 17 0
BBX 14 9 1 5
BITMAP
1FFFFFFFFFFFFD
1FFFFFFFFFFFFD
1FFFFFFFFFFFFD
00000000000000
00000000000000
00000000000000
1FFFFFFFFFFFFD
1FFFFFFFFFFFFD
1FFFFFFFFFFFFD
ENDCHAR
STARTCHAR greater
ENCODING 62
SWIDTH 600 0
DWIDTH 17 0
BBX 12 15 2 2
BITMAP
391000000000
4FE700000000
4FFFD5000000
07EFFFC40000
002AFFFFA200
00004CFFFF91
0000007EFFF8
00000003FFF8
0000007EFFF8
00004DFFFF91
002AFFFFA200
07EFFFC40000
4FFFD5000000
4FE700000000
391000000000
ENDCHAR
STARTCHAR question
ENCODING 63
SWIDTH 600 0
DWIDTH 17 0
BBX 12 19 2 0
BITMAP
0017CEFDA500
05EFFFFFFFB0
1DFFFFFFFFF8
01CE5119FFFD
00110001FFFD
00000006FFF9
0000005FFFD1
000007FFFD20
00005FFFC100
0000CFFE2000
0000EFFB0000
000000000000
000000000000
00008EE80000
0006FFFF6000
000BFFFFB000
000BFFFFB000
0006FFFF6000
00008EE80000
ENDCHAR
STARTCHAR at
ENCODING 64
SWIDTH 600 0
DWIDTH 17 0
BBX 16 22 0 -4
BITMAP
0000018CEFD92000
00006EFFFFFFF500
0007FFFFFFFFFF30
004FFFD5103AFFB0
00CFFC100000AFF1
04FFE10000004FF4
09FF800000037FF5
0CFF20004AEFFFF6
0FFE0009FFFFFFF6
1FFC008FFFEBCFF6
1FFB00EFF8008FF6
1FFB01FFE0008FF6
0FFC01FFF414DFF6
0EFE00CFFFFFFFF6
0BFF304FFFFF9FF6
07FF9004DFD60DF6
02FFF30000000000
00AFFD2000000000
002EFFE72014AA00
0004FFFFFFFFFF30
00004DFFFFFFFC30
0000006BEFEB5000
ENDCHAR
STARTCHAR A
ENCODING 65
SWIDTH 600 0
DWIDTH 17 0
BBX 17 18 0 0
BITMAP
000003FFFFF1000000
000008FFFFF5000000
00000DFFFFFA000000
00003FFFBFFE000000
00007FFE5FFF400000
0000CFFB1FFF900000
0002FFF70DFFE00000
0007FFF409FFF30000
000BFFF005FFF80000
001FFFC002FFFD0000
006FFF8000DFFF3000
00AFFFFFFFFFFF7000
01FFFFFFFFFFFFC000
05FFFFFFFFFFFFF200
0AFFF700000CFFF700
0EFFF2000007FFFB00
4FFFD0000003FFFF10
9FFF90000000EFFF60
ENDCHAR
STARTCHAR B
ENCODING 66
SWIDTH 600 0
DWIDTH 17 0
BBX 14 18 2 0
BITMAP
EFFFFFFECA4000
EFFFFFFFFFFA00
EFFFFFFFFFFF70
EFFF3013BFFFC0
EFFF30003FFFD0
EFFF30004FFFA0
EFFF3014DFFF30
EFFFFFFFFFD400
EFFFFFFFFE8200
EFFFFFFFFFFF70
EFFF30026EFFF4
EFFF300007FFF9
EFFF300005FFFB
EFFF300008FFFA
EFFF30027FFFF6
EFFFFFFFFFFFD0
EFFFFFFFFFFC20
EFFFFFFEDA5000
ENDCHAR
STARTCHAR C
ENCODING 67
SWIDTH 600 0
DWIDTH 17 0
BBX 15 18 1 0
BITMAP
0000049CEFDA5000
0001BFFFFFFFFC30
002DFFFFFFFFFE30
00CFFFE6103AE400
06FFFE3000002000
0DFFF70000000000
2FFFF10000000000
5FFFD00000000000
7FFFB00000000000
7FFFB00000000000
6FFFD00000000000
3FFFF10000000000
0EFFF70000000000
08FFFE3000005100
01DFFFE6203AFB00
003EFFFFFFFFFFA0
0002CFFFFFFFFC20
000005ADEEDA5000
ENDCHAR
STARTCHAR D
ENCODING 68
SWIDTH 600 0
DWIDTH 17 0
BBX 15 18 1 0
BITMAP
1FFFFFFDB7100000
1FFFFFFFFFF80000
1FFFFFFFFFFFA000
1FFFF214AFFFF600
1FFFF20009FFFE10
1FFFF20001FFFF50
1FFFF20000BFFF80
1FFFF200008FFFA0
1FFFF200007FFFB0
1FFFF200007FFFB0
1FFFF200008FFFA0
1FFFF20000BFFF80
1FFFF20002FFFF40
1FFFF2000AFFFD00
1FFFF214BFFFF600
1FFFFFFFFFFF9000
1FFFFFFFFFF80000
1FFFFFFEB7200000
ENDCHAR
STARTCHAR E
ENCODING 69
SWIDTH 600 0
DWIDTH 17 0
BBX 13 18 2 0
BITMAP
6FFFFFFFFFFFA0
6FFFFFFFFFFFA0
6FFFFFFFFFFFA0
6FFFB000000000
6FFFB000000000
6FFFB000000000
6FFFB000000000
6FFFFFFFFFF700
6FFFFFFFFFF700
6FFFFFFFFFF700
6FFFB000000000
6FFFB000000000
6FFFB000000000
6FFFB000000000
6FFFB000000000
6FFFFFFFFFFFE0
6FFFFFFFFFFFE0
6FFFFFFFFFFFE0
ENDCHAR
STARTCHAR F
ENCODING 70
SWIDTH 600 0
DWIDTH 17 0
BBX 14 18 2 0
BITMAP
1FFFFFFFFFFFF1
1FFFFFFFFFFFF1
1FFFFFFFFFFFF1
1FFFF100000000
1FFFF100000000
1FFFF100000000
1FFFF100000000
1FFFF100000000
1FFFFFFFFFFD00
1FFFFFFFFFFD00
1FFFFFFFFFFD00
1FFFF100000000
1FFFF100000000
1FFFF100000000
1FFFF100000000
1FFFF100000000
1FFFF100000000
1FFFF100000000
ENDCHAR
STARTCHAR G
ENCODING 71
SWIDTH 600 0
DWIDTH 17 0
BBX 15 18 1 0
BITMAP
000016BDFEC71000
0005EFFFFFFFE600
006FFFFFFFFFF700
03FFFFB3017E8000
0BFFFC0000020000
3FFFF30000000000
7FFFC00000000000
AFFF900000000000
BFFF8001FFFFFF50
BFFF8001FFFFFF50
AFFF9001FFFFFF50
8FFFC000006FFF50
4FFFF200006FFF50
0DFFFA00006FFF50
05FFFFA301AFFF50
008FFFFFFFFFFF50
0006EFFFFFFFF800
000017BEFEC71000
ENDCHAR
STARTCHAR H
ENCODING 72
SWIDTH 600 0
DWIDTH 17 0
BBX 14 18 1 0
BITMAP
3FFFE00002FFFF
3FFFE00002FFFF
3FFFE00002FFFF
3FFFE00002FFFF
3FFFE00002FFFF
3FFFE00002FFFF
3FFFE00002FFFF
3FFFFFFFFFFFFF
3FFFFFFFFFFFFF
3FFFFFFFFFFFFF
3FFFE00002FFFF
3FFFE00002FFFF
3FFFE00002FFFF
3FFFE00002FFFF
3FFFE00002FFFF
3FFFE00002FFFF
3FFFE00002FFFF
3FFFE00002FFFF
ENDCHAR
STARTCHAR I
ENCODING 73
SWIDTH 600 0
DWIDTH 17 0
BBX 13 18 2 0
BITMAP
EFFFFFFFFFFFB0
EFFFFFFFFFFFB0
EFFFFFFFFFFFB0
0000AFFF700000
0000AFFF700000
0000AFFF700000
0000AFFF700000
0000AFFF700000
0000AFFF700000
0000AFFF700000
0000AFFF700000
0000AFFF700000
0000AFFF700000
0000AFFF700000
0000AFFF700000
EFFFFFFFFFFFB0
EFFFFFFFFFFFB0
EFFFFFFFFFFFB0
ENDCHAR
STARTCHAR J
ENCODING 74
SWIDTH 600 0
DWIDTH 17 0
BBX 14 18 1 0
BITMAP
00CFFFFFFFFFF7
00CFFFFFFFFFF7
00CFFFFFFFFFF7
000000000AFFF7
000000000AFFF7
000000000AFFF7
000000000AFFF7
000000000AFFF7
000000000AFFF7
000000000AFFF7
000000000AFFF7
000000000AFFF7
000000000BFFF6
007800000EFFF3
06FFA302AFFFE0
2FFFFFFFFFFF60
04DFFFFFFFF700
0006BEFEC92000
ENDCHAR
STARTCHAR K
ENCODING 75
SWIDTH 600 0
DWIDTH 17 0
BBX 16 18 1 0
BITMAP
1FFFF10000CFFFB0
1FFFF10008FFFD10
1FFFF1004FFFF300
1FFFF101EFFF7000
1FFFF10BFFFA0000
1FFFF17FFFD10000
1FFFF4FFFE300000
1FFFFEFFFD000000
1FFFFFFFFF600000
1FFFFFFFFFD10000
1FFFFFECFFF70000
1FFFFF54FFFE1000
1FFFF800BFFF9000
1FFFF1003FFFF200
1FFFF1000BFFFA00
1FFFF10003FFFF40
1FFFF10000BFFFC0
1FFFF100003FFFF5
ENDCHAR
STARTCHAR L
ENCODING 76
SWIDTH 600 0
DWIDTH 17 0
BBX 13 18 3 0
BITMAP
FFFF2000000000
FFFF2000000000
FFFF2000000000
FFFF2000000000
FFFF2000000000
FFFF2000000000
FFFF2000000000
FFFF2000000000
FFFF2000000000
FFFF2000000000
FFFF2000000000
FFFF2000000000
FFFF2000000000
FFFF2000000000
FFFF2000000000
FFFFFFFFFFFF40
FFFFFFFFFFFF40
FFFFFFFFFFFF40
ENDCHAR
STARTCHAR M
ENCODING 77
SWIDTH 600 0
DWIDTH 17 0
BBX 15 18 1 0
BITMAP
6FFFF10004FFFF30
6FFFF50008FFFF30
6FFFFA000DFFFF30
6FFFFE002FFFFF30
6FFDFF306FFDFF30
6FFAFF70AFBDFF30
6FFBBFB0EF7FFF30
6FFC7FF4FF3FFF30
6FFD3FFBFD2FFF30
6FFE0DFFF83FFF30
6FFF08FFF34FFF30
6FFF03FFE04FFF30
6FFF10DF904FFF30
6FFF1023104FFF30
6FFF1000004FFF30
6FFF1000004FFF30
6FFF1000004FFF30
6FFF1000004FFF30
ENDCHAR
STARTCHAR N
ENCODING 78
SWIDTH 600 0
DWIDTH 17 0
BBX 14 18 1 0
BITMAP
2FFFF40000FFFE
2FFFFB0000FFFE
2FFFFF2000FFFE
2FFFFF9000FFFE
2FFFFFE100FFFE
2FFFCFF600FFFE
2FFF7FFD00FFFE
2FFF7BFF40EFFE
2FFF95FFB0DFFE
2FFFA0DFF2CFFE
2FFFB07FF8AFFE
2FFFC01FFE9FFE
2FFFC009FFCFFE
2FFFC003FFFFFE
2FFFC000CFFFFE
2FFFC0005FFFFE
2FFFC0000EFFFE
2FFFC00007FFFE
ENDCHAR
STARTCHAR O
ENCODING 79
SWIDTH 600 0
DWIDTH 17 0
BBX 15 18 1 0
BITMAP
00006BEFDA500000
003DFFFFFFFB1000
02EFFFFFFFFFC000
0BFFFD315EFFF800
2FFFF30006FFFE00
8FFFB00000EFFF40
BFFF700000AFFF80
DFFF5000008FFFA0
EFFF5000008FFFB0
EFFF5000008FFFA0
DFFF6000008FFFA0
BFFF800000BFFF70
7FFFB00000EFFF40
2FFFF30006FFFE00
0AFFFD315EFFF700
01EFFFFFFFFFC000
002DFFFFFFFB1000
00006BEFDA500000
ENDCHAR
STARTCHAR P
ENCODING 80
SWIDTH 600 0
DWIDTH 17 0
BBX 14 18 2 0
BITMAP
EFFFFFFEDA5000
EFFFFFFFFFFC10
EFFFFFFFFFFFB0
EFFF30028FFFF4
EFFF300009FFF8
EFFF300006FFFA
EFFF300006FFFA
EFFF30000BFFF7
EFFF30029FFFF2
EFFFFFFFFFFF80
EFFFFFFFFFF800
EFFFFFFEC83000
EFFF3000000000
EFFF3000000000
EFFF3000000000
EFFF3000000000
EFFF3000000000
EFFF3000000000
ENDCHAR
STARTCHAR Q
ENCODING 81
SWIDTH 600 0
DWIDTH 17 0
BBX 16 23 1 -5
BITMAP
00006BEFDA500000
002DFFFFFFFB1000
01DFFFFFFFFFB000
0AFFFD315EFFF700
2FFFF20005FFFD00
7FFFB00000EFFF40
AFFF700000AFFF70
CFFF5000008FFF90
DFFF5000007FFFA0
DFFF5000008FFFA0
DFFF6000009FFF90
BFFF800000AFFF70
8FFFB00000EFFF50
3FFFF20005FFFE10
0CFFFD315EFFF800
03EFFFFFFFFFD100
004EFFFFFFFD2000
0002AEFFFE810000
000003FFFF300000
000000AFFFE61130
0000002DFFFFFFC0
00000002CFFFFFF1
0000000005BEFEB2
ENDCHAR
STARTCHAR R
ENCODING 82
SWIDTH 600 0
DWIDTH 17 0
BBX 16 18 1 0
BITMAP
1FFFFFFFEC930000
1FFFFFFFFFFF9000
1FFFFFFFFFFFF800
1FFFF1013AFFFF10
1FFFF10000DFFF50
1FFFF10000AFFF70
1FFFF10000AFFF60
1FFFF10001EFFF40
1FFFF1014CFFFE00
1FFFFFFFFFFFF600
1FFFFFFFFFFF7000
1FFFFFFFFFF70000
1FFFF107FFFE1000
1FFFF100DFFF9000
1FFFF1005FFFF300
1FFFF1000BFFFC00
1FFFF10002FFFF60
1FFFF100008FFFE2
ENDCHAR
STARTCHAR S
ENCODING 83
SWIDTH 600 0
DWIDTH 17 0
BBX 15 18 1 0
BITMAP
00005ADFED940000
002CFFFFFFFFC300
01DFFFFFFFFFF700
08FFFC3014AF9000
0CFFF50000030000
0DFFF90000000000
0AFFFFC500000000
03FFFFFFD8200000
006FFFFFFFF92000
0003AFFFFFFFE300
0000028DFFFFFD00
000000006DFFFF40
0000000002FFFF60
0086000000DFFF50
07FFC62017FFFE10
4FFFFFFFFFFFF600
07EFFFFFFFFE6000
0016ADEFEB720000
ENDCHAR
STARTCHAR T
ENCODING 84
SWIDTH 600 0
DWIDTH 17 0
BBX 16 18 0 0
BITMAP
2FFFFFFFFFFFFFFE
2FFFFFFFFFFFFFFE
2FFFFFFFFFFFFFFE
000000AFFF700000
000000AFFF700000
000000AFFF700000
000000AFFF700000
000000AFFF700000
000000AFFF700000
000000AFFF700000
000000AFFF700000
000000AFFF700000
000000AFFF700000
000000AFFF700000
000000AFFF700000
000000AFFF700000
000000AFFF700000
000000AFFF700000
ENDCHAR
STARTCHAR U
ENCODING 85
SWIDTH 600 0
DWIDTH 17 0
BBX 14 18 1 0
BITMAP
3FFFE00000FFFF
3FFFE00000FFFF
3FFFE00000FFFF
3FFFE00000FFFF
3FFFE00000FFFF
3FFFE00000FFFF
3FFFE00000FFFF
3FFFE00000FFFF
3FFFE00000FFFF
3FFFE00000FFFF
3FFFE00000FFFF
3FFFE00000FFFF
1FFFF00001FFFD
0DFFF40005FFFB
08FFFC314DFFF6
02EFFFFFFFFFC0
004EFFFFFFFD20
00018CEFEB7100
ENDCHAR
STARTCHAR V
ENCODING 86
SWIDTH 600 0
DWIDTH 17 0
BBX 17 18 0 0
BITMAP
6FFFE0000000EFFF30
2FFFF3000003FFFE00
0CFFF7000007FFF900
08FFFB00000BFFF500
03FFFE00000EFFE100
00DFFF30004FFFB000
009FFF70008FFF6000
004FFFB000BFFF1000
000EFFF101FFFC0000
000AFFF404FFF70000
0005FFF808FFF30000
0001FFFC0CFFD00000
0000BFFF2FFF900000
00007FFF9FFF400000
00002FFFFFFE000000
00000CFFFFFA000000
000008FFFFF5000000
000003FFFFF1000000
ENDCHAR
STARTCHAR W
ENCODING 87
SWIDTH 600 0
DWIDTH 17 0
BBX 17 18 0 0
BITMAP
CFFF600000005FFF90
AFFF700000006FFF80
8FFF800000007FFF60
6FFF900000007FFF40
4FFFA00576008FFF20
2FFFB00EFF209FFF00
0FFFC03FFF50AFFD00
0DFFC07FFF90BFFB00
0BFFD0AFFFC0BFF900
09FFE0EFCFF1CFF800
07FFF2FF8FF4DFF600
05FFF5FF4FF7DFF400
03FFF8FD1FFAEFF200
01FFFCFA0DFDEFF000
00EFFFF70AFFFFD000
00CFFFF507FFFFB000
00AFFFF204FFFFA000
008FFFE001FFFF8000
ENDCHAR
STARTCHAR X
ENCODING 88
SWIDTH 600 0
DWIDTH 17 0
BBX 17 18 0 0
BITMAP
0DFFFA00000AFFFB00
05FFFF30002FFFF200
00BFFFB000AFFF9000
003FFFF402FFFE1000
0009FFFB08FFF70000
0001EFFF4EFFD00000
00007FFFEFFF500000
00000DFFFFFC000000
000005FFFFF3000000
000009FFFFF4000000
00003FFFFFFD000000
0000BFFFBFFF700000
0005FFFA3FFFE20000
000DFFF30BFFFA0000
007FFFB003FFFF4000
02EFFF3000AFFFC000
0AFFFA00002FFFF600
3FFFF3000009FFFE10
ENDCHAR
STARTCHAR Y
ENCODING 89
SWIDTH 600 0
DWIDTH 17 0
BBX 17 18 0 0
BITMAP
5FFFF2000003FFFF20
0CFFF8000009FFF900
05FFFE00001EFFF200
00CFFF50007FFF9000
005FFFC000DFFF2000
000DFFF304FFFA0000
0005FFF90BFFF20000
0000DFFE3FFFA00000
00005FFFDFFF200000
00000DFFFFFA000000
000006FFFFF3000000
000000DFFFA0000000
000000AFFF70000000
000000AFFF70000000
000000AFFF70000000
000000AFFF70000000
000000AFFF70000000
000000AFFF70000000
ENDCHAR
STARTCHAR Z
ENCODING 90
SWIDTH 600 0
DWIDTH 17 0
BBX 15 18 1 0
BITMAP
09FFFFFFFFFFFF30
09FFFFFFFFFFFF30
09FFFFFFFFFFFD10
000000003FFFF400
00000000DFFF9000
00000008FFFD1000
0000003FFFF40000
000000CFFF900000
000008FFFD100000
00003FFFF4000000
0000CFFF90000000
0007FFFD10000000
003FFFF500000000
00CFFFA000000000
07FFFE1000000000
2FFFFFFFFFFFFF50
7FFFFFFFFFFFFF50
7FFFFFFFFFFFFF50
ENDCHAR
STARTCHAR bracketleft
ENCODING 91
SWIDTH 600 0
DWIDTH 17 0
BBX 9 25 5 -5
BITMAP
6FFFFFFFD0
6FFFFFFFD0
6FFFFFFFD0
6FFB000000
6FFB000000
6FFB000000
6FFB000000
6FFB000000
6FFB000000
6FFB000000
6FFB000000
6FFB000000
6FFB000000
6FFB000000
6FFB000000
6FFB000000
6FFB000000
6FFB000000
6FFB000000
6FFB000000
6FFB000000
6FFB000000
6FFFFFFFD0
6FFFFFFFD0
6FFFFFFFD0
ENDCHAR
STARTCHAR backslash
ENCODING 92
SWIDTH 600 0
DWIDTH 17 0
BBX 13 24 2 -4
BITMAP
BFFB0000000000
5FFF2000000000
0EFF7000000000
09FFD000000000
03FFF400000000
00CFF900000000
006FFE10000000
001FFF60000000
000AFFC0000000
0004FFF2000000
0000DFF8000000
00008FFE000000
00002FFF500000
00000BFFB00000
000005FFF10000
000001EFF70000
0000009FFD0000
0000003FFF4000
0000000CFF9000
00000007FFE100
00000001FFF600
00000000AFFC00
000000004FFF20
000000000DFF80
ENDCHAR
STARTCHAR bracketright
ENCODING 93
SWIDTH 600 0
DWIDTH 17 0
BBX 10 25 2 -5
BITMAP
1FFFFFFFF3
1FFFFFFFF3
1FFFFFFFF3
000000EFF3
000000EFF3
000000EFF3
000000EFF3
000000EFF3
000000EFF3
000000EFF3
000000EFF3
000000EFF3
000000EFF3
000000EFF3
000000EFF3
000000EFF3
000000EFF3
000000EFF3
000000EFF3
000000EFF3
000000EFF3
000000EFF3
1FFFFFFFF3
1FFFFFFFF3
1FFFFFFFF3
ENDCHAR
STARTCHAR asciicircum
ENCODING 94
SWIDTH 600 0
DWIDTH 17 0
BBX 13 11 2 7
BITMAP
00007FFF400000
0000DFFFA00000
0004FFFFF10000
000AFFEFF60000
001EFF5FFC0000
006FFB0EFF3000
00CFF609FF9000
03FFF104FFE100
09FFA000DFF600
1EFF50008FFC00
6FFE00003FFF30
ENDCHAR
STARTCHAR underscore
ENCODING 95
SWIDTH 600 0
DWIDTH 17 0
BBX 15 3 1 -5
BITMAP
5FFFFFFFFFFFFF20
5FFFFFFFFFFFFF20
5FFFFFFFFFFFFF20
ENDCHAR
STARTCHAR grave
ENCODING 96
SWIDTH 600 0
DWIDTH 17 0
BBX 8 7 3 16
BITMAP
004A0000
04FF9000
3FFFF600
08FFFF40
006FFFE3
0004EFE3
00002C20
ENDCHAR
STARTCHAR a
ENCODING 97
SWIDTH 600 0
DWIDTH 17 0
BBX 14 14 1 0
BITMAP
00048CEFEC8200
05DFFFFFFFFE40
05FFFFFFFFFFE2
00CE83114DFFF8
0010000005FFFC
0000379CDFFFFE
005CFFFFFFFFFF
07FFFFFFFFFFFF
1EFFFC6312FFFF
4FFFC00002FFFF
4FFFD3026DFFFF
0EFFFFFFFFFFFF
04FFFFFFF9AFFF
003BEFD9207FFF
ENDCHAR
STARTCHAR b
ENCODING 98
SWIDTH 600 0
DWIDTH 17 0
BBX 14 20 2 0
BITMAP
FFFF2000000000
FFFF2000000000
FFFF2000000000
FFFF2000000000
FFFF2000000000
FFFF2000000000
FFFF16CEEB5000
FFFFCFFFFFF900
FFFFFFFFFFFF60
FFFFE513CFFFD0
FFFF40003FFFF3
FFFF20000DFFF6
FFFF20000CFFF7
FFFF20000CFFF6
FFFF20000EFFF5
FFFF50004FFFF1
FFFFE514EFFFA0
FFFFFFFFFFFE20
FFFADFFFFFE400
FFF518DFD92000
ENDCHAR
STARTCHAR c
ENCODING 99
SWIDTH 600 0
DWIDTH 17 0
BBX 15 14 1 0
BITMAP
000006ADFED94000
0004DFFFFFFFFB00
006FFFFFFFFFF700
02FFFFC5114AA000
0AFFFD1000000000
0EFFF50000000000
1FFFF20000000000
1FFFF20000000000
0EFFF50000000000
0AFFFC1000002000
04FFFFC4114AF300
008FFFFFFFFFFD00
0007FFFFFFFFFA10
000017BEFEC83000
ENDCHAR
STARTCHAR d
ENCODING 100
SWIDTH 600 0
DWIDTH 17 0
BBX 14 20 1 0
BITMAP
0000000005FFFC
0000000005FFFC
0000000005FFFC
0000000005FFFC
0000000005FFFC
0000000004FFFC
0003AEFD74FFFC
007FFFFFFDFFFC
05FFFFFFFFFFFC
0DFFFC315EFFFC
5FFFE10006FFFC
8FFFA00005FFFC
AFFF900005FFFC
AFFF900005FFFC
9FFFA00005FFFC
5FFFE10008FFFC
1EFFFB216FFFFC
08FFFFFFFFFFFC
00AFFFFFFADFFC
0005BEEC50AFFC
ENDCHAR
STARTCHAR e
ENCODING 101
SWIDTH 600 0
DWIDTH 17 0
BBX 15 14 1 0
BITMAP
00004ADFEC810000
001BFFFFFFFE5000
01CFFFFFFFFFF300
08FFFC4116FFFB00
1EFFE100008FFF10
4FFFFFFFFFFFFF40
6FFFFFFFFFFFFF40
6FFFFFFFFFFFFF30
4FFFD00000000000
1FFFF50000000000
09FFFF8211499000
01CFFFFFFFFFF300
001AFFFFFFFFF600
000049DEFEB71000
ENDCHAR
STARTCHAR f
ENCODING 102
SWIDTH 600 0
DWIDTH 17 0
BBX 15 20 2 0
BITMAP
00000028CEFDB820
000005FFFFFFFF20
00003FFFFFFFFD00
0000AFFFC3113500
0000EFFF40000000
0000FFFF10000000
9DEFFFFFFFFFD000
BFFFFFFFFFFFD000
BFFFFFFFFFFFD000
0000FFFF10000000
0000FFFF10000000
0000FFFF10000000
0000FFFF10000000
0000FFFF10000000
0000FFFF10000000
0000FFFF10000000
0000FFFF10000000
0000FFFF10000000
0000FFFF10000000
0000FFFF10000000
ENDCHAR
STARTCHAR g
ENCODING 103
SWIDTH 600 0
DWIDTH 17 0
BBX 15 20 1 -6
BITMAP
00029DFFFFFFFFE0
006FFFFFFFFFFFE0
04FFFFFFFFFFFFE0
0BFFF9119FFFFFE0
0EFFF0000FFF6000
0DFFF1001FFFA000
0AFFFB55CFFF9000
03FFFFFFFFFF3000
006FFFFFFFE60000
02DFD9BB96100000
09FFA10000000000
0BFFFFFFFFEC9200
07FFFFFFFFFFFF40
00AFEEFFFFFFFFC0
08FF2000015FFFF0
5FFE0000001EFFE0
8FFF931015CFFF80
5FFFFFFFFFFFFD10
09FFFFFFFFFFA100
0049CEFEDB720000
ENDCHAR
STARTCHAR h
ENCODING 104
SWIDTH 600 0
DWIDTH 17 0
BBX 14 20 2 0
BITMAP
FFFF2000000000
FFFF2000000000
FFFF2000000000
FFFF2000000000
FFFF2000000000
FFFF1000000000
FFFF029DFEA200
FFFE6FFFFFFE20
FFFFFFFFFFFF90
FFFFF811AFFFD0
FFFF80002FFFF1
FFFF20000FFFF2
FFFF20000FFFF2
FFFF20000FFFF2
FFFF20000FFFF2
FFFF20000FFFF2
FFFF20000FFFF2
FFFF20000FFFF2
FFFF20000FFFF2
FFFF20000FFFF2
ENDCHAR
STARTCHAR i
ENCODING 105
SWIDTH 600 0
DWIDTH 17 0
BBX 11 21 2 0
BITMAP
000002BED500
00000CFFFF20
00000FFFFF50
00000DFFFF30
000003BED600
000000000000
000000000000
CFFFFFFFFE00
CFFFFFFFFE00
CFFFFFFFFE00
000003FFFE00
000003FFFE00
000003FFFE00
000003FFFE00
000003FFFE00
000003FFFE00
000003FFFE00
000003FFFE00
000003FFFE00
000003FFFE00
000003FFFE00
ENDCHAR
STARTCHAR j
ENCODING 106
SWIDTH 600 0
DWIDTH 17 0
BBX 12 27 1 -6
BITMAP
0000002BED50
000000CFFFF2
000000FFFFF5
000000DFFFF3
0000003BED60
000000000000
000000000000
0CFFFFFFFFE0
0CFFFFFFFFE0
0CFFFFFFFFE0
0000003FFFE0
0000003FFFE0
0000003FFFE0
0000003FFFE0
0000003FFFE0
0000003FFFE0
0000003FFFE0
0000003FFFE0
0000003FFFE0
0000003FFFE0
0000003FFFD0
0000004FFFD0
0000007FFFA0
074114EFFF60
2FFFFFFFFD10
9FFFFFFFD300
38CEFEC71000
ENDCHAR
STARTCHAR k
ENCODING 107
SWIDTH 600 0
DWIDTH 17 0
BBX 15 20 2 0
BITMAP
DFFF400000000000
DFFF400000000000
DFFF400000000000
DFFF400000000000
DFFF400000000000
DFFF400000000000
DFFF40002DFFF700
DFFF4001DFFF8000
DFFF401CFFF90000
DFFF40BFFFA00000
DFFF4AFFFA000000
DFFFCFFFD0000000
DFFFFFFFF4000000
DFFFFFFFFD100000
DFFFFD9FFFA00000
DFFFE31DFFF50000
DFFF5004FFFE1000
DFFF4000AFFFA000
DFFF40001EFFF500
DFFF400006FFFE20
ENDCHAR
STARTCHAR l
ENCODING 108
SWIDTH 600 0
DWIDTH 17 0
BBX 15 20 1 0
BITMAP
9FFFFFFFD0000000
9FFFFFFFD0000000
9FFFFFFFD0000000
00004FFFD0000000
00004FFFD0000000
00004FFFD0000000
00004FFFD0000000
00004FFFD0000000
00004FFFD0000000
00004FFFD0000000
00004FFFD0000000
00004FFFD0000000
00004FFFD0000000
00004FFFD0000000
00003FFFD0000000
00002FFFF1000000
00000DFFFA103200
000007FFFFFFF900
000000BFFFFFFE00
00000007CEFEB810
ENDCHAR
STARTCHAR m
ENCODING 109
SWIDTH 600 0
DWIDTH 17 0
BBX 16 14 1 0
BITMAP
FFF25DEB119EE800
FFF8FFFF9AFFFF60
FFFFFFFFFFFFFFC0
FFFF84FFFC1EFFF0
FFFF11FFF50DFFF1
FFFE01FFF20DFFF1
FFFE01FFF20DFFF1
FFFE01FFF20DFFF1
FFFE01FFF20DFFF1
FFFE01FFF20DFFF1
FFFE01FFF20DFFF1
FFFE01FFF20DFFF1
FFFE01FFF20DFFF1
FFFE01FFF20DFFF1
ENDCHAR
STARTCHAR n
ENCODING 110
SWIDTH 600 0
DWIDTH 17 0
BBX 14 14 2 0
BITMAP
FFF7029DFEA200
FFF97FFFFFFE10
FFFFFFFFFFFF90
FFFFF911AFFFD0
FFFF90002FFFF1
FFFF20000FFFF2
FFFF20000FFFF2
FFFF20000FFFF2
FFFF20000FFFF2
FFFF20000FFFF2
FFFF20000FFFF2
FFFF20000FFFF2
FFFF20000FFFF2
FFFF20000FFFF2
ENDCHAR
STARTCHAR o
ENCODING 111
SWIDTH 600 0
DWIDTH 17 0
BBX 15 14 1 0
BITMAP
00006BEFDA500000
003DFFFFFFFB2000
03EFFFFFFFFFD100
0CFFFB204DFFF900
4FFFF10004FFFF10
8FFFB00000EFFF50
AFFF900000CFFF70
AFFF900000CFFF70
8FFFB00000EFFF50
4FFFF10004FFFF10
0CFFFB204DFFF900
03EFFFFFFFFFD100
003DFFFFFFFB2000
00006BEFDA500000
ENDCHAR
STARTCHAR p
ENCODING 112
SWIDTH 600 0
DWIDTH 17 0
BBX 14 20 2 -6
BITMAP
FFF706CEEB5000
FFFCCFFFFFF900
FFFFFFFFFFFF60
FFFFE613CFFFD0
FFFF50003FFFF3
FFFF20000DFFF6
FFFF20000CFFF7
FFFF20000CFFF6
FFFF20000EFFF5
FFFF30004FFFF1
FFFFD414EFFFA0
FFFFFFFFFFFE20
FFFFDFFFFFE400
FFFF18DFD92000
FFFF1000000000
FFFF2000000000
FFFF2000000000
FFFF2000000000
FFFF2000000000
FFFF2000000000
ENDCHAR
STARTCHAR q
ENCODING 113
SWIDTH 600 0
DWIDTH 17 0
BBX 14 20 1 -6
BITMAP
0003AEFD708FFC
007FFFFFFCCFFC
05FFFFFFFFFFFC
0DFFFC316FFFFC
5FFFE10008FFFC
8FFFA00005FFFC
AFFF900005FFFC
AFFF900005FFFC
9FFFA00005FFFC
5FFFE10007FFFC
1EFFFB216EFFFC
08FFFFFFFFFFFC
00AFFFFFFBFFFC
0005BEEC53FFFC
0000000004FFFC
0000000005FFFC
0000000005FFFC
0000000005FFFC
0000000005FFFC
0000000005FFFC
ENDCHAR
STARTCHAR r
ENCODING 114
SWIDTH 600 0
DWIDTH 17 0
BBX 13 14 3 0
BITMAP
BFFA0039DFEC20
BFFC08FFFFFF10
BFFD8FFFFFFB00
BFFFFFB4102300
BFFFF700000000
BFFFA000000000
BFFF5000000000
BFFF5000000000
BFFF5000000000
BFFF5000000000
BFFF5000000000
BFFF5000000000
BFFF5000000000
BFFF5000000000
ENDCHAR
STARTCHAR s
ENCODING 115
SWIDTH 600 0
DWIDTH 17 0
BBX 15 14 1 0
BITMAP
00017CEFEC940000
005EFFFFFFFFC400
03FFFFFFFFFFF400
08FFFB2015AF8000
09FFFB1000020000
05FFFFFD96200000
00AFFFFFFFFB4000
0005BFFFFFFFF600
00000158CFFFFE00
0071000003FFFF10
08FE942016FFFF00
3FFFFFFFFFFFF800
07EFFFFFFFFF9000
00059DEFEC930000
ENDCHAR
STARTCHAR t
ENCODING 116
SWIDTH 600 0
DWIDTH 17 0
BBX 15 18 1 0
BITMAP
00007FFF00000000
00009FFF00000000
0000BFFF00000000
0000DFFF00000000
8DEFFFFFFFFFFD00
9FFFFFFFFFFFFD00
9FFFFFFFFFFFFD00
0002FFFF00000000
0002FFFF00000000
0002FFFF00000000
0002FFFF00000000
0002FFFF00000000
0001FFFF10000000
0000FFFF40000000
0000CFFFD4113500
00005FFFFFFFFE00
000008FFFFFFFF30
0000004ADFFEB820
ENDCHAR
STARTCHAR u
ENCODING 117
SWIDTH 600 0
DWIDTH 17 0
BBX 14 14 1 0
BITMAP
4FFFD00006FFFB
4FFFD00006FFFB
4FFFD00006FFFB
4FFFD00006FFFB
4FFFD00006FFFB
4FFFD00006FFFB
4FFFD00006FFFB
4FFFD00006FFFB
4FFFD00007FFFB
3FFFF0001DFFFB
1FFFF812BFFFFB
0BFFFFFFFEFFFB
03FFFFFFD3DFFB
003BEFD810BFFB
ENDCHAR
STARTCHAR v
ENCODING 118
SWIDTH 600 0
DWIDTH 17 0
BBX 15 14 1 0
BITMAP
EFFF3000003FFFB0
9FFF8000008FFF60
3FFFD00000DFFF10
0CFFF30003FFFA00
07FFF80008FFF400
01FFFD000DFFE000
00AFFF202FFF9000
005FFF707FFF3000
000EFFB0BFFD0000
0009FFF2FFF70000
0003FFFAFFF20000
0000CFFFFFB00000
00007FFFFF600000
00001FFFFF100000
ENDCHAR
STARTCHAR w
ENCODING 119
SWIDTH 600 0
DWIDTH 17 0
BBX 17 14 0 0
BITMAP
CFFF200000003FFF90
AFFF400222005FFF70
7FFF602FFF206FFF50
5FFF805FFF508FFF20
2FFFA08FFF80AFFF00
0FFFC0AFDFB0CFFD00
0DFFE0DF9FD0EFFB00
0AFFF2FF6FF1FFF800
08FFF6FF3FF5FFF600
05FFFAFD1FF9FFF400
03FFFEFB0DFDFFF100
01FFFFF80BFFFFE000
00DFFFF608FFFFC000
00BFFFF306FFFFA000
ENDCHAR
STARTCHAR x
ENCODING 120
SWIDTH 600 0
DWIDTH 17 0
BBX 15 14 1 0
BITMAP
5FFFE20002FFFF20
0AFFFB000AFFF800
01EFFF503FFFD000
005FFFD1AFFF4000
000AFFFAFFF90000
0001DFFFFFE10000
00005FFFFF500000
0000AFFFFF200000
0005FFFFFFC00000
001EFFDBFFF80000
00AFFF52EFFF4000
05FFFC006FFFD100
1EFFF4000BFFFA00
AFFFA00002EFFF60
ENDCHAR
STARTCHAR y
ENCODING 121
SWIDTH 600 0
DWIDTH 17 0
BBX 15 20 1 -6
BITMAP
DFFF2000001FFFC0
7FFF8000006FFF60
1EFFD00000BFFF10
09FFF40001FFFA00
02FFFA0006FFF400
00AFFE100BFFD000
003FFF601FFF8000
000CFFB05FFF2000
0005FFF1AFFC0000
0000DFF6EFF60000
00007FFDFFE10000
00001EFFFFA00000
000008FFFF400000
000003FFFD000000
000006FFF8000000
00000DFFF2000000
0112AFFF90000000
08FFFFFE10000000
0CFFFFE300000000
0DFFD82000000000
ENDCHAR
STARTCHAR z
ENCODING 122
SWIDTH 600 0
DWIDTH 17 0
BBX 15 14 1 0
BITMAP
03FFFFFFFFFFFE00
03FFFFFFFFFFFE00
03FFFFFFFFFFF700
00000003FFFFA000
0000001DFFFC1000
000000CFFFE20000
000009FFFF400000
00006FFFF7000000
0004FFFFA0000000
002EFFFC10000000
00CFFFE200000000
09FFFFFFFFFFFF20
1FFFFFFFFFFFFF20
1FFFFFFFFFFFFF20
ENDCHAR
STARTCHAR braceleft
ENCODING 123
SWIDTH 600 0
DWIDTH 17 0
BBX 11 25 3 -5
BITMAP
000017CEFFD0
0000CFFFFFD0
0004FFFFFFD0
0006FFF71000
0007FFE00000
0006FFE00000
0005FFE00000
0004FFF00000
0003FFF00000
0006FFF00000
027EFFD00000
FFFFFE500000
FFFFB3000000
FFFFFE500000
127EFFD00000
0006FFF00000
0003FFF00000
0004FFF00000
0005FFE00000
0006FFE00000
0007FFE00000
0006FFF71000
0004FFFFFFD0
0000CFFFFFD0
000017CEFFD0
ENDCHAR
STARTCHAR bar
ENCODING 124
SWIDTH 600 0
DWIDTH 17 0
BBX 5 28 6 -7
BITMAP
6FFF30
6FFF30
6FFF30
6FFF30
6FFF30
6FFF30
6FFF30
6FFF30
6FFF30
6FFF30
6FFF30
6FFF30
6FFF30
6FFF30
6FFF30
6FFF30
6FFF30
6FFF30
6FFF30
6FFF30
6FFF30
6FFF30
6FFF30
6FFF30
6FFF30
6FFF30
6FFF30
6FFF30
ENDCHAR
STARTCHAR braceright
ENCODING 125
SWIDTH 600 0
DWIDTH 17 0
BBX 12 25 2 -5
BITMAP
1FFFEB600000
1FFFFFF90000
1FFFFFFF1000
00029FFF4000
00002FFF4000
00001FFF4000
00002FFF2000
00002FFF1000
00003FFF0000
00003FFF2000
00001FFFD520
000007FFFFFD
0000004CFFFD
000007FFFFFD
00001FFFD620
00003FFF2000
00003FFF0000
00002FFF1000
00002FFF2000
00001FFF4000
00002FFF4000
00029FFF4000
1FFFFFFF1000
1FFFFFF90000
1FFFEB600000
ENDCHAR
STARTCHAR asciitilde
ENCODING 126
SWIDTH 600 0
DWIDTH 17 0
BBX 15 6 1 6
BITMAP
0019EEA20006D610
02DFFFFF714EFF20
0BFFFFFFFFFFF900
5FFD229FFFFFC100
18E30004BFD81000
0010000000000000
ENDCHAR
STARTCHAR uni00A0
ENCODING 160
SWIDTH 600 0
DWIDTH 17 0
BBX 1 1 0 0
BITMAP
00
ENDCHAR
STARTCHAR exclamdown
ENCODING 161
SWIDTH 600 0
DWIDTH 17 0
BBX 7 20 5 -6
BITMAP
03CEB200
1EFFFC00
5FFFFF20
5FFFFF20
1EFFFC00
04CEB200
00000000
00000000
00FFC000
01FFD000
02FFE000
03FFF000
04FFF100
05FFF200
06FFF300
07FFF400
08FFF500
08FFF500
09FFF600
09FFF600
ENDCHAR
STARTCHAR cent
ENCODING 162
SWIDTH 600 0
DWIDTH 17 0
BBX 13 20 2 -1
BITMAP
0000004FF00000
0000004FF00000
0000004FF00000
00004AEFFEA400
001AFFFFFFFF30
00CFFFFFFFF900
07FFFD7FF38000
0EFFF44FF00000
3FFFD04FF00000
4FFFB04FF00000
4FFFB04FF00000
2FFFD04FF00000
0EFFF44FF00000
08FFFD7FF3A500
01DFFFFFFFFE10
002CFFFFFFFF60
00006BEFFD9300
0000004FF00000
0000004FF00000
0000004FF00000
ENDCHAR
STARTCHAR sterling
ENCODING 163
SWIDTH 600 0
DWIDTH 17 0
BBX 15 18 1 0
BITMAP
0000028CEFDA4000
00005EFFFFFFFA10
0004FFFFFFFFFC10
000CFFFB302AC100
001FFFE100000000
003FFFB000000000
002FFFB000000000
000DFFE000000000
1DEFFFFFFFFC0000
1FFFFFFFFFFC0000
1FFFFFFFFFFC0000
0000DFFB00000000
0000EFFA00000000
0004FFF500000000
002DFF9000000000
06EFFFFFFFFFFF60
2FFFFFFFFFFFFF60
2FFFFFFFFFFFFF60
ENDCHAR
STARTCHAR currency
ENCODING 164
SWIDTH 600 0
DWIDTH 17 0
BBX 15 15 1 2
BITMAP
0450000000007200
4FF600000008FE20
AFFF8ADFD99FFF70
0BFFFFFFFFFFF800
00EFFFFFFFFFB000
04FFFD315EFFE100
08FFF30006FFF500
0AFFF00003FFF600
08FFF30006FFF500
04FFFC315EFFE100
00DFFFFFFFFFA000
0AFFFFFFFFFFF700
AFFF8AEFD9AFFF70
5FF600000009FE30
0560000000008300
ENDCHAR
STARTCHAR yen
ENCODING 165
SWIDTH 600 0
DWIDTH 17 0
BBX 15 18 1 0
BITMAP
DFFF5000006FFFA0
5FFFB00000DFFF20
0CFFF30005FFF900
03FFFA000BFFE100
00AFFF103FFF7000
002FFF709FFE1000
0009FFE1EFF60000
0002EFFCFFD00000
4999DFFFFFC99920
6FFFFFFFFFFFFF30
6FFFFFFFFFFFFF30
36666CFFFA666610
00000AFFF7000000
49999DFFFB999920
6FFFFFFFFFFFFF30
6FFFFFFFFFFFFF30
36666CFFFA666610
00000AFFF7000000
ENDCHAR
STARTCHAR brokenbar
ENCODING 166
SWIDTH 600 0
DWIDTH 17 0
BBX 5 28 6 -7
BITMAP
6FFF30
6FFF30
6FFF30
6FFF30
6FFF30
6FFF30
6FFF30
6FFF30
6FFF30
6FFF30
6FFF30
6FFF30
255510
000000
000000
255510
6FFF30
6FFF30
6FFF30
6FFF30
6FFF30
6FFF30
6FFF30
6FFF30
6FFF30
6FFF30
6FFF30
6FFF30
ENDCHAR
STARTCHAR section
ENCODING 167
SWIDTH 600 0
DWIDTH 17 0
BBX 13 21 2 -2
BITMAP
0005BEFEB50000
008FFFFFFFD300
03FFFFFFFFE100
07FFF7029F4000
07FFF600020000
03FFFFA3000000
02EFFFFFB40000
2EFFFFFFFFA100
BFFD27DFFFFC10
EFF70005EFFF70
EFFC10001DFFB0
AFFFD5000BFFB0
2EFFFFD63EFF80
02BFFFFFFFFD10
0005CFFFFFB100
000003BFFFD000
0030000BFFF100
06FB302DFFF100
6FFFFFFFFFB000
1BFFFFFFFD2000
005ADFEC710000
ENDCHAR
STARTCHAR dieresis
ENCODING 168
SWIDTH 600 0
DWIDTH 17 0
BBX 11 5 3 16
BITMAP
2CE8001AEA10
BFFF508FFF80
EFFF70AFFFB0
BFFF508FFF80
2CE9001BEB10
ENDCHAR
STARTCHAR copyright
ENCODING 169
SWIDTH 600 0
DWIDTH 17 0
BBX 17 18 0 0
BITMAP
000006BEFDA5000000
0003DFFFFFFFC20000
003EFB51026DFD2000
01DF700000009FB000
08F90049BA400BF500
0EE109FFFFF604FB00
3FA06FFFFFF600DE00
5F70DFFB468000AF20
6F51FFE00000009F30
6F51FFE00000009F30
5F70DFF9237000AF20
3FA08FFFFFF400DE00
0DE10BFFFFF904FA00
07F9006BDC700CF400
01DF700000009FB000
003EFB51026DFD1000
0003DFFFFFFFB10000
000006BEFDA5000000
ENDCHAR
STARTCHAR ordfeminine
ENCODING 170
SWIDTH 600 0
DWIDTH 17 0
BBX 9 10 4 10
BITMAP
028DFEA300
5FFFFFFE20
3FFFFFFF90
085205FFC0
016ADEFFD0
3EFFFFFFD0
CFF523FFD0
DFFFFFFFD0
9FFFFECFD0
19EEA28FD0
ENDCHAR
STARTCHAR guillemotleft
ENCODING 171
SWIDTH 600 0
DWIDTH 17 0
BBX 14 13 1 1
BITMAP
000088000003B2
0009FF70004EFD
00AFFE2005FFF7
1BFFF5006FFFB0
BFFF9004FFFE20
CFFD1006FFF500
CFF50006FFC000
CFFD1006FFF500
BFFF9004FFFE20
1BFFF5006FFFB0
00AFFE2005FFF7
0009FF70004EFD
000088000003B2
ENDCHAR
STARTCHAR logicalnot
ENCODING 172
SWIDTH 600 0
DWIDTH 17 0
BBX 14 9 1 2
BITMAP
1FFFFFFFFFFFFD
1FFFFFFFFFFFFD
1FFFFFFFFFFFFD
00000000003FFD
00000000003FFD
00000000003FFD
00000000003FFD
00000000003FFD
00000000000222
ENDCHAR
STARTCHAR uni00AD
ENCODING 173
SWIDTH 600 0
DWIDTH 17 0
BBX 14 3 1 8
BITMAP
1FFFFFFFFFFFFD
1FFFFFFFFFFFFD
1FFFFFFFFFFFFD
ENDCHAR
STARTCHAR registered
ENCODING 174
SWIDTH 600 0
DWIDTH 17 0
BBX 12 11 2 9
BITMAP
0003AEFD9200
007E7203AE40
04F5788509E1
0CB0DFFF81E8
1F70DD9FC0AC
2F50DB1EA09D
1F70DFFF20AC
0CB0DB3F71E8
04F5650569E1
007E72039E40
0003AEFD9200
ENDCHAR
STARTCHAR macron
ENCODING 175
SWIDTH 600 0
DWIDTH 17 0
BBX 9 3 4 16
BITMAP
BFFFFFFF80
BFFFFFFF80
BFFFFFFF80
ENDCHAR
STARTCHAR degree
ENCODING 176
SWIDTH 600 0
DWIDTH 17 0
BBX 9 9 4 10
BITMAP
007DFC6000
08FFFFF600
3FFFFFFE10
8FE314FF50
9F9000BF60
8FE304FF50
3FFFFFFE10
08FFFFF600
007DFC6000
ENDCHAR
STARTCHAR plusminus
ENCODING 177
SWIDTH 600 0
DWIDTH 17 0
BBX 14 16 1 0
BITMAP
000002FFE00000
000002FFE00000
000002FFE00000
000002FFE00000
000002FFE00000
1FFFFFFFFFFFFD
1FFFFFFFFFFFFD
1FFFFFFFFFFFFD
000002FFE00000
000002FFE00000
000002FFE00000
00000000000000
00000000000000
1FFFFFFFFFFFFD
1FFFFFFFFFFFFD
1FFFFFFFFFFFFD
ENDCHAR
STARTCHAR two.sups
ENCODING 178
SWIDTH 600 0
DWIDTH 17 0
BBX 10 11 3 11
BITMAP
004BEEC710
06FFFFFFB0
2FFFFFFFF4
09E513DFF5
0020009FF2
000002EF80
00004EF900
0019FF7000
05DFFFFFFC
0CFFFFFFFC
0BFFFFFFFC
ENDCHAR
STARTCHAR three.sups
ENCODING 179
SWIDTH 600 0
DWIDTH 17 0
BBX 10 12 3 10
BITMAP
002AEED710
03EFFFFFB0
0AFFFFFFF5
01C711BFF6
000003CFF2
0000FFFE40
0000FFFFB1
0020028FF9
09E6117FFC
2FFFFFFFFA
06FFFFFFE2
003AEED810
ENDCHAR
STARTCHAR acute
ENCODING 180
SWIDTH 600 0
DWIDTH 17 0
BBX 8 7 6 16
BITMAP
0001B200
000BFD20
00AFFFE1
07FFFF60
5FFFE400
5FFD2000
05B10000
ENDCHAR
STARTCHAR uni00B5
ENCODING 181
SWIDTH 600 0
DWIDTH 17 0
BBX 16 20 1 -6
BITMAP
3FFFE00007FFFA00
3FFFE00007FFF900
3FFFE00007FFF900
3FFFE00007FFF800
3FFFE00007FFF800
3FFFE00007FFF700
3FFFE00007FFF700
3FFFE00007FFF600
3FFFE00008FFF600
3FFFF1001EFFF600
3FFFF812CFFFF800
3FFFFFFFFDFFFFC0
3FFFFFFFF49FFFF2
3FFFCCFC401AFFF4
3FFFA00000001210
3FFFB00000000000
3FFFB00000000000
3FFFC00000000000
3FFFD00000000000
3FFFE00000000000
ENDCHAR
STARTCHAR paragraph
ENCODING 182
SWIDTH 600 0
DWIDTH 17 0
BBX 14 21 1 -3
BITMAP
0005ADFF35FFFB
01BFFFFF35FFFB
0AFFFFFF35FFFB
3FFFFFFF35FFFB
7FFFFFFF35FFFB
9FFFFFFF35FFFB
9FFFFFFF35FFFB
8FFFFFFF35FFFB
4FFFFFFF35FFFB
0DFFFFFF35FFFB
03FFFFFF35FFFB
003DFFFF35FFFB
000059AB25FFFB
0000000005FFFB
0000000005FFFB
0000000005FFFB
0000000005FFFB
0000000005FFFB
0000000005FFFB
0000000005FFFB
0000000005FFFB
ENDCHAR
STARTCHAR periodcentered
ENCODING 183
SWIDTH 600 0
DWIDTH 17 0
BBX 7 7 5 7
BITMAP
05DFC300
4FFFFE10
AFFFFF70
CFFFFF90
AFFFFF70
4FFFFE10
05CEC300
ENDCHAR
STARTCHAR cedilla
ENCODING 184
SWIDTH 600 0
DWIDTH 17 0
BBX 6 7 5 -7
BITMAP
00DF80
05FF20
0CFFC4
015FFE
015FFF
AFFFF8
8EC940
ENDCHAR
STARTCHAR one.sups
ENCODING 185
SWIDTH 600 0
DWIDTH 17 0
BBX 10 11 4 11
BITMAP
0016DFF100
0EFFFFF100
0FFFFFF100
0000FFF100
0000FFF100
0000FFF100
0000FFF100
0000FFF100
5FFFFFFFFF
5FFFFFFFFF
5FFFFFFFFF
ENDCHAR
STARTCHAR ordmasculine
ENCODING 186
SWIDTH 600 0
DWIDTH 17 0
BBX 11 10 3 10
BITMAP
0019DFD70000
01DFFFFFB000
0AFFFFFFF700
1FFF417FFD00
4FFB000EFF00
4FFB000EFF10
1FFF417FFD00
0BFFFFFFF700
02DFFFFFB000
0019DFD70000
ENDCHAR
STARTCHAR guillemotright
ENCODING 187
SWIDTH 600 0
DWIDTH 17 0
BBX 15 13 1 1
BITMAP
03B200000A600000
2EFD2000AFF70000
0AFFE3004FFF8000
01DFFE4008FFF900
003FFFF200CFFF80
0007FFF3002EFF90
0000EFF30008FF90
0007FFF3002EFF90
003FFFF200CFFF80
01DFFE4008FFF900
0AFFE3004FFF8000
2EFD2000AFF70000
03B200000A600000
ENDCHAR
STARTCHAR onequarter
ENCODING 188
SWIDTH 600 0
DWIDTH 17 0
BBX 17 18 0 0
BITMAP
0027EFC0000003A000
07FFFFC000002EFB10
07FFFFC00000CFFC10
0003FFC0000AFFB100
0003FFC0007FFA0000
0003FFC002FF900000
0003FFC00058000000
0003FFC00000000000
0003FFC00000000000
00000000007B500000
0000093001EF800000
0001BFD007FE477100
001CFF401EF77FF300
02DFF6007FE17FF300
2DFF9000DFFFFFFF90
2DFC0000EFFFFFFF90
01B1000000007FF300
0000000000007FF300
ENDCHAR
STARTCHAR onehalf
ENCODING 189
SWIDTH 600 0
DWIDTH 17 0
BBX 17 18 0 0
BITMAP
0027EFC0000003A000
07FFFFC000002EFB10
07FFFFC00000CFFC10
0003FFC0000AFFB100
0003FFC0007FFA0000
0003FFC002FF900000
0003FFC00058000000
0003FFC00000000000
0003FFC00000000000
00000000019EEC6000
000009301CFFFFF600
0001BFD05FFFFFFA00
001CFF4006915FF900
02DFF60000008FD100
2DFF9000001AFD2000
2DFC000017EFFFFF10
01B100003FFFFFFF10
000000003FFFFFFF10
ENDCHAR
STARTCHAR threequarters
ENCODING 190
SWIDTH 600 0
DWIDTH 17 0
BBX 17 18 0 0
BITMAP
018DFD70000001B100
1DFFFFF700000CFD20
0AFFFFFC00009FFD20
02725FFA0006FFD200
000CFFC2004FFC1000
057DFFFA00DFB10000
0DFFFFFF203A100000
2EFFFFFD0000000000
029DFD910000000000
00000000007B500000
0000085001EF800000
00009FF207FE477100
000AFF701EF77FF300
01BFF9007FE17FF300
1CFFC000DFFFFFFF90
1BFD1000EFFFFFFF90
00A3000000007FF300
0000000000007FF300
ENDCHAR
STARTCHAR questiondown
ENCODING 191
SWIDTH 600 0
DWIDTH 17 0
BBX 12 20 2 -6
BITMAP
000019ED5000
00009FFFF300
0000EFFFF800
0000EFFFF800
0000AFFFF300
00001AED6000
000000000000
000000000000
00000EFFB000
00003FFFA000
0001CFFF4000
001CFFFA0000
01CFFFA00000
09FFFB000000
0FFFE1000000
1FFFD0000100
0EFFF7116EA0
09FFFFFFFFFB
01CFFFFFFFD3
0006BEFEB600
ENDCHAR
STARTCHAR Agrave
ENCODING 192
SWIDTH 600 0
DWIDTH 17 0
BBX 17 25 0 0
BITMAP
000001B30000000000
00000BFE5000000000
00007FFFF800000000
000007EFFFA1000000
0000002BFFB0000000
000000006B10000000
000000000000000000
000003FFFFF1000000
000008FFFFF5000000
00000DFFFFFA000000
00003FFFBFFE000000
00007FFE5FFF400000
0000CFFB1FFF900000
0002FFF70DFFE00000
0007FFF409FFF30000
000BFFF005FFF80000
001FFFC002FFFD0000
006FFF8000DFFF3000
00AFFFFFFFFFFF7000
01FFFFFFFFFFFFC000
05FFFFFFFFFFFFF200
0AFFF700000CFFF700
0EFFF2000007FFFB00
4FFFD0000003FFFF10
9FFF90000000EFFF60
ENDCHAR
STARTCHAR Aacute
ENCODING 193
SWIDTH 600 0
DWIDTH 17 0
BBX 17 25 0 0
BITMAP
0000000005A0000000
000000008FF8000000
0000001AFFFF400000
000002CFFFE5000000
000001DFF910000000
0000002C4000000000
000000000000000000
000003FFFFF1000000
000008FFFFF5000000
00000DFFFFFA000000
00003FFFBFFE000000
00007FFE5FFF400000
0000CFFB1FFF900000
0002FFF70DFFE00000
0007FFF409FFF30000
000BFFF005FFF80000
001FFFC002FFFD0000
006FFF8000DFFF3000
00AFFFFFFFFFFF7000
01FFFFFFFFFFFFC000
05FFFFFFFFFFFFF200
0AFFF700000CFFF700
0EFFF2000007FFFB00
4FFFD0000003FFFF10
9FFF90000000EFFF60
ENDCHAR
STARTCHAR Acircumflex
ENCODING 194
SWIDTH 600 0
DWIDTH 17 0
BBX 17 23 0 0
BITMAP
000004FFFFE2000000
00003EFFEFFD100000
0001DFF609FFB00000
00007C30005C500000
000000000000000000
000003FFFFF1000000
000008FFFFF5000000
00000DFFFFFA000000
00003FFFBFFE000000
00007FFE5FFF400000
0000CFFB1FFF900000
0002FFF70DFFE00000
0007FFF409FFF30000
000BFFF005FFF80000
001FFFC002FFFD0000
006FFF8000DFFF3000
00AFFFFFFFFFFF7000
01FFFFFFFFFFFFC000
05FFFFFFFFFFFFF200
0AFFF700000CFFF700
0EFFF2000007FFFB00
4FFFD0000003FFFF10
9FFF90000000EFFF60
ENDCHAR
STARTCHAR Atilde
ENCODING 195
SWIDTH 600 0
DWIDTH 17 0
BBX 17 24 0 0
BITMAP
00006DFB3008A80000
0005FFFFF62EFC0000
000CFFFFFFFFF90000
001FFD18FFFFF20000
0019A6005DFC400000
000000000000000000
000003FFFFF1000000
000008FFFFF5000000
00000DFFFFFA000000
00003FFFBFFE000000
00007FFE5FFF400000
0000CFFB1FFF900000
0002FFF70DFFE00000
0007FFF409FFF30000
000BFFF005FFF80000
001FFFC002FFFD0000
006FFF8000DFFF3000
00AFFFFFFFFFFF7000
01FFFFFFFFFFFFC000
05FFFFFFFFFFFFF200
0AFFF700000CFFF700
0EFFF2000007FFFB00
4FFFD0000003FFFF10
9FFF90000000EFFF60
ENDCHAR
STARTCHAR Adieresis
ENCODING 196
SWIDTH 600 0
DWIDTH 17 0
BBX 17 24 0 0
BITMAP
0002CE9001BEB10000
000AFFF407FFF70000
000AFFF407FFF70000
0002CE9001BEB10000
000000000000000000
000000000000000000
000003FFFFF1000000
000008FFFFF5000000
00000DFFFFFA000000
00003FFFBFFE000000
00007FFE5FFF400000
0000CFFB1FFF900000
0002FFF70DFFE00000
0007FFF409FFF30000
000BFFF005FFF80000
001FFFC002FFFD0000
006FFF8000DFFF3000
00AFFFFFFFFFFF7000
01FFFFFFFFFFFFC000
05FFFFFFFFFFFFF200
0AFFF700000CFFF700
0EFFF2000007FFFB00
4FFFD0000003FFFF10
9FFF90000000EFFF60
ENDCHAR
STARTCHAR Aring
ENCODING 197
SWIDTH 600 0
DWIDTH 17 0
BBX 17 25 0 0
BITMAP
0000006DEC40000000
000006FFFFF3000000
00000BF71AF8000000
00000BF71AF8000000
000006FFFFF3000000
0000007DEC40000000
000000000000000000
000003FFFFF1000000
000008FFFFF5000000
00000DFFFFFA000000
00003FFFBFFE000000
00007FFE5FFF400000
0000CFFB1FFF900000
0002FFF70DFFE00000
0007FFF409FFF30000
000BFFF005FFF80000
001FFFC002FFFD0000
006FFF8000DFFF3000
00AFFFFFFFFFFF7000
01FFFFFFFFFFFFC000
05FFFFFFFFFFFFF200
0AFFF700000CFFF700
0EFFF2000007FFFB00
4FFFD0000003FFFF10
9FFF90000000EFFF60
ENDCHAR
STARTCHAR AE
ENCODING 198
SWIDTH 600 0
DWIDTH 17 0
BBX 17 18 0 0
BITMAP
000002FFFFFFFFFF60
000007FFFFFFFFFF60
00000DFFFFFFFFFF60
00003FFFCFFF500000
00008FFF8FFF500000
0000DFFE5FFF500000
0003FFFA4FFF500000
0008FFF64FFFFFFA00
000DFFF14FFFFFFA00
003FFFC04FFFFFFA00
008FFF804FFF500000
00DFFFFFFFFF500000
03FFFFFFFFFF500000
08FFFFFFFFFF500000
0DFFF4004FFF500000
3FFFE0004FFFFFFFA0
9FFF90004FFFFFFFA0
EFFF40004FFFFFFFA0
ENDCHAR
STARTCHAR Ccedilla
ENCODING 199
SWIDTH 600 0
DWIDTH 17 0
BBX 15 25 1 -7
BITMAP
0000049CEFDA5000
0001BFFFFFFFFC30
002DFFFFFFFFFE30
00CFFFE6103AE400
06FFFE3000002000
0DFFF70000000000
2FFFF10000000000
5FFFD00000000000
7FFFB00000000000
7FFFB00000000000
6FFFD00000000000
3FFFF10000000000
0EFFF70000000000
08FFFE3000005100
01DFFFE6203AFB00
003EFFFFFFFFFFA0
0002CFFFFFFFFC20
000005ADEEDA5000
0000000AFB000000
0000002FF5000000
0000009FFD600000
00000014DFF20000
00000014DFF30000
000007FFFFB00000
000005EDA5000000
ENDCHAR
STARTCHAR Egrave
ENCODING 200
SWIDTH 600 0
DWIDTH 17 0
BBX 13 25 2 0
BITMAP
00005A10000000
0003EFC2000000
000CFFFE400000
0001AFFFF60000
000005EFF60000
00000019800000
00000000000000
6FFFFFFFFFFFA0
6FFFFFFFFFFFA0
6FFFFFFFFFFFA0
6FFFB000000000
6FFFB000000000
6FFFB000000000
6FFFB000000000
6FFFFFFFFFF700
6FFFFFFFFFF700
6FFFFFFFFFF700
6FFFB000000000
6FFFB000000000
6FFFB000000000
6FFFB000000000
6FFFB000000000
6FFFFFFFFFFFE0
6FFFFFFFFFFFE0
6FFFFFFFFFFFE0
ENDCHAR
STARTCHAR Eacute
ENCODING 201
SWIDTH 600 0
DWIDTH 17 0
BBX 13 25 2 0
BITMAP
00000000960000
0000001CFF3000
000003DFFFD000
00005EFFFB2000
00005FFE600000
000007A1000000
00000000000000
6FFFFFFFFFFFA0
6FFFFFFFFFFFA0
6FFFFFFFFFFFA0
6FFFB000000000
6FFFB000000000
6FFFB000000000
6FFFB000000000
6FFFFFFFFFF700
6FFFFFFFFFF700
6FFFFFFFFFF700
6FFFB000000000
6FFFB000000000
6FFFB000000000
6FFFB000000000
6FFFB000000000
6FFFFFFFFFFFE0
6FFFFFFFFFFFE0
6FFFFFFFFFFFE0
ENDCHAR
STARTCHAR Ecircumflex
ENCODING 202
SWIDTH 600 0
DWIDTH 17 0
BBX 13 23 2 0
BITMAP
00009FFFFA0000
0007FFEEFF8000
005FFD32CFF600
002AA10009B200
00000000000000
6FFFFFFFFFFFA0
6FFFFFFFFFFFA0
6FFFFFFFFFFFA0
6FFFB000000000
6FFFB000000000
6FFFB000000000
6FFFB000000000
6FFFFFFFFFF700
6FFFFFFFFFF700
6FFFFFFFFFF700
6FFFB000000000
6FFFB000000000
6FFFB000000000
6FFFB000000000
6FFFB000000000
6FFFFFFFFFFFE0
6FFFFFFFFFFFE0
6FFFFFFFFFFFE0
ENDCHAR
STARTCHAR Edieresis
ENCODING 203
SWIDTH 600 0
DWIDTH 17 0
BBX 13 24 2 0
BITMAP
006ED4004DE700
00FFFD00CFFF10
00FFFD00CFFF10
006ED4004DE700
00000000000000
00000000000000
6FFFFFFFFFFFA0
6FFFFFFFFFFFA0
6FFFFFFFFFFFA0
6FFFB000000000
6FFFB000000000
6FFFB000000000
6FFFB000000000
6FFFFFFFFFF700
6FFFFFFFFFF700
6FFFFFFFFFF700
6FFFB000000000
6FFFB000000000
6FFFB000000000
6FFFB000000000
6FFFB000000000
6FFFFFFFFFFFE0
6FFFFFFFFFFFE0
6FFFFFFFFFFFE0
ENDCHAR
STARTCHAR Igrave
ENCODING 204
SWIDTH 600 0
DWIDTH 17 0
BBX 13 25 2 0
BITMAP
0001B300000000
000BFE50000000
007FFFF8000000
0007EFFFA10000
00002BFFB00000
0000006B100000
00000000000000
EFFFFFFFFFFFB0
EFFFFFFFFFFFB0
EFFFFFFFFFFFB0
0000AFFF700000
0000AFFF700000
0000AFFF700000
0000AFFF700000
0000AFFF700000
0000AFFF700000
0000AFFF700000
0000AFFF700000
0000AFFF700000
0000AFFF700000
0000AFFF700000
0000AFFF700000
EFFFFFFFFFFFB0
EFFFFFFFFFFFB0
EFFFFFFFFFFFB0
ENDCHAR
STARTCHAR Iacute
ENCODING 205
SWIDTH 600 0
DWIDTH 17 0
BBX 13 25 2 0
BITMAP
00000005A00000
0000008FF80000
00001AFFFF4000
0002CFFFE50000
0001DFF9100000
00002C40000000
00000000000000
EFFFFFFFFFFFB0
EFFFFFFFFFFFB0
EFFFFFFFFFFFB0
0000AFFF700000
0000AFFF700000
0000AFFF700000
0000AFFF700000
0000AFFF700000
0000AFFF700000
0000AFFF700000
0000AFFF700000
0000AFFF700000
0000AFFF700000
0000AFFF700000
0000AFFF700000
EFFFFFFFFFFFB0
EFFFFFFFFFFFB0
EFFFFFFFFFFFB0
ENDCHAR
STARTCHAR Icircumflex
ENCODING 206
SWIDTH 600 0
DWIDTH 17 0
BBX 13 23 2 0
BITMAP
0004FFFFE20000
003EFFEFFD1000
01DFF609FFB000
007C30005C5000
00000000000000
EFFFFFFFFFFFB0
EFFFFFFFFFFFB0
EFFFFFFFFFFFB0
0000AFFF700000
0000AFFF700000
0000AFFF700000
0000AFFF700000
0000AFFF700000
0000AFFF700000
0000AFFF700000
0000AFFF700000
0000AFFF700000
0000AFFF700000
0000AFFF700000
0000AFFF700000
EFFFFFFFFFFFB0
EFFFFFFFFFFFB0
EFFFFFFFFFFFB0
ENDCHAR
STARTCHAR Idieresis
ENCODING 207
SWIDTH 600 0
DWIDTH 17 0
BBX 13 24 2 0
BITMAP
02CE9001BEB100
0AFFF407FFF700
0AFFF407FFF700
02CE9001BEB100
00000000000000
00000000000000
EFFFFFFFFFFFB0
EFFFFFFFFFFFB0
EFFFFFFFFFFFB0
0000AFFF700000
0000AFFF700000
0000AFFF700000
0000AFFF700000
0000AFFF700000
0000AFFF700000
0000AFFF700000
0000AFFF700000
0000AFFF700000
0000AFFF700000
0000AFFF700000
0000AFFF700000
EFFFFFFFFFFFB0
EFFFFFFFFFFFB0
EFFFFFFFFFFFB0
ENDCHAR
STARTCHAR Eth
ENCODING 208
SWIDTH 600 0
DWIDTH 17 0
BBX 16 18 0 0
BITMAP
01FFFFFFDB710000
01FFFFFFFFFF8000
01FFFFFFFFFFFA00
01FFFF214BFFFF60
01FFFF20009FFFE1
01FFFF20001FFFF5
01FFFF20000BFFF8
CEFFFFFFF208FFFA
FFFFFFFFF207FFFB
FFFFFFFFF207FFFB
01FFFF200008FFFA
01FFFF20000BFFF8
01FFFF20002FFFF4
01FFFF2000AFFFD0
01FFFF214BFFFF60
01FFFFFFFFFFF900
01FFFFFFFFFF7000
01FFFFFFEB720000
ENDCHAR
STARTCHAR Ntilde
ENCODING 209
SWIDTH 600 0
DWIDTH 17 0
BBX 14 24 1 0
BITMAP
0003CFD5005A92
002EFFFF91CFF2
008FFFFFFFFFD0
00BFF35EFFFF60
007A9002BFD600
00000000000000
2FFFF40000FFFE
2FFFFB0000FFFE
2FFFFF2000FFFE
2FFFFF9000FFFE
2FFFFFE100FFFE
2FFFCFF600FFFE
2FFF7FFD00FFFE
2FFF7BFF40EFFE
2FFF95FFB0DFFE
2FFFA0DFF2CFFE
2FFFB07FF8AFFE
2FFFC01FFE9FFE
2FFFC009FFCFFE
2FFFC003FFFFFE
2FFFC000CFFFFE
2FFFC0005FFFFE
2FFFC0000EFFFE
2FFFC00007FFFE
ENDCHAR
STARTCHAR Ograve
ENCODING 210
SWIDTH 600 0
DWIDTH 17 0
BBX 15 25 1 0
BITMAP
00001B3000000000
0000BFE500000000
0007FFFF80000000
00007EFFFA100000
000002BFFB000000
00000006B1000000
0000000000000000
00006BEFDA500000
003DFFFFFFFB1000
02EFFFFFFFFFC000
0BFFFD315EFFF800
2FFFF30006FFFE00
8FFFB00000EFFF40
BFFF700000AFFF80
DFFF5000008FFFA0
EFFF5000008FFFB0
EFFF5000008FFFA0
DFFF6000008FFFA0
BFFF800000BFFF70
7FFFB00000EFFF40
2FFFF30006FFFE00
0AFFFD315EFFF700
01EFFFFFFFFFC000
002DFFFFFFFB1000
00006BEFDA500000
ENDCHAR
STARTCHAR Oacute
ENCODING 211
SWIDTH 600 0
DWIDTH 17 0
BBX 15 25 1 0
BITMAP
000000005A000000
00000008FF800000
000001AFFFF40000
00002CFFFE500000
00001DFF91000000
000002C400000000
0000000000000000
00006BEFDA500000
003DFFFFFFFB1000
02EFFFFFFFFFC000
0BFFFD315EFFF800
2FFFF30006FFFE00
8FFFB00000EFFF40
BFFF700000AFFF80
DFFF5000008FFFA0
EFFF5000008FFFB0
EFFF5000008FFFA0
DFFF6000008FFFA0
BFFF800000BFFF70
7FFFB00000EFFF40
2FFFF30006FFFE00
0AFFFD315EFFF700
01EFFFFFFFFFC000
002DFFFFFFFB1000
00006BEFDA500000
ENDCHAR
STARTCHAR Ocircumflex
ENCODING 212
SWIDTH 600 0
DWIDTH 17 0
BBX 15 23 1 0
BITMAP
00004FFFFE200000
0003EFFEFFD10000
001DFF609FFB0000
0007C30005C50000
0000000000000000
00006BEFDA500000
003DFFFFFFFB1000
02EFFFFFFFFFC000
0BFFFD315EFFF800
2FFFF30006FFFE00
8FFFB00000EFFF40
BFFF700000AFFF80
DFFF5000008FFFA0
EFFF5000008FFFB0
EFFF5000008FFFA0
DFFF6000008FFFA0
BFFF800000BFFF70
7FFFB00000EFFF40
2FFFF30006FFFE00
0AFFFD315EFFF700
01EFFFFFFFFFC000
002DFFFFFFFB1000
00006BEFDA500000
ENDCHAR
STARTCHAR Otilde
ENCODING 213
SWIDTH 600 0
DWIDTH 17 0
BBX 15 24 1 0
BITMAP
0006DFB3008A8000
005FFFFF62EFC000
00CFFFFFFFFF9000
01FFD18FFFFF2000
019A6005DFC40000
0000000000000000
00006BEFDA500000
003DFFFFFFFB1000
02EFFFFFFFFFC000
0BFFFD315EFFF800
2FFFF30006FFFE00
8FFFB00000EFFF40
BFFF700000AFFF80
DFFF5000008FFFA0
EFFF5000008FFFB0
EFFF5000008FFFA0
DFFF6000008FFFA0
BFFF800000BFFF70
7FFFB00000EFFF40
2FFFF30006FFFE00
0AFFFD315EFFF700
01EFFFFFFFFFC000
002DFFFFFFFB1000
00006BEFDA500000
ENDCHAR
STARTCHAR Odieresis
ENCODING 214
SWIDTH 600 0
DWIDTH 17 0
BBX 15 24 1 0
BITMAP
002CE9001BEB1000
00AFFF407FFF7000
00AFFF407FFF7000
002CE9001BEB1000
0000000000000000
0000000000000000
00006BEFDA500000
003DFFFFFFFB1000
02EFFFFFFFFFC000
0BFFFD315EFFF800
2FFFF30006FFFE00
8FFFB00000EFFF40
BFFF700000AFFF80
DFFF5000008FFFA0
EFFF5000008FFFB0
EFFF5000008FFFA0
DFFF6000008FFFA0
BFFF800000BFFF70
7FFFB00000EFFF40
2FFFF30006FFFE00
0AFFFD315EFFF700
01EFFFFFFFFFC000
002DFFFFFFFB1000
00006BEFDA500000
ENDCHAR
STARTCHAR multiply
ENCODING 215
SWIDTH 600 0
DWIDTH 17 0
BBX 13 12 2 3
BITMAP
04D2000003B100
4EFD20003EFC10
3EFFD203EFFD20
03EFFD5EFFD200
003EFFFFFD2000
0003EFFFD20000
0003EFFFD20000
003EFFFFFD2000
03EFFD4EFFD200
3EFFD103EFFD20
3EFD10003EFC10
03C1000003B100
ENDCHAR
STARTCHAR Oslash
ENCODING 216
SWIDTH 600 0
DWIDTH 17 0
BBX 17 20 0 -1
BITMAP
000000000000049100
000006BEFEB51EFD10
0003DFFFFFFFEFF800
002EFFFFFFFFFFC000
00BFFFD316FFFF8000
02FFFF2001EFFFE000
08FFFB000AFFFFF500
0BFFF7006FFFFFF800
0DFFF503EFEBFFFA00
0EFFF51DFF68FFFB00
0EFFF59FFA08FFFA00
0DFFFBFFD108FFFA00
0BFFFFFF300AFFF700
07FFFFF7000EFFF400
02FFFFB0005FFFE000
00BFFFE415EFFF7000
02EFFFFFFFFFFC0000
0BFFEFFFFFFFB10000
3EFB16BEFDA5000000
02A200000000000000
ENDCHAR
STARTCHAR Ugrave
ENCODING 217
SWIDTH 600 0
DWIDTH 17 0
BBX 14 25 1 0
BITMAP
00001B30000000
0000BFE5000000
0007FFFF800000
00007EFFFA1000
000002BFFB0000
00000006B10000
00000000000000
3FFFE00000FFFF
3FFFE00000FFFF
3FFFE00000FFFF
3FFFE00000FFFF
3FFFE00000FFFF
3FFFE00000FFFF
3FFFE00000FFFF
3FFFE00000FFFF
3FFFE00000FFFF
3FFFE00000FFFF
3FFFE00000FFFF
3FFFE00000FFFF
1FFFF00001FFFD
0DFFF40005FFFB
08FFFC314DFFF6
02EFFFFFFFFFC0
004EFFFFFFFD20
00018CEFEB7100
ENDCHAR
STARTCHAR Uacute
ENCODING 218
SWIDTH 600 0
DWIDTH 17 0
BBX 14 25 1 0
BITMAP
000000005A0000
00000008FF8000
000001AFFFF400
00002CFFFE5000
00001DFF910000
000002C4000000
00000000000000
3FFFE00000FFFF
3FFFE00000FFFF
3FFFE00000FFFF
3FFFE00000FFFF
3FFFE00000FFFF
3FFFE00000FFFF
3FFFE00000FFFF
3FFFE00000FFFF
3FFFE00000FFFF
3FFFE00000FFFF
3FFFE00000FFFF
3FFFE00000FFFF
1FFFF00001FFFD
0DFFF40005FFFB
08FFFC314DFFF6
02EFFFFFFFFFC0
004EFFFFFFFD20
00018CEFEB7100
ENDCHAR
STARTCHAR Ucircumflex
ENCODING 219
SWIDTH 600 0
DWIDTH 17 0
BBX 14 23 1 0
BITMAP
00004FFFFE2000
0003EFFEFFD100
001DFF609FFB00
0007C30005C500
00000000000000
3FFFE00000FFFF
3FFFE00000FFFF
3FFFE00000FFFF
3FFFE00000FFFF
3FFFE00000FFFF
3FFFE00000FFFF
3FFFE00000FFFF
3FFFE00000FFFF
3FFFE00000FFFF
3FFFE00000FFFF
3FFFE00000FFFF
3FFFE00000FFFF
1FFFF00001FFFD
0DFFF40005FFFB
08FFFC314DFFF6
02EFFFFFFFFFC0
004EFFFFFFFD20
00018CEFEB7100
ENDCHAR
STARTCHAR Udieresis
ENCODING 220
SWIDTH 600 0
DWIDTH 17 0
BBX 14 24 1 0
BITMAP
002CE9001BEB10
00AFFF407FFF70
00AFFF407FFF70
002CE9001BEB10
00000000000000
00000000000000
3FFFE00000FFFF
3FFFE00000FFFF
3FFFE00000FFFF
3FFFE00000FFFF
3FFFE00000FFFF
3FFFE00000FFFF
3FFFE00000FFFF
3FFFE00000FFFF
3FFFE00000FFFF
3FFFE00000FFFF
3FFFE00000FFFF
3FFFE00000FFFF
1FFFF00001FFFD
0DFFF40005FFFB
08FFFC314DFFF6
02EFFFFFFFFFC0
004EFFFFFFFD20
00018CEFEB7100
ENDCHAR
STARTCHAR Yacute
ENCODING 221
SWIDTH 600 0
DWIDTH 17 0
BBX 17 25 0 0
BITMAP
0000000005A0000000
000000008FF8000000
0000001AFFFF400000
000002CFFFE5000000
000001DFF910000000
0000002C4000000000
000000000000000000
5FFFF2000003FFFF20
0CFFF8000009FFF900
05FFFE00001EFFF200
00CFFF50007FFF9000
005FFFC000DFFF2000
000DFFF304FFFA0000
0005FFF90BFFF20000
0000DFFE3FFFA00000
00005FFFDFFF200000
00000DFFFFFA000000
000006FFFFF3000000
000000DFFFA0000000
000000AFFF70000000
000000AFFF70000000
000000AFFF70000000
000000AFFF70000000
000000AFFF70000000
000000AFFF70000000
ENDCHAR
STARTCHAR Thorn
ENCODING 222
SWIDTH 600 0
DWIDTH 17 0
BBX 14 18 2 0
BITMAP
EFFF2000000000
EFFF2000000000
EFFF2000000000
EFFFFFFEDB6100
EFFFFFFFFFFE30
EFFFFFFFFFFFE2
EFFF20015EFFF8
EFFF200006FFFB
EFFF200004FFFC
EFFF200007FFFB
EFFF20027FFFF6
EFFFFFFFFFFFC0
EFFFFFFFFFFB10
EFFFFFFEDA4000
EFFF2000000000
EFFF2000000000
EFFF2000000000
EFFF2000000000
ENDCHAR
STARTCHAR germandbls
ENCODING 223
SWIDTH 600 0
DWIDTH 17 0
BBX 15 20 1 0
BITMAP
00029DEED8100000
006FFFFFFFD20000
04FFFFFFFFFC0000
0CFFFB22DFFF3000
2FFFF2008FFF5000
4FFFD0009FFF4000
4FFFC001EFFE1000
4FFFC007FFF80000
4FFFC00DFFE10000
4FFFC02FFFA00000
4FFFC01FFFE40000
4FFFC00CFFFF8000
4FFFC002EFFFFB00
4FFFC0002BFFFF70
4FFFC000008FFFD0
4FFFC000000DFFE0
4FFFC006512EFFD0
4FFFC01EFFFFFF80
4FFFC08FFFFFFC10
4FFFC028DFFD7100
ENDCHAR
STARTCHAR agrave
ENCODING 224
SWIDTH 600 0
DWIDTH 17 0
BBX 14 23 1 0
BITMAP
00000940000000
0000AFE3000000
0009FFFD200000
0002DFFFC10000
00001BFFFA0000
0000009FFA0000
00000007900000
00000000000000
00000000000000
00048CEFEC8200
05DFFFFFFFFE40
05FFFFFFFFFFE2
00CE83114DFFF8
0010000005FFFC
0000379CDFFFFE
005CFFFFFFFFFF
07FFFFFFFFFFFF
1EFFFC6312FFFF
4FFFC00002FFFF
4FFFD3026DFFFF
0EFFFFFFFFFFFF
04FFFFFFF9AFFF
003BEFD9207FFF
ENDCHAR
STARTCHAR aacute
ENCODING 225
SWIDTH 600 0
DWIDTH 17 0
BBX 14 23 1 0
BITMAP
00000000059000
000000004FF900
00000002EFFF80
0000001DFFFC20
000000BFFFA100
000000BFF80000
0000000A600000
00000000000000
00000000000000
00048CEFEC8200
05DFFFFFFFFE40
05FFFFFFFFFFE2
00CE83114DFFF8
0010000005FFFC
0000379CDFFFFE
005CFFFFFFFFFF
07FFFFFFFFFFFF
1EFFFC6312FFFF
4FFFC00002FFFF
4FFFD3026DFFFF
0EFFFFFFFFFFFF
04FFFFFFF9AFFF
003BEFD9207FFF
ENDCHAR
STARTCHAR acircumflex
ENCODING 226
SWIDTH 600 0
DWIDTH 17 0
BBX 14 21 1 0
BITMAP
000008FFFF7000
00006FFFFFF500
0004FFFCCFFE30
000DFF7008FFD0
0003C300004C30
00000000000000
00000000000000
00048CEFEC8200
05DFFFFFFFFE40
05FFFFFFFFFFE2
00CE83114DFFF8
0010000005FFFC
0000379CDFFFFE
005CFFFFFFFFFF
07FFFFFFFFFFFF
1EFFFC6312FFFF
4FFFC00002FFFF
4FFFD3026DFFFF
0EFFFFFFFFFFFF
04FFFFFFF9AFFF
003BEFD9207FFF
ENDCHAR
STARTCHAR atilde
ENCODING 227
SWIDTH 600 0
DWIDTH 17 0
BBX 14 21 1 0
BITMAP
00008DD7004A92
0009FFFFB1AFF3
001FFFFFFFFFE0
004FF93DFFFF80
003AB3019EE800
00000000000000
00000000000000
00048CEFEC8200
05DFFFFFFFFE40
05FFFFFFFFFFE2
00CE83114DFFF8
0010000005FFFC
0000379CDFFFFE
005CFFFFFFFFFF
07FFFFFFFFFFFF
1EFFFC6312FFFF
4FFFC00002FFFF
4FFFD3026DFFFF
0EFFFFFFFFFFFF
04FFFFFFF9AFFF
003BEFD9207FFF
ENDCHAR
STARTCHAR adieresis
ENCODING 228
SWIDTH 600 0
DWIDTH 17 0
BBX 14 21 1 0
BITMAP
0007ED3004DE60
003FFFD00EFFF2
005FFFF12FFFF4
003FFFD00EFFF2
0007ED4004DE60
00000000000000
00000000000000
00048CEFEC8200
05DFFFFFFFFE40
05FFFFFFFFFFE2
00CE83114DFFF8
0010000005FFFC
0000379CDFFFFE
005CFFFFFFFFFF
07FFFFFFFFFFFF
1EFFFC6312FFFF
4FFFC00002FFFF
4FFFD3026DFFFF
0EFFFFFFFFFFFF
04FFFFFFF9AFFF
003BEFD9207FFF
ENDCHAR
STARTCHAR aring
ENCODING 229
SWIDTH 600 0
DWIDTH 17 0
BBX 14 23 1 0
BITMAP
000004CEEB3000
00002EFFFFE100
00008FE34FF700
0000AFC00DF900
00008FE33FF700
00002FFFFFE100
000004CFEB3000
00000000000000
00000000000000
00048CEFEC8200
05DFFFFFFFFE40
05FFFFFFFFFFE2
00CE83114DFFF8
0010000005FFFC
0000379CDFFFFE
005CFFFFFFFFFF
07FFFFFFFFFFFF
1EFFFC6312FFFF
4FFFC00002FFFF
4FFFD3026DFFFF
0EFFFFFFFFFFFF
04FFFFFFF9AFFF
003BEFD9207FFF
ENDCHAR
STARTCHAR ae
ENCODING 230
SWIDTH 600 0
DWIDTH 17 0
BBX 17 14 0 0
BITMAP
006BEFC5019EEB3000
1DFFFFFF6DFFFFF300
09FFFFFFFFFEFFFC00
01B511CFFF901EFF30
0000005FFF100AFF70
00027BEFFFFFFFFF80
019FFFFFFFFFFFFF90
0BFFFFFFFFFFFFFF80
4FFFD54FFF10000000
7FFF301FFF60000000
8FFF615EFFE6139000
5FFFFFFFFFFFFFF700
0CFFFFFA5FFFFFFE10
019EEC5003AEFD9300
ENDCHAR
STARTCHAR ccedilla
ENCODING 231
SWIDTH 600 0
DWIDTH 17 0
BBX 15 21 1 -7
BITMAP
000006ADFED94000
0004DFFFFFFFFB00
006FFFFFFFFFF700
02FFFFC5114AA000
0AFFFD1000000000
0EFFF50000000000
1FFFF20000000000
1FFFF20000000000
0EFFF50000000000
0AFFFC1000002000
04FFFFC4114AF300
008FFFFFFFFFFD00
0007FFFFFFFFFA10
000017BEFEC83000
0000000BFB000000
0000003FF5000000
0000009FFD600000
00000014EFF20000
00000014EFF30000
000008FFFFA00000
000005EDA5000000
ENDCHAR
STARTCHAR egrave
ENCODING 232
SWIDTH 600 0
DWIDTH 17 0
BBX 15 23 1 0
BITMAP
00001B2000000000
0001CFD100000000
000CFFFB00000000
0004EFFF90000000
00003DFFF7000000
000001CFF7000000
0000000A60000000
0000000000000000
0000000000000000
00004ADFEC810000
001BFFFFFFFE5000
01CFFFFFFFFFF300
08FFFC4116FFFB00
1EFFE100008FFF10
4FFFFFFFFFFFFF40
6FFFFFFFFFFFFF40
6FFFFFFFFFFFFF30
4FFFD00000000000
1FFFF50000000000
09FFFF8211499000
01CFFFFFFFFFF300
001AFFFFFFFFF600
000049DEFEB71000
ENDCHAR
STARTCHAR eacute
ENCODING 233
SWIDTH 600 0
DWIDTH 17 0
BBX 15 23 1 0
BITMAP
0000000009600000
000000007FF60000
00000005FFFF5000
0000003EFFFA1000
000002DFFF800000
000002DFF6000000
0000001B40000000
0000000000000000
0000000000000000
00004ADFEC810000
001BFFFFFFFE5000
01CFFFFFFFFFF300
08FFFC4116FFFB00
1EFFE100008FFF10
4FFFFFFFFFFFFF40
6FFFFFFFFFFFFF40
6FFFFFFFFFFFFF30
4FFFD00000000000
1FFFF50000000000
09FFFF8211499000
01CFFFFFFFFFF300
001AFFFFFFFFF600
000049DEFEB71000
ENDCHAR
STARTCHAR ecircumflex
ENCODING 234
SWIDTH 600 0
DWIDTH 17 0
BBX 15 21 1 0
BITMAP
00000BFFFF400000
00009FFFFFE30000
0007FFFAEFFD1000
002FFE501BFFA000
0006B200006B1000
0000000000000000
0000000000000000
00004ADFEC810000
001BFFFFFFFE5000
01CFFFFFFFFFF300
08FFFC4116FFFB00
1EFFE100008FFF10
4FFFFFFFFFFFFF40
6FFFFFFFFFFFFF40
6FFFFFFFFFFFFF30
4FFFD00000000000
1FFFF50000000000
09FFFF8211499000
01CFFFFFFFFFF300
001AFFFFFFFFF600
000049DEFEB71000
ENDCHAR
STARTCHAR edieresis
ENCODING 235
SWIDTH 600 0
DWIDTH 17 0
BBX 15 21 1 0
BITMAP
0009EB2007ED3000
006FFFA03FFFD000
009FFFD05FFFF100
006FFFA03FFFD000
0009EC2007ED4000
0000000000000000
0000000000000000
00004ADFEC810000
001BFFFFFFFE5000
01CFFFFFFFFFF300
08FFFC4116FFFB00
1EFFE100008FFF10
4FFFFFFFFFFFFF40
6FFFFFFFFFFFFF40
6FFFFFFFFFFFFF30
4FFFD00000000000
1FFFF50000000000
09FFFF8211499000
01CFFFFFFFFFF300
001AFFFFFFFFF600
000049DEFEB71000
ENDCHAR
STARTCHAR igrave
ENCODING 236
SWIDTH 600 0
DWIDTH 17 0
BBX 10 23 2 0
BITMAP
00002B1000
0002DFC100
001DFFFA00
0005EFFF80
00003EFFF6
000002CFF5
0000001A50
0000000000
0000000000
CFFFFFFFFE
CFFFFFFFFE
CFFFFFFFFE
000003FFFE
000003FFFE
000003FFFE
000003FFFE
000003FFFE
000003FFFE
000003FFFE
000003FFFE
000003FFFE
000003FFFE
000003FFFE
ENDCHAR
STARTCHAR iacute
ENCODING 237
SWIDTH 600 0
DWIDTH 17 0
BBX 13 23 2 0
BITMAP
00000000095000
000000008FF500
00000006FFFF40
0000004FFFF900
000002EFFF7000
000002DFE50000
0000002C300000
00000000000000
00000000000000
CFFFFFFFFE0000
CFFFFFFFFE0000
CFFFFFFFFE0000
000003FFFE0000
000003FFFE0000
000003FFFE0000
000003FFFE0000
000003FFFE0000
000003FFFE0000
000003FFFE0000
000003FFFE0000
000003FFFE0000
000003FFFE0000
000003FFFE0000
ENDCHAR
STARTCHAR icircumflex
ENCODING 238
SWIDTH 600 0
DWIDTH 17 0
BBX 13 21 2 0
BITMAP
00001CFFFF3000
0000AFFFFFE200
0008FFFAEFFC10
003FFE402BFF80
0007B100007B10
00000000000000
00000000000000
CFFFFFFFFE0000
CFFFFFFFFE0000
CFFFFFFFFE0000
000003FFFE0000
000003FFFE0000
000003FFFE0000
000003FFFE0000
000003FFFE0000
000003FFFE0000
000003FFFE0000
000003FFFE0000
000003FFFE0000
000003FFFE0000
000003FFFE0000
ENDCHAR
STARTCHAR idieresis
ENCODING 239
SWIDTH 600 0
DWIDTH 17 0
BBX 13 21 2 0
BITMAP
001AEB1008EC30
007FFF904FFFC0
00AFFFB06FFFF0
007FFF904FFFC0
001AEB1008EC30
00000000000000
00000000000000
CFFFFFFFFE0000
CFFFFFFFFE0000
CFFFFFFFFE0000
000003FFFE0000
000003FFFE0000
000003FFFE0000
000003FFFE0000
000003FFFE0000
000003FFFE0000
000003FFFE0000
000003FFFE0000
000003FFFE0000
000003FFFE0000
000003FFFE0000
ENDCHAR
STARTCHAR eth
ENCODING 240
SWIDTH 600 0
DWIDTH 17 0
BBX 15 20 1 0
BITMAP
0000B81000046000
0008FFE704BFF300
001BFFFFEFFFA200
00004EFFFFC20000
0006DFFFFFF40000
00BFFE85EFFE3000
003D71005FFFB000
0004AEFD6AFFF500
008FFFFFFCFFFB00
07FFFFFFFFFFFF10
2FFFF8214CFFFF40
7FFF800001DFFF50
9FFF3000007FFF60
AFFF1000008FFF50
9FFF300000AFFF30
5FFFA00001EFFE00
0DFFF9203CFFF700
04FFFFFFFFFFC000
004EFFFFFFFB1000
00017CEFDA500000
ENDCHAR
STARTCHAR ntilde
ENCODING 241
SWIDTH 600 0
DWIDTH 17 0
BBX 14 21 2 0
BITMAP
0019DD6005A910
00BFFFF91CFF10
03FFFFFFFFFD00
06FF74EFFFF600
04AB101AFD7000
00000000000000
00000000000000
FFF7029DFEA200
FFF97FFFFFFE10
FFFFFFFFFFFF90
FFFFF911AFFFD0
FFFF90002FFFF1
FFFF20000FFFF2
FFFF20000FFFF2
FFFF20000FFFF2
FFFF20000FFFF2
FFFF20000FFFF2
FFFF20000FFFF2
FFFF20000FFFF2
FFFF20000FFFF2
FFFF20000FFFF2
ENDCHAR
STARTCHAR ograve
ENCODING 242
SWIDTH 600 0
DWIDTH 17 0
BBX 15 23 1 0
BITMAP
00004A0000000000
0004FF9000000000
003FFFF600000000
0008FFFF40000000
00006FFFE3000000
000004EFE3000000
0000002C20000000
0000000000000000
0000000000000000
00006BEFDA500000
003DFFFFFFFB2000
03EFFFFFFFFFD100
0CFFFB204DFFF900
4FFFF10004FFFF10
8FFFB00000EFFF50
AFFF900000CFFF70
AFFF900000CFFF70
8FFFB00000EFFF50
4FFFF10004FFFF10
0CFFFB204DFFF900
03EFFFFFFFFFD100
003DFFFFFFFB2000
00006BEFDA500000
ENDCHAR
STARTCHAR oacute
ENCODING 243
SWIDTH 600 0
DWIDTH 17 0
BBX 15 23 1 0
BITMAP
000000001B200000
00000000BFD20000
0000000AFFFE1000
0000007FFFF60000
000005FFFE400000
000005FFD2000000
0000005B10000000
0000000000000000
0000000000000000
00006BEFDA500000
003DFFFFFFFB2000
03EFFFFFFFFFD100
0CFFFB204DFFF900
4FFFF10004FFFF10
8FFFB00000EFFF50
AFFF900000CFFF70
AFFF900000CFFF70
8FFFB00000EFFF50
4FFFF10004FFFF10
0CFFFB204DFFF900
03EFFFFFFFFFD100
003DFFFFFFFB2000
00006BEFDA500000
ENDCHAR
STARTCHAR ocircumflex
ENCODING 244
SWIDTH 600 0
DWIDTH 17 0
BBX 15 21 1 0
BITMAP
00003EFFFD100000
0001DFFFFFB00000
000CFFEAFFF90000
007FFC204DFF4000
000A800001A80000
0000000000000000
0000000000000000
00006BEFDA500000
003DFFFFFFFB2000
03EFFFFFFFFFD100
0CFFFB204DFFF900
4FFFF10004FFFF10
8FFFB00000EFFF50
AFFF900000CFFF70
AFFF900000CFFF70
8FFFB00000EFFF50
4FFFF10004FFFF10
0CFFFB204DFFF900
03EFFFFFFFFFD100
003DFFFFFFFB2000
00006BEFDA500000
ENDCHAR
STARTCHAR otilde
ENCODING 245
SWIDTH 600 0
DWIDTH 17 0
BBX 15 21 1 0
BITMAP
0004CEB200996000
003FFFFE53FF9000
009FFFFFFFFF6000
00CFE28FFFFE1000
009A8005DFC30000
0000000000000000
0000000000000000
00006BEFDA500000
003DFFFFFFFB2000
03EFFFFFFFFFD100
0CFFFB204DFFF900
4FFFF10004FFFF10
8FFFB00000EFFF50
AFFF900000CFFF70
AFFF900000CFFF70
8FFFB00000EFFF50
4FFFF10004FFFF10
0CFFFB204DFFF900
03EFFFFFFFFFD100
003DFFFFFFFB2000
00006BEFDA500000
ENDCHAR
STARTCHAR odieresis
ENCODING 246
SWIDTH 600 0
DWIDTH 17 0
BBX 15 21 1 0
BITMAP
002CE8001AEA1000
00BFFF508FFF8000
00EFFF70AFFFB000
00BFFF508FFF8000
002CE9001BEB1000
0000000000000000
0000000000000000
00006BEFDA500000
003DFFFFFFFB2000
03EFFFFFFFFFD100
0CFFFB204DFFF900
4FFFF10004FFFF10
8FFFB00000EFFF50
AFFF900000CFFF70
AFFF900000CFFF70
8FFFB00000EFFF50
4FFFF10004FFFF10
0CFFFB204DFFF900
03EFFFFFFFFFD100
003DFFFFFFFB2000
00006BEFDA500000
ENDCHAR
STARTCHAR divide
ENCODING 247
SWIDTH 600 0
DWIDTH 17 0
BBX 14 13 1 3
BITMAP
000003CEB10000
00000BFFF80000
00000CFFF80000
000003CEB10000
00000000000000
1FFFFFFFFFFFFD
1FFFFFFFFFFFFD
1FFFFFFFFFFFFD
00000000000000
000003CEB10000
00000BFFF80000
00000CFFF80000
000003CEB10000
ENDCHAR
STARTCHAR oslash
ENCODING 248
SWIDTH 600 0
DWIDTH 17 0
BBX 15 16 1 -1
BITMAP
0000000000004000
00006BEFEA56FA00
003DFFFFFFFFF700
03EFFFFFFFFFE100
0CFFFC216FFFF900
4FFFF200CFFFFF10
8FFFB00AFEEFFF50
AFFF908FE3CFFF70
AFFF96FF50CFFF70
8FFFDFF600EFFF50
4FFFFF8004FFFF10
0CFFFE304DFFF900
03FFFFFFFFFFD100
0AFFFFFFFFFB2000
1CE36BDFDA500000
0030000000000000
ENDCHAR
STARTCHAR ugrave
ENCODING 249
SWIDTH 600 0
DWIDTH 17 0
BBX 14 23 1 0
BITMAP
00005900000000
0005FF70000000
004FFFF5000000
0009FFFF300000
00007FFFE20000
000005EFD20000
0000003C200000
00000000000000
00000000000000
4FFFD00006FFFB
4FFFD00006FFFB
4FFFD00006FFFB
4FFFD00006FFFB
4FFFD00006FFFB
4FFFD00006FFFB
4FFFD00006FFFB
4FFFD00006FFFB
4FFFD00007FFFB
3FFFF0001DFFFB
1FFFF812BFFFFB
0BFFFFFFFEFFFB
03FFFFFFD3DFFB
003BEFD810BFFB
ENDCHAR
STARTCHAR uacute
ENCODING 250
SWIDTH 600 0
DWIDTH 17 0
BBX 14 23 1 0
BITMAP
000000002B1000
00000001CFD200
0000000BFFFD10
0000009FFFE500
000006FFFE3000
000006FFC20000
0000005A100000
00000000000000
00000000000000
4FFFD00006FFFB
4FFFD00006FFFB
4FFFD00006FFFB
4FFFD00006FFFB
4FFFD00006FFFB
4FFFD00006FFFB
4FFFD00006FFFB
4FFFD00006FFFB
4FFFD00007FFFB
3FFFF0001DFFFB
1FFFF812BFFFFB
0BFFFFFFFEFFFB
03FFFFFFD3DFFB
003BEFD810BFFB
ENDCHAR
STARTCHAR ucircumflex
ENCODING 251
SWIDTH 600 0
DWIDTH 17 0
BBX 14 21 1 0
BITMAP
00003FFFFC1000
0002EFFFFFA000
001CFFEAFFF800
008FFB204EFF30
001B700001B700
00000000000000
00000000000000
4FFFD00006FFFB
4FFFD00006FFFB
4FFFD00006FFFB
4FFFD00006FFFB
4FFFD00006FFFB
4FFFD00006FFFB
4FFFD00006FFFB
4FFFD00006FFFB
4FFFD00007FFFB
3FFFF0001DFFFB
1FFFF812BFFFFB
0BFFFFFFFEFFFB
03FFFFFFD3DFFB
003BEFD810BFFB
ENDCHAR
STARTCHAR udieresis
ENCODING 252
SWIDTH 600 0
DWIDTH 17 0
BBX 14 21 1 0
BITMAP
003CE7001BEA00
00CFFF309FFF70
00FFFF60CFFF90
00CFFF409FFF70
003DE8001BEA10
00000000000000
00000000000000
4FFFD00006FFFB
4FFFD00006FFFB
4FFFD00006FFFB
4FFFD00006FFFB
4FFFD00006FFFB
4FFFD00006FFFB
4FFFD00006FFFB
4FFFD00006FFFB
4FFFD00007FFFB
3FFFF0001DFFFB
1FFFF812BFFFFB
0BFFFFFFFEFFFB
03FFFFFFD3DFFB
003BEFD810BFFB
ENDCHAR
STARTCHAR yacute
ENCODING 253
SWIDTH 600 0
DWIDTH 17 0
BBX 15 29 1 -6
BITMAP
000000000A400000
000000008FF40000
00000006FFFF3000
0000004FFFF80000
000003EFFF600000
000002EFE4000000
0000002C30000000
0000000000000000
0000000000000000
DFFF2000001FFFC0
7FFF8000006FFF60
1EFFD00000BFFF10
09FFF40001FFFA00
02FFFA0006FFF400
00AFFE100BFFD000
003FFF601FFF8000
000CFFB05FFF2000
0005FFF1AFFC0000
0000DFF6EFF60000
00007FFDFFE10000
00001EFFFFA00000
000008FFFF400000
000003FFFD000000
000006FFF8000000
00000DFFF2000000
0112AFFF90000000
08FFFFFE10000000
0CFFFFE300000000
0DFFD82000000000
ENDCHAR
STARTCHAR thorn
ENCODING 254
SWIDTH 600 0
DWIDTH 17 0
BBX 14 26 2 -6
BITMAP
FFFF2000000000
FFFF2000000000
FFFF2000000000
FFFF2000000000
FFFF2000000000
FFFF2000000000
FFFF16CEEB5000
FFFFCFFFFFF900
FFFFFFFFFFFF60
FFFFE513CFFFD0
FFFF40002FFFF3
FFFF20000DFFF6
FFFF20000CFFF7
FFFF20000CFFF6
FFFF20000EFFF5
FFFF30004FFFF1
FFFFD414EFFFA0
FFFFFFFFFFFE20
FFFFCFFFFFE400
FFFF18DFD91000
FFFF1000000000
FFFF2000000000
FFFF2000000000
FFFF2000000000
FFFF2000000000
FFFF2000000000
ENDCHAR
STARTCHAR ydieresis
ENCODING 255
SWIDTH 600 0
DWIDTH 17 0
BBX 15 27 1 -6
BITMAP
001AEA1008EC2000
008FFF804FFFB000
00AFFFB07FFFE000
008FFF805FFFB000
001BEB1009EC2000
0000000000000000
0000000000000000
DFFF2000001FFFC0
7FFF8000006FFF60
1EFFD00000BFFF10
09FFF40001FFFA00
02FFFA0006FFF400
00AFFE100BFFD000
003FFF601FFF8000
000CFFB05FFF2000
0005FFF1AFFC0000
0000DFF6EFF60000
00007FFDFFE10000
00001EFFFFA00000
000008FFFF400000
000003FFFD000000
000006FFF8000000
00000DFFF2000000
0112AFFF90000000
08FFFFFE10000000
0CFFFFE300000000
0DFFD82000000000
ENDCHAR
STARTCHAR Amacron
ENCODING 256
SWIDTH 600 0
DWIDTH 17 0
BBX 17 23 0 0
BITMAP
0000CFFFFFFF900000
0000CFFFFFFF900000
0000CFFFFFFF900000
000000000000000000
000000000000000000
000003FFFFF1000000
000008FFFFF5000000
00000DFFFFFA000000
00003FFFBFFE000000
00007FFE5FFF400000
0000CFFB1FFF900000
0002FFF70DFFE00000
0007FFF409FFF30000
000BFFF005FFF80000
001FFFC002FFFD0000
006FFF8000DFFF3000
00AFFFFFFFFFFF7000
01FFFFFFFFFFFFC000
05FFFFFFFFFFFFF200
0AFFF700000CFFF700
0EFFF2000007FFFB00
4FFFD0000003FFFF10
9FFF90000000EFFF60
ENDCHAR
STARTCHAR amacron
ENCODING 257
SWIDTH 600 0
DWIDTH 17 0
BBX 14 19 1 0
BITMAP
0003FFFFFFFF20
0003FFFFFFFF20
0003FFFFFFFF20
00000000000000
00000000000000
00048CEFEC8200
05DFFFFFFFFE40
05FFFFFFFFFFE2
00CE83114DFFF8
0010000005FFFC
0000379CDFFFFE
005CFFFFFFFFFF
07FFFFFFFFFFFF
1EFFFC6312FFFF
4FFFC00002FFFF
4FFFD3026DFFFF
0EFFFFFFFFFFFF
04FFFFFFF9AFFF
003BEFD9207FFF
ENDCHAR
STARTCHAR Abreve
ENCODING 258
SWIDTH 600 0
DWIDTH 17 0
BBX 17 24 0 0
BITMAP
0001BE40007D900000
0000DFD314EFA00000
00005FFFFFFE200000
000004BDFDA2000000
000000000000000000
000000000000000000
000003FFFFF1000000
000008FFFFF5000000
00000DFFFFFA000000
00003FFFBFFE000000
00007FFE5FFF400000
0000CFFB1FFF900000
0002FFF70DFFE00000
0007FFF409FFF30000
000BFFF005FFF80000
001FFFC002FFFD0000
006FFF8000DFFF3000
00AFFFFFFFFFFF7000
01FFFFFFFFFFFFC000
05FFFFFFFFFFFFF200
0AFFF700000CFFF700
0EFFF2000007FFFB00
4FFFD0000003FFFF10
9FFF90000000EFFF60
ENDCHAR
STARTCHAR abreve
ENCODING 259
SWIDTH 600 0
DWIDTH 17 0
BBX 14 22 1 0
BITMAP
00013300004310
000AFD0000EFA0
0008FF911AFF70
0003FFFFFFFF20
00009FFFFFF700
000006CEEC5000
00000000000000
00000000000000
00048CEFEC8200
05DFFFFFFFFE40
05FFFFFFFFFFE2
00CE83114DFFF8
0010000005FFFC
0000379CDFFFFE
005CFFFFFFFFFF
07FFFFFFFFFFFF
1EFFFC6312FFFF
4FFFC00002FFFF
4FFFD3026DFFFF
0EFFFFFFFFFFFF
04FFFFFFF9AFFF
003BEFD9207FFF
ENDCHAR
STARTCHAR Aogonek
ENCODING 260
SWIDTH 600 0
DWIDTH 17 0
BBX 18 25 0 -7
BITMAP
000003FFFFF1000000
000008FFFFF5000000
00000DFFFFFA000000
00003FFFBFFE000000
00007FFE5FFF400000
0000CFFB1FFF900000
0002FFF70DFFE00000
0007FFF409FFF30000
000BFFF005FFF80000
001FFFC002FFFD0000
006FFF8000DFFF3000
00AFFFFFFFFFFF7000
01FFFFFFFFFFFFC000
05FFFFFFFFFFFFF200
0AFFF700000CFFF700
0EFFF2000007FFFB00
4FFFD0000003FFFF10
9FFF90000000EFFF60
0000000000005EE610
000000000003FF5000
00000000000BFF0000
00000000000FFF3220
00000000000FFFFFA0
00000000000AFFFFF1
0000000000019EFC50
ENDCHAR
STARTCHAR aogonek
ENCODING 261
SWIDTH 600 0
DWIDTH 17 0
BBX 15 21 1 -7
BITMAP
00048CEFEC820000
05DFFFFFFFFE4000
05FFFFFFFFFFE200
00CE83114DFFF800
0010000005FFFC00
0000379CDFFFFE00
005CFFFFFFFFFF00
07FFFFFFFFFFFF00
1EFFFC6312FFFF00
4FFFC00002FFFF00
4FFFD3026DFFFF00
0EFFFFFFFFFFFF00
04FFFFFFFCCFFF00
003BEFDA507FFF00
0000000002DFA300
000000001DF70000
000000007FF10000
00000000BFF51300
00000000AFFFFF20
000000005FFFFF70
0000000006DFD710
ENDCHAR
STARTCHAR Cacute
ENCODING 262
SWIDTH 600 0
DWIDTH 17 0
BBX 15 25 1 0
BITMAP
0000000001B40000
000000002DFE2000
00000004EFFFB000
0000007FFFF91000
0000007FFD400000
0000000991000000
0000000000000000
0000049CEFDA5000
0001BFFFFFFFFC30
002DFFFFFFFFFE30
00CFFFE6103AE400
06FFFE3000002000
0DFFF70000000000
2FFFF10000000000
5FFFD00000000000
7FFFB00000000000
7FFFB00000000000
6FFFD00000000000
3FFFF10000000000
0EFFF70000000000
08FFFE3000005100
01DFFFE6203AFB00
003EFFFFFFFFFFA0
0002CFFFFFFFFC20
000005ADEEDA5000
ENDCHAR
STARTCHAR cacute
ENCODING 263
SWIDTH 600 0
DWIDTH 17 0
BBX 15 23 1 0
BITMAP
0000000000A40000
0000000009FE4000
000000007FFFF300
00000005FFFF8000
0000003EFFF60000
0000003EFE400000
00000003C2000000
0000000000000000
0000000000000000
000006ADFED94000
0004DFFFFFFFFB00
006FFFFFFFFFF700
02FFFFC5114AA000
0AFFFD1000000000
0EFFF50000000000
1FFFF20000000000
1FFFF20000000000
0EFFF50000000000
0AFFFC1000002000
04FFFFC4114AF300
008FFFFFFFFFFD00
0007FFFFFFFFFA10
000017BEFEC83000
ENDCHAR
STARTCHAR Ccircumflex
ENCODING 264
SWIDTH 600 0
DWIDTH 17 0
BBX 15 23 1 0
BITMAP
000000BFFFF80000
00000AFFEFFF6000
00007FFC23DFF400
00003B80001B9100
0000000000000000
0000049CEFDA5000
0001BFFFFFFFFC30
002DFFFFFFFFFE30
00CFFFE6103AE400
06FFFE3000002000
0DFFF70000000000
2FFFF10000000000
5FFFD00000000000
7FFFB00000000000
7FFFB00000000000
6FFFD00000000000
3FFFF10000000000
0EFFF70000000000
08FFFE3000005100
01DFFFE6203AFB00
003EFFFFFFFFFFA0
0002CFFFFFFFFC20
000005ADEEDA5000
ENDCHAR
STARTCHAR ccircumflex
ENCODING 265
SWIDTH 600 0
DWIDTH 17 0
BBX 15 21 1 0
BITMAP
000001DFFFE20000
00000CFFFFFD1000
0000AFFF9EFFB000
0005FFD302CFF700
00008A100008A000
0000000000000000
0000000000000000
000006ADFED94000
0004DFFFFFFFFB00
006FFFFFFFFFF700
02FFFFC5114AA000
0AFFFD1000000000
0EFFF50000000000
1FFFF20000000000
1FFFF20000000000
0EFFF50000000000
0AFFFC1000002000
04FFFFC4114AF300
008FFFFFFFFFFD00
0007FFFFFFFFFA10
000017BEFEC83000
ENDCHAR
STARTCHAR Cdotaccent
ENCODING 266
SWIDTH 600 0
DWIDTH 17 0
BBX 15 24 1 0
BITMAP
00000009ED600000
0000006FFFF30000
0000009FFFF50000
0000006FFFF30000
00000009ED600000
0000000000000000
0000049CEFDA5000
0001BFFFFFFFFC30
002DFFFFFFFFFE30
00CFFFE6103AE400
06FFFE3000002000
0DFFF70000000000
2FFFF10000000000
5FFFD00000000000
7FFFB00000000000
7FFFB00000000000
6FFFD00000000000
3FFFF10000000000
0EFFF70000000000
08FFFE3000005100
01DFFFE6203AFB00
003EFFFFFFFFFFA0
0002CFFFFFFFFC20
000005ADEEDA5000
ENDCHAR
STARTCHAR cdotaccent
ENCODING 267
SWIDTH 600 0
DWIDTH 17 0
BBX 15 21 1 0
BITMAP
0000003CEC400000
000000DFFFE10000
000002FFFFF40000
000000EFFFF20000
0000003CED500000
0000000000000000
0000000000000000
000006ADFED94000
0004DFFFFFFFFB00
006FFFFFFFFFF700
02FFFFC5114AA000
0AFFFD1000000000
0EFFF50000000000
1FFFF20000000000
1FFFF20000000000
0EFFF50000000000
0AFFFC1000002000
04FFFFC4114AF300
008FFFFFFFFFFD00
0007FFFFFFFFFA10
000017BEFEC83000
ENDCHAR
STARTCHAR Ccaron
ENCODING 268
SWIDTH 600 0
DWIDTH 17 0
BBX 15 24 1 0
BITMAP
00003B80001B9100
00007FFB23DFF400
00000AFFEFFF6000
000000BFFFF80000
0000000000000000
0000000000000000
0000049CEFDA5000
0001BFFFFFFFFC30
002DFFFFFFFFFE30
00CFFFE6103AE400
06FFFE3000002000
0DFFF70000000000
2FFFF10000000000
5FFFD00000000000
7FFFB00000000000
7FFFB00000000000
6FFFD00000000000
3FFFF10000000000
0EFFF70000000000
08FFFE3000005100
01DFFFE6203AFB00
003EFFFFFFFFFFA0
0002CFFFFFFFFC20
000005ADEEDA5000
ENDCHAR
STARTCHAR ccaron
ENCODING 269
SWIDTH 600 0
DWIDTH 17 0
BBX 15 21 1 0
BITMAP
00008A100008A000
0005FFD302CFF700
0000AFFF9EFFB000
00000CFFFFFD1000
000001DFFFE20000
0000000000000000
0000000000000000
000006ADFED94000
0004DFFFFFFFFB00
006FFFFFFFFFF700
02FFFFC5114AA000
0AFFFD1000000000
0EFFF50000000000
1FFFF20000000000
1FFFF20000000000
0EFFF50000000000
0AFFFC1000002000
04FFFFC4114AF300
008FFFFFFFFFFD00
0007FFFFFFFFFA10
000017BEFEC83000
ENDCHAR
STARTCHAR Dcaron
ENCODING 270
SWIDTH 600 0
DWIDTH 17 0
BBX 15 24 1 0
BITMAP
0007C30005C50000
001DFF609FFB0000
0003EFFEFFD10000
00004FFFFE200000
0000000000000000
0000000000000000
1FFFFFFDB7100000
1FFFFFFFFFF80000
1FFFFFFFFFFFA000
1FFFF214AFFFF600
1FFFF20009FFFE10
1FFFF20001FFFF50
1FFFF20000BFFF80
1FFFF200008FFFA0
1FFFF200007FFFB0
1FFFF200007FFFB0
1FFFF200008FFFA0
1FFFF20000BFFF80
1FFFF20002FFFF40
1FFFF2000AFFFD00
1FFFF214BFFFF600
1FFFFFFFFFFF9000
1FFFFFFFFFF80000
1FFFFFFEB7200000
ENDCHAR
STARTCHAR dcaron
ENCODING 271
SWIDTH 600 0
DWIDTH 17 0
BBX 17 23 1 0
BITMAP
0000000000000EFFB0
0000000000000DFFB0
0000000000000DFFB0
00000000DFFF0DFF90
00000000DFFF0CFF70
00000000DFFF0CFF50
00000000DFFF0CFF30
00000000DFFF0BFF10
00000000CFFF000000
0019EEB3BFFF000000
02EFFFFEDFFF000000
0CFFFFFFFFFF000000
6FFFE41AFFFF000000
BFFF5000DFFF000000
EFFF1000DFFF000000
FFFE0000DFFF000000
FFFE0000DFFF000000
EFFF1000DFFF000000
CFFF4001EFFF000000
7FFFD31BFFFF000000
1EFFFFFFFFFF000000
05FFFFFE9FFF000000
003AEEA23FFF000000
ENDCHAR
STARTCHAR Dcroat
ENCODING 272
SWIDTH 600 0
DWIDTH 17 0
BBX 16 18 0 0
BITMAP
01FFFFFFDB710000
01FFFFFFFFFF8000
01FFFFFFFFFFFA00
01FFFF214BFFFF60
01FFFF20009FFFE1
01FFFF20001FFFF5
01FFFF20000BFFF8
CEFFFFFFF208FFFA
FFFFFFFFF207FFFB
FFFFFFFFF207FFFB
01FFFF200008FFFA
01FFFF20000BFFF8
01FFFF20002FFFF4
01FFFF2000AFFFD0
01FFFF214BFFFF60
01FFFFFFFFFFF900
01FFFFFFFFFF7000
01FFFFFFEB720000
ENDCHAR
STARTCHAR dcroat
ENCODING 273
SWIDTH 600 0
DWIDTH 17 0
BBX 16 20 1 0
BITMAP
0000000005FFFC00
0000000005FFFC00
00000BFFFFFFFFF9
00000BFFFFFFFFF9
00000BFFFFFFFFD8
0000000005FFFC00
0000000005FFFC00
0004AEFC74FFFC00
008FFFFFFCFFFC00
07FFFFFFFFFFFC00
1EFFFC314BFFFC00
6FFFE10005FFFC00
9FFFA00005FFFC00
AFFF900005FFFC00
9FFFA00005FFFC00
7FFFE00007FFFC00
2FFFFA216FFFFC00
09FFFFFFFFFFFC00
01BFFFFFFBDFFC00
0006CEEC50AFFC00
ENDCHAR
STARTCHAR Emacron
ENCODING 274
SWIDTH 600 0
DWIDTH 17 0
BBX 13 23 2 0
BITMAP
003FFFFFFFF400
003FFFFFFFF400
003FFFFFFFF400
00000000000000
00000000000000
6FFFFFFFFFFFA0
6FFFFFFFFFFFA0
6FFFFFFFFFFFA0
6FFFB000000000
6FFFB000000000
6FFFB000000000
6FFFB000000000
6FFFFFFFFFF700
6FFFFFFFFFF700
6FFFFFFFFFF700
6FFFB000000000
6FFFB000000000
6FFFB000000000
6FFFB000000000
6FFFB000000000
6FFFFFFFFFFFE0
6FFFFFFFFFFFE0
6FFFFFFFFFFFE0
ENDCHAR
STARTCHAR emacron
ENCODING 275
SWIDTH 600 0
DWIDTH 17 0
BBX 15 19 1 0
BITMAP
0006FFFFFFFD0000
0006FFFFFFFD0000
0006FFFFFFFD0000
0000000000000000
0000000000000000
00004ADFEC810000
001BFFFFFFFE5000
01CFFFFFFFFFF300
08FFFC4116FFFB00
1EFFE100008FFF10
4FFFFFFFFFFFFF40
6FFFFFFFFFFFFF40
6FFFFFFFFFFFFF30
4FFFD00000000000
1FFFF50000000000
09FFFF8211499000
01CFFFFFFFFFF300
001AFFFFFFFFF600
000049DEFEB71000
ENDCHAR
STARTCHAR Ebreve
ENCODING 276
SWIDTH 600 0
DWIDTH 17 0
BBX 13 24 2 0
BITMAP
004CD0000CC500
003FF9118FF400
000AFFFFFFB000
00006CEEC71000
00000000000000
00000000000000
6FFFFFFFFFFFA0
6FFFFFFFFFFFA0
6FFFFFFFFFFFA0
6FFFB000000000
6FFFB000000000
6FFFB000000000
6FFFB000000000
6FFFFFFFFFF700
6FFFFFFFFFF700
6FFFFFFFFFF700
6FFFB000000000
6FFFB000000000
6FFFB000000000
6FFFB000000000
6FFFB000000000
6FFFFFFFFFFFE0
6FFFFFFFFFFFE0
6FFFFFFFFFFFE0
ENDCHAR
STARTCHAR ebreve
ENCODING 277
SWIDTH 600 0
DWIDTH 17 0
BBX 15 22 1 0
BITMAP
0001420000420000
000EFA0002FF6000
000BFF612CFF4000
0006FFFFFFFD0000
0000CFFFFFF40000
000018DFEB300000
0000000000000000
0000000000000000
00004ADFEC810000
001BFFFFFFFE5000
01CFFFFFFFFFF300
08FFFC4116FFFB00
1EFFE100008FFF10
4FFFFFFFFFFFFF40
6FFFFFFFFFFFFF40
6FFFFFFFFFFFFF30
4FFFD00000000000
1FFFF50000000000
09FFFF8211499000
01CFFFFFFFFFF300
001AFFFFFFFFF600
000049DEFEB71000
ENDCHAR
STARTCHAR Edotaccent
ENCODING 278
SWIDTH 600 0
DWIDTH 17 0
BBX 13 24 2 0
BITMAP
000007EE800000
00004FFFF50000
00007FFFF80000
00004FFFF50000
000007EE800000
00000000000000
6FFFFFFFFFFFA0
6FFFFFFFFFFFA0
6FFFFFFFFFFFA0
6FFFB000000000
6FFFB000000000
6FFFB000000000
6FFFB000000000
6FFFFFFFFFF700
6FFFFFFFFFF700
6FFFFFFFFFF700
6FFFB000000000
6FFFB000000000
6FFFB000000000
6FFFB000000000
6FFFB000000000
6FFFFFFFFFFFE0
6FFFFFFFFFFFE0
6FFFFFFFFFFFE0
ENDCHAR
STARTCHAR edotaccent
ENCODING 279
SWIDTH 600 0
DWIDTH 17 0
BBX 15 21 1 0
BITMAP
000002BED6000000
00000BFFFF300000
00000EFFFF700000
00000CFFFF400000
000002BED7000000
0000000000000000
0000000000000000
00004ADFEC810000
001BFFFFFFFE5000
01CFFFFFFFFFF300
08FFFC4116FFFB00
1EFFE100008FFF10
4FFFFFFFFFFFFF40
6FFFFFFFFFFFFF40
6FFFFFFFFFFFFF30
4FFFD00000000000
1FFFF50000000000
09FFFF8211499000
01CFFFFFFFFFF300
001AFFFFFFFFF600
000049DEFEB71000
ENDCHAR
STARTCHAR Eogonek
ENCODING 280
SWIDTH 600 0
DWIDTH 17 0
BBX 14 25 2 -7
BITMAP
6FFFFFFFFFFFA0
6FFFFFFFFFFFA0
6FFFFFFFFFFFA0
6FFFB000000000
6FFFB000000000
6FFFB000000000
6FFFB000000000
6FFFFFFFFFF700
6FFFFFFFFFF700
6FFFFFFFFFF700
6FFFB000000000
6FFFB000000000
6FFFB000000000
6FFFB000000000
6FFFB000000000
6FFFFFFFFFFFE0
6FFFFFFFFFFFE0
6FFFFFFFFFFFE0
000000002DF910
00000000DFB000
00000006FF6000
00000009FF9130
00000009FFFFE1
00000004FFFFF6
000000005CFD81
ENDCHAR
STARTCHAR eogonek
ENCODING 281
SWIDTH 600 0
DWIDTH 17 0
BBX 15 21 1 -7
BITMAP
00004ADFEC810000
001BFFFFFFFE5000
01CFFFFFFFFFF300
08FFFC4116FFFB00
1EFFE100008FFF10
4FFFFFFFFFFFFF40
6FFFFFFFFFFFFF40
6FFFFFFFFFFFFF30
4FFFD00000000000
1FFFF50000000000
09FFFF8211499000
01CFFFFFFFFFF300
001AFFFFFFFFF800
000049DEFFFF7000
000000005FF50000
00000001EF700000
00000007FF200000
00000009FF713000
00000008FFFFF400
00000003FFFFF900
000000005CED8100
ENDCHAR
STARTCHAR Ecaron
ENCODING 282
SWIDTH 600 0
DWIDTH 17 0
BBX 13 24 2 0
BITMAP
002AA10009B200
005FFD32CFF600
0007FFEEFF8000
00009FFFFA0000
00000000000000
00000000000000
6FFFFFFFFFFFA0
6FFFFFFFFFFFA0
6FFFFFFFFFFFA0
6FFFB000000000
6FFFB000000000
6FFFB000000000
6FFFB000000000
6FFFFFFFFFF700
6FFFFFFFFFF700
6FFFFFFFFFF700
6FFFB000000000
6FFFB000000000
6FFFB000000000
6FFFB000000000
6FFFB000000000
6FFFFFFFFFFFE0
6FFFFFFFFFFFE0
6FFFFFFFFFFFE0
ENDCHAR
STARTCHAR ecaron
ENCODING 283
SWIDTH 600 0
DWIDTH 17 0
BBX 15 21 1 0
BITMAP
0006B200006B1000
002FFE501BFFA000
0007FFFAEFFD1000
00009FFFFFE30000
00000BFFFF400000
0000000000000000
0000000000000000
00004ADFEC810000
001BFFFFFFFE5000
01CFFFFFFFFFF300
08FFFC4116FFFB00
1EFFE100008FFF10
4FFFFFFFFFFFFF40
6FFFFFFFFFFFFF40
6FFFFFFFFFFFFF30
4FFFD00000000000
1FFFF50000000000
09FFFF8211499000
01CFFFFFFFFFF300
001AFFFFFFFFF600
000049DEFEB71000
ENDCHAR
STARTCHAR Gcircumflex
ENCODING 284
SWIDTH 600 0
DWIDTH 17 0
BBX 15 23 1 0
BITMAP
000006FFFFD10000
00004FFFEFFB0000
0003EFE41AFF9000
00018C20007C4000
0000000000000000
000016BDFEC71000
0005EFFFFFFFE600
006FFFFFFFFFF700
03FFFFB3017E8000
0BFFFC0000020000
3FFFF30000000000
7FFFC00000000000
AFFF900000000000
BFFF8001FFFFFF50
BFFF8001FFFFFF50
AFFF9001FFFFFF50
8FFFC000006FFF50
4FFFF200006FFF50
0DFFFA00006FFF50
05FFFFA301AFFF50
008FFFFFFFFFFF50
0006EFFFFFFFF800
000017BEFEC71000
ENDCHAR
STARTCHAR gcircumflex
ENCODING 285
SWIDTH 600 0
DWIDTH 17 0
BBX 15 27 1 -6
BITMAP
00002EFFFE200000
0001CFFFFFC10000
000AFFF9FFFB0000
006FFD303DFF6000
0009910001990000
0000000000000000
0000000000000000
00029DFFFFFFFFE0
006FFFFFFFFFFFE0
04FFFFFFFFFFFFE0
0BFFF9119FFFFFE0
0EFFF0000FFF6000
0DFFF1001FFFA000
0AFFFB55CFFF9000
03FFFFFFFFFF3000
006FFFFFFFE60000
02DFD9BB96100000
09FFA10000000000
0BFFFFFFFFEC9200
07FFFFFFFFFFFF40
00AFEEFFFFFFFFC0
08FF2000015FFFF0
5FFE0000001EFFE0
8FFF931015CFFF80
5FFFFFFFFFFFFD10
09FFFFFFFFFFA100
0049CEFEDB720000
ENDCHAR
STARTCHAR Gbreve
ENCODING 286
SWIDTH 600 0
DWIDTH 17 0
BBX 15 24 1 0
BITMAP
0002BE20009D8000
0001FFB216FF7000
00007FFFFFFD1000
000005BEED910000
0000000000000000
0000000000000000
000016BDFEC71000
0005EFFFFFFFE600
006FFFFFFFFFF700
03FFFFB3017E8000
0BFFFC0000020000
3FFFF30000000000
7FFFC00000000000
AFFF900000000000
BFFF8001FFFFFF50
BFFF8001FFFFFF50
AFFF9001FFFFFF50
8FFFC000006FFF50
4FFFF200006FFF50
0DFFFA00006FFF50
05FFFFA301AFFF50
008FFFFFFFFFFF50
0006EFFFFFFFF800
000017BEFEC71000
ENDCHAR
STARTCHAR gbreve
ENCODING 287
SWIDTH 600 0
DWIDTH 17 0
BBX 15 28 1 -6
BITMAP
0002410001420000
002FF60006FF3000
000FFE414EFF1000
000AFFFFFFFA0000
0002EFFFFFE20000
000029EFE9200000
0000000000000000
0000000000000000
00029DFFFFFFFFE0
006FFFFFFFFFFFE0
04FFFFFFFFFFFFE0
0BFFF9119FFFFFE0
0EFFF0000FFF6000
0DFFF1001FFFA000
0AFFFB55CFFF9000
03FFFFFFFFFF3000
006FFFFFFFE60000
02DFD9BB96100000
09FFA10000000000
0BFFFFFFFFEC9200
07FFFFFFFFFFFF40
00AFEEFFFFFFFFC0
08FF2000015FFFF0
5FFE0000001EFFE0
8FFF931015CFFF80
5FFFFFFFFFFFFD10
09FFFFFFFFFFA100
0049CEFEDB720000
ENDCHAR
STARTCHAR Gdotaccent
ENCODING 288
SWIDTH 600 0
DWIDTH 17 0
BBX 15 24 1 0
BITMAP
0000005DEA100000
000001FFFF800000
000004FFFFB00000
000001FFFF800000
0000005DEA100000
0000000000000000
000016BDFEC71000
0005EFFFFFFFE600
006FFFFFFFFFF700
03FFFFB3017E8000
0BFFFC0000020000
3FFFF30000000000
7FFFC00000000000
AFFF900000000000
BFFF8001FFFFFF50
BFFF8001FFFFFF50
AFFF9001FFFFFF50
8FFFC000006FFF50
4FFFF200006FFF50
0DFFFA00006FFF50
05FFFFA301AFFF50
008FFFFFFFFFFF50
0006EFFFFFFFF800
000017BEFEC71000
ENDCHAR
STARTCHAR gdotaccent
ENCODING 289
SWIDTH 600 0
DWIDTH 17 0
BBX 15 27 1 -6
BITMAP
000004CEC4000000
00001EFFFE100000
00003FFFFF300000
00001EFFFE100000
000004CEC4000000
0000000000000000
0000000000000000
00029DFFFFFFFFE0
006FFFFFFFFFFFE0
04FFFFFFFFFFFFE0
0BFFF9119FFFFFE0
0EFFF0000FFF6000
0DFFF1001FFFA000
0AFFFB55CFFF9000
03FFFFFFFFFF3000
006FFFFFFFE60000
02DFD9BB96100000
09FFA10000000000
0BFFFFFFFFEC9200
07FFFFFFFFFFFF40
00AFEEFFFFFFFFC0
08FF2000015FFFF0
5FFE0000001EFFE0
8FFF931015CFFF80
5FFFFFFFFFFFFD10
09FFFFFFFFFFA100
0049CEFEDB720000
ENDCHAR
STARTCHAR uni0122
ENCODING 290
SWIDTH 600 0
DWIDTH 17 0
BBX 15 25 1 -7
BITMAP
000016BDFEC71000
0005EFFFFFFFE600
006FFFFFFFFFF700
03FFFFB3017E8000
0BFFFC0000020000
3FFFF30000000000
7FFFC00000000000
AFFF900000000000
BFFF8001FFFFFF50
BFFF8001FFFFFF50
AFFF9001FFFFFF50
8FFFC000006FFF50
4FFFF200006FFF50
0DFFFA00006FFF50
05FFFFA301AFFF50
008FFFFFFFFFFF50
0006EFFFFFFFF800
000017BEFEC71000
0000000000000000
0000007DA5000000
000000DFFF500000
00000018FFA00000
0000012AFF800000
00001FFFFD200000
00000DDB71000000
ENDCHAR
STARTCHAR uni0123
ENCODING 291
SWIDTH 600 0
DWIDTH 17 0
BBX 15 27 1 -6
BITMAP
0000005ADE600000
00000AFFFF900000
00002FFE41000000
00000EFFF6000000
0000029DE1000000
0000000000000000
0000000000000000
00029DFFFFFFFFE0
006FFFFFFFFFFFE0
04FFFFFFFFFFFFE0
0BFFF9119FFFFFE0
0EFFF0000FFF6000
0DFFF1001FFFA000
0AFFFB55CFFF9000
03FFFFFFFFFF3000
006FFFFFFFE60000
02DFD9BB96100000
09FFA10000000000
0BFFFFFFFFEC9200
07FFFFFFFFFFFF40
00AFEEFFFFFFFFC0
08FF2000015FFFF0
5FFE0000001EFFE0
8FFF931015CFFF80
5FFFFFFFFFFFFD10
09FFFFFFFFFFA100
0049CEFEDB720000
ENDCHAR
STARTCHAR Hcircumflex
ENCODING 292
SWIDTH 600 0
DWIDTH 17 0
BBX 14 23 1 0
BITMAP
00004FFFFE2000
0003EFFEFFD100
001DFF609FFB00
0007C30005C500
00000000000000
3FFFE00002FFFF
3FFFE00002FFFF
3FFFE00002FFFF
3FFFE00002FFFF
3FFFE00002FFFF
3FFFE00002FFFF
3FFFE00002FFFF
3FFFFFFFFFFFFF
3FFFFFFFFFFFFF
3FFFFFFFFFFFFF
3FFFE00002FFFF
3FFFE00002FFFF
3FFFE00002FFFF
3FFFE00002FFFF
3FFFE00002FFFF
3FFFE00002FFFF
3FFFE00002FFFF
3FFFE00002FFFF
ENDCHAR
STARTCHAR hcircumflex
ENCODING 293
SWIDTH 600 0
DWIDTH 17 0
BBX 17 25 -1 0
BITMAP
009FFFFB0000000000
07FFFEFF9000000000
4FFD32CFF700000000
2AB10009B300000000
000000000000000000
000FFFF20000000000
000FFFF20000000000
000FFFF20000000000
000FFFF20000000000
000FFFF20000000000
000FFFF10000000000
000FFFF029DFEA2000
000FFFE6FFFFFFE200
000FFFFFFFFFFFF900
000FFFFF811AFFFD00
000FFFF80002FFFF10
000FFFF20000FFFF20
000FFFF20000FFFF20
000FFFF20000FFFF20
000FFFF20000FFFF20
000FFFF20000FFFF20
000FFFF20000FFFF20
000FFFF20000FFFF20
000FFFF20000FFFF20
000FFFF20000FFFF20
ENDCHAR
STARTCHAR Hbar
ENCODING 294
SWIDTH 600 0
DWIDTH 17 0
BBX 17 18 0 0
BITMAP
03FFFE00002FFFF000
03FFFE00002FFFF100
CEFFFFFFFFFFFFFFB0
EFFFFFFFFFFFFFFFB0
EFFFFFFFFFFFFFFFB0
03FFFE00002FFFF000
03FFFE00002FFFF000
03FFFFFFFFFFFFF000
03FFFFFFFFFFFFF000
03FFFFFFFFFFFFF000
03FFFE00002FFFF000
03FFFE00002FFFF000
03FFFE00002FFFF000
03FFFE00002FFFF000
03FFFE00002FFFF000
03FFFE00002FFFF000
03FFFE00002FFFF000
03FFFE00002FFFF000
ENDCHAR
STARTCHAR hbar
ENCODING 295
SWIDTH 600 0
DWIDTH 17 0
BBX 16 20 0 0
BITMAP
00FFFF2000000000
00FFFF2000000000
AEFFFFFFFFF40000
CFFFFFFFFFF40000
CFFFFFFFFFF40000
00FFFF2000000000
00FFFF2000000000
00FFFF029DFEA200
00FFFE6FFFFFFE20
00FFFFFFFFFFFF90
00FFFFE611AFFFE0
00FFFF30002FFFF1
00FFFF20000FFFF2
00FFFF20000FFFF2
00FFFF20000FFFF2
00FFFF20000FFFF2
00FFFF20000FFFF2
00FFFF20000FFFF2
00FFFF20000FFFF2
00FFFF20000FFFF2
ENDCHAR
STARTCHAR Itilde
ENCODING 296
SWIDTH 600 0
DWIDTH 17 0
BBX 13 24 2 0
BITMAP
006DFB3008A800
05FFFFF62EFC00
0CFFFFFFFFF900
1FFD18FFFFF200
19A6005DFC4000
00000000000000
EFFFFFFFFFFFB0
EFFFFFFFFFFFB0
EFFFFFFFFFFFB0
0000AFFF700000
0000AFFF700000
0000AFFF700000
0000AFFF700000
0000AFFF700000
0000AFFF700000
0000AFFF700000
0000AFFF700000
0000AFFF700000
0000AFFF700000
0000AFFF700000
0000AFFF700000
EFFFFFFFFFFFB0
EFFFFFFFFFFFB0
EFFFFFFFFFFFB0
ENDCHAR
STARTCHAR itilde
ENCODING 297
SWIDTH 600 0
DWIDTH 17 0
BBX 13 21 2 0
BITMAP
0002AEC4007980
000DFFFF81DFD0
005FFFFFFFFFA0
008FF55EFFFF40
006AB002BFD500
00000000000000
00000000000000
CFFFFFFFFE0000
CFFFFFFFFE0000
CFFFFFFFFE0000
000003FFFE0000
000003FFFE0000
000003FFFE0000
000003FFFE0000
000003FFFE0000
000003FFFE0000
000003FFFE0000
000003FFFE0000
000003FFFE0000
000003FFFE0000
000003FFFE0000
ENDCHAR
STARTCHAR Imacron
ENCODING 298
SWIDTH 600 0
DWIDTH 17 0
BBX 13 23 2 0
BITMAP
00CFFFFFFF9000
00CFFFFFFF9000
00CFFFFFFF9000
00000000000000
00000000000000
EFFFFFFFFFFFB0
EFFFFFFFFFFFB0
EFFFFFFFFFFFB0
0000AFFF700000
0000AFFF700000
0000AFFF700000
0000AFFF700000
0000AFFF700000
0000AFFF700000
0000AFFF700000
0000AFFF700000
0000AFFF700000
0000AFFF700000
0000AFFF700000
0000AFFF700000
EFFFFFFFFFFFB0
EFFFFFFFFFFFB0
EFFFFFFFFFFFB0
ENDCHAR
STARTCHAR imacron
ENCODING 299
SWIDTH 600 0
DWIDTH 17 0
BBX 12 19 2 0
BITMAP
0007FFFFFFFC
0007FFFFFFFC
0007FFFFFFFC
000000000000
000000000000
CFFFFFFFFE00
CFFFFFFFFE00
CFFFFFFFFE00
000003FFFE00
000003FFFE00
000003FFFE00
000003FFFE00
000003FFFE00
000003FFFE00
000003FFFE00
000003FFFE00
000003FFFE00
000003FFFE00
000003FFFE00
ENDCHAR
STARTCHAR Ibreve
ENCODING 300
SWIDTH 600 0
DWIDTH 17 0
BBX 13 24 2 0
BITMAP
01BE40007D9000
00DFD314EFA000
005FFFFFFE2000
0004BDFDA20000
00000000000000
00000000000000
EFFFFFFFFFFFB0
EFFFFFFFFFFFB0
EFFFFFFFFFFFB0
0000AFFF700000
0000AFFF700000
0000AFFF700000
0000AFFF700000
0000AFFF700000
0000AFFF700000
0000AFFF700000
0000AFFF700000
0000AFFF700000
0000AFFF700000
0000AFFF700000
0000AFFF700000
EFFFFFFFFFFFB0
EFFFFFFFFFFFB0
EFFFFFFFFFFFB0
ENDCHAR
STARTCHAR ibreve
ENCODING 301
SWIDTH 600 0
DWIDTH 17 0
BBX 13 22 2 0
BITMAP
00014200005200
000FF80004FF50
000CFF513DFF30
0008FFFFFFFD00
0001CFFFFFE300
000018DFEA3000
00000000000000
00000000000000
CFFFFFFFFE0000
CFFFFFFFFE0000
CFFFFFFFFE0000
000003FFFE0000
000003FFFE0000
000003FFFE0000
000003FFFE0000
000003FFFE0000
000003FFFE0000
000003FFFE0000
000003FFFE0000
000003FFFE0000
000003FFFE0000
000003FFFE0000
ENDCHAR
STARTCHAR Iogonek
ENCODING 302
SWIDTH 600 0
DWIDTH 17 0
BBX 13 25 2 -7
BITMAP
EFFFFFFFFFFFB0
EFFFFFFFFFFFB0
EFFFFFFFFFFFB0
0000AFFF700000
0000AFFF700000
0000AFFF700000
0000AFFF700000
0000AFFF700000
0000AFFF700000
0000AFFF700000
0000AFFF700000
0000AFFF700000
0000AFFF700000
0000AFFF700000
0000AFFF700000
EFFFFFFFFFFFB0
EFFFFFFFFFFFB0
EFFFFFFFFFFFB0
00002EFA100000
0000CFB0000000
0005FF60000000
0009FF91300000
0009FFFFF10000
0004FFFFF70000
00005CFD810000
ENDCHAR
STARTCHAR iogonek
ENCODING 303
SWIDTH 600 0
DWIDTH 17 0
BBX 11 28 2 -7
BITMAP
000002BED500
00000CFFFF20
00000FFFFF50
00000DFFFF30
000003BED600
000000000000
000000000000
CFFFFFFFFE00
CFFFFFFFFE00
CFFFFFFFFE00
000003FFFE00
000003FFFE00
000003FFFE00
000003FFFE00
000003FFFE00
000003FFFE00
000003FFFE00
000003FFFE00
000003FFFE00
000003FFFE00
000003FFFE00
000000AFB300
000009FB0000
00002FF60000
00006FFA1210
00005FFFFF70
00002EFFFFC0
000003BEEA20
ENDCHAR
STARTCHAR Idotaccent
ENCODING 304
SWIDTH 600 0
DWIDTH 17 0
BBX 13 24 2 0
BITMAP
00003CEB200000
0000DFFFA00000
0001FFFFD00000
0000DFFFA00000
00003CEB200000
00000000000000
EFFFFFFFFFFFB0
EFFFFFFFFFFFB0
EFFFFFFFFFFFB0
0000AFFF700000
0000AFFF700000
0000AFFF700000
0000AFFF700000
0000AFFF700000
0000AFFF700000
0000AFFF700000
0000AFFF700000
0000AFFF700000
0000AFFF700000
0000AFFF700000
0000AFFF700000
EFFFFFFFFFFFB0
EFFFFFFFFFFFB0
EFFFFFFFFFFFB0
ENDCHAR
STARTCHAR dotlessi
ENCODING 305
SWIDTH 600 0
DWIDTH 17 0
BBX 10 14 2 0
BITMAP
CFFFFFFFFE
CFFFFFFFFE
CFFFFFFFFE
000003FFFE
000003FFFE
000003FFFE
000003FFFE
000003FFFE
000003FFFE
000003FFFE
000003FFFE
000003FFFE
000003FFFE
000003FFFE
ENDCHAR
STARTCHAR IJ
ENCODING 306
SWIDTH 600 0
DWIDTH 17 0
BBX 13 23 2 -5
BITMAP
EFFF30006FFFB0
EFFF30006FFFB0
EFFF30006FFFB0
EFFF30006FFFB0
EFFF30006FFFB0
EFFF30006FFFB0
EFFF30006FFFB0
EFFF30006FFFB0
EFFF30006FFFB0
EFFF30006FFFB0
EFFF30006FFFB0
EFFF30006FFFB0
EFFF30006FFFB0
EFFF30006FFFB0
EFFF30006FFFB0
EFFF30006FFFB0
EFFF30006FFFB0
EFFF30006FFFB0
000000007FFFA0
00000112DFFF70
000007FFFFFF20
00000BFFFFF700
00000BEFEB4000
ENDCHAR
STARTCHAR ij
ENCODING 307
SWIDTH 600 0
DWIDTH 17 0
BBX 15 26 1 -6
BITMAP
06DEA100009EE700
1FFFF80006FFFF30
1FFFF80006FFFF30
06DEA100009EE700
0000000000000000
0000000000000000
0DFFF40002FFFE00
0DFFF40002FFFE00
0DFFF40002FFFE00
0DFFF40002FFFE00
0DFFF40002FFFE00
0DFFF40002FFFE00
0DFFF40002FFFE00
0DFFF40002FFFE00
0DFFF40002FFFE00
0DFFF40002FFFE00
0DFFF40002FFFE00
0DFFF40002FFFE00
0DFFF40002FFFE00
0DFFF40002FFFE00
0000000002FFFE00
0000000004FFFC00
0000000119FFFA00
0000000DFFFFF500
0000002FFFFFA000
0000004DFEC70000
ENDCHAR
STARTCHAR Jcircumflex
ENCODING 308
SWIDTH 600 0
DWIDTH 17 0
BBX 14 23 1 0
BITMAP
000007FFFFC100
00005FFFEFFA00
0003FFE41BFF80
00019B20008C30
00000000000000
00CFFFFFFFFFF7
00CFFFFFFFFFF7
00CFFFFFFFFFF7
000000000AFFF7
000000000AFFF7
000000000AFFF7
000000000AFFF7
000000000AFFF7
000000000AFFF7
000000000AFFF7
000000000AFFF7
000000000AFFF7
000000000BFFF6
007800000EFFF3
06FFA302AFFFE0
2FFFFFFFFFFF60
04DFFFFFFFF700
0006BEFEC92000
ENDCHAR
STARTCHAR jcircumflex
ENCODING 309
SWIDTH 600 0
DWIDTH 17 0
BBX 14 27 1 -6
BITMAP
000001CFFFF300
00000AFFFFFE20
00008FFFAEFFC1
0003FFE402BFF8
00007B100007B1
00000000000000
00000000000000
0CFFFFFFFFE000
0CFFFFFFFFE000
0CFFFFFFFFE000
0000003FFFE000
0000003FFFE000
0000003FFFE000
0000003FFFE000
0000003FFFE000
0000003FFFE000
0000003FFFE000
0000003FFFE000
0000003FFFE000
0000003FFFE000
0000003FFFD000
0000004FFFD000
0000007FFFA000
074114EFFF6000
2FFFFFFFFD1000
9FFFFFFFD30000
38CEFEC7100000
ENDCHAR
STARTCHAR uni0136
ENCODING 310
SWIDTH 600 0
DWIDTH 17 0
BBX 16 25 1 -7
BITMAP
1FFFF10000CFFFB0
1FFFF10008FFFD10
1FFFF1004FFFF300
1FFFF101EFFF7000
1FFFF10BFFFA0000
1FFFF17FFFD10000
1FFFF4FFFE300000
1FFFFEFFFD000000
1FFFFFFFFF600000
1FFFFFFFFFD10000
1FFFFFECFFF70000
1FFFFF54FFFE1000
1FFFF800BFFF9000
1FFFF1003FFFF200
1FFFF1000BFFFA00
1FFFF10003FFFF40
1FFFF10000BFFFC0
1FFFF100003FFFF5
0000000000000000
0000006EB5000000
000000CFFF600000
00000018FFB00000
00000129FF900000
00000FFFFE200000
00000CEB71000000
ENDCHAR
STARTCHAR uni0137
ENCODING 311
SWIDTH 600 0
DWIDTH 17 0
BBX 15 27 2 -7
BITMAP
DFFF400000000000
DFFF400000000000
DFFF400000000000
DFFF400000000000
DFFF400000000000
DFFF400000000000
DFFF40002DFFF700
DFFF4001DFFF8000
DFFF401CFFF90000
DFFF40BFFFA00000
DFFF4AFFFA000000
DFFFCFFFD0000000
DFFFFFFFF4000000
DFFFFFFFFD100000
DFFFFD9FFFA00000
DFFFE31DFFF50000
DFFF5004FFFE1000
DFFF4000AFFFA000
DFFF40001EFFF500
DFFF400006FFFE20
0000000000000000
000006EB50000000
00000CFFF5000000
0000018FFA000000
0000129FF9000000
0000FFFFD2000000
0000DDB710000000
ENDCHAR
STARTCHAR kgreenlandic
ENCODING 312
SWIDTH 600 0
DWIDTH 17 0
BBX 15 14 2 0
BITMAP
DFFF40002DFFF700
DFFF4001DFFF9000
DFFF401CFFFA0000
DFFF40BFFFB00000
DFFF4AFFFC100000
DFFFCFFFE1000000
DFFFFFFFF3000000
DFFFFFFFFD100000
DFFFFFCFFF900000
DFFFF51EFFF40000
DFFF6006FFFD1000
DFFF4000BFFFA000
DFFF40002EFFF500
DFFF400006FFFE10
ENDCHAR
STARTCHAR Lacute
ENCODING 313
SWIDTH 600 0
DWIDTH 17 0
BBX 14 25 2 0
BITMAP
00005A00000000
0007FF90000000
01AFFFF4000000
2CFFFE50000000
1DFFA100000000
02C40000000000
00000000000000
0FFFF200000000
0FFFF200000000
0FFFF200000000
0FFFF200000000
0FFFF200000000
0FFFF200000000
0FFFF200000000
0FFFF200000000
0FFFF200000000
0FFFF200000000
0FFFF200000000
0FFFF200000000
0FFFF200000000
0FFFF200000000
0FFFF200000000
0FFFFFFFFFFFF4
0FFFFFFFFFFFF4
0FFFFFFFFFFFF4
ENDCHAR
STARTCHAR lacute
ENCODING 314
SWIDTH 600 0
DWIDTH 17 0
BBX 15 27 1 0
BITMAP
00000002B2000000
0000004EFC100000
000007FFFF800000
00009FFFF8000000
0000AFFC30000000
00000B7000000000
0000000000000000
9FFFFFFFD0000000
9FFFFFFFD0000000
9FFFFFFFD0000000
00004FFFD0000000
00004FFFD0000000
00004FFFD0000000
00004FFFD0000000
00004FFFD0000000
00004FFFD0000000
00004FFFD0000000
00004FFFD0000000
00004FFFD0000000
00004FFFD0000000
00004FFFD0000000
00003FFFD0000000
00002FFFF1000000
00000DFFFA103200
000007FFFFFFF900
000000BFFFFFFE00
00000007CEFEB810
ENDCHAR
STARTCHAR uni013B
ENCODING 315
SWIDTH 600 0
DWIDTH 17 0
BBX 13 25 3 -7
BITMAP
FFFF2000000000
FFFF2000000000
FFFF2000000000
FFFF2000000000
FFFF2000000000
FFFF2000000000
FFFF2000000000
FFFF2000000000
FFFF2000000000
FFFF2000000000
FFFF2000000000
FFFF2000000000
FFFF2000000000
FFFF2000000000
FFFF2000000000
FFFFFFFFFFFF40
FFFFFFFFFFFF40
FFFFFFFFFFFF40
00000000000000
00002EC7100000
00007FFFA00000
000004FFF00000
000026FFE00000
000BFFFF500000
0008EC82000000
ENDCHAR
STARTCHAR uni013C
ENCODING 316
SWIDTH 600 0
DWIDTH 17 0
BBX 15 27 1 -7
BITMAP
9FFFFFFFD0000000
9FFFFFFFD0000000
9FFFFFFFD0000000
00004FFFD0000000
00004FFFD0000000
00004FFFD0000000
00004FFFD0000000
00004FFFD0000000
00004FFFD0000000
00004FFFD0000000
00004FFFD0000000
00004FFFD0000000
00004FFFD0000000
00004FFFD0000000
00003FFFD0000000
00002FFFF1000000
00000DFFFA103200
000007FFFFFFF900
000000BFFFFFFE00
00000007CEFEB810
0000000000000000
00000003EB600000
00000009FFF80000
000000015FFD0000
000000027FFC0000
000000CFFFE40000
000000AEC8200000
ENDCHAR
STARTCHAR Lcaron
ENCODING 317
SWIDTH 600 0
DWIDTH 17 0
BBX 13 22 3 0
BITMAP
0000000DFFC000
0000000CFFC000
0000000CFFC000
0000000CFFA000
FFFF200BFF8000
FFFF200BFF6000
FFFF200BFF4000
FFFF200AFF2000
FFFF2000000000
FFFF2000000000
FFFF2000000000
FFFF2000000000
FFFF2000000000
FFFF2000000000
FFFF2000000000
FFFF2000000000
FFFF2000000000
FFFF2000000000
FFFF2000000000
FFFFFFFFFFFF40
FFFFFFFFFFFF40
FFFFFFFFFFFF40
ENDCHAR
STARTCHAR lcaron
ENCODING 318
SWIDTH 600 0
DWIDTH 17 0
BBX 15 23 1 0
BITMAP
00000000009FFF10
00000000008FFF10
00000000008FFF10
9FFFFFFFD08FFE00
9FFFFFFFD07FFC00
9FFFFFFFD07FFA00
00004FFFD07FF800
00004FFFD06FF600
00004FFFD0000000
00004FFFD0000000
00004FFFD0000000
00004FFFD0000000
00004FFFD0000000
00004FFFD0000000
00004FFFD0000000
00004FFFD0000000
00004FFFD0000000
00003FFFD0000000
00002FFFF1000000
00000DFFFA103200
000007FFFFFFF900
000000BFFFFFFE00
00000007CEFEB810
ENDCHAR
STARTCHAR Ldot
ENCODING 319
SWIDTH 600 0
DWIDTH 17 0
BBX 13 18 3 0
BITMAP
FFFF2000000000
FFFF2000000000
FFFF2000000000
FFFF2000000000
FFFF2000000000
FFFF2000000000
FFFF20005DEB20
FFFF2003FFFFC0
FFFF2006FFFFF0
FFFF2003FFFFC0
FFFF20006DEB20
FFFF2000000000
FFFF2000000000
FFFF2000000000
FFFF2000000000
FFFFFFFFFFFF40
FFFFFFFFFFFF40
FFFFFFFFFFFF40
ENDCHAR
STARTCHAR ldot
ENCODING 320
SWIDTH 600 0
DWIDTH 17 0
BBX 19 20 0 0
BITMAP
FFFFFFFF800000000000
FFFFFFFF800000000000
FFFFFFFF800000000000
00009FFF800000000000
00009FFF800000000000
00009FFF800000000000
00009FFF800000000000
00009FFF800000000000
00009FFF800003CEC400
00009FFF80000EFFFE10
00009FFF80002FFFFF30
00009FFF80001EFFFE10
00009FFF800004CEC400
00009FFF800000000000
00009FFF800000000000
00007FFFA00000000000
00004FFFF51150000000
00000DFFFFFFF4000000
000003EFFFFFF9000000
00000029DFFDA5000000
ENDCHAR
STARTCHAR Lslash
ENCODING 321
SWIDTH 600 0
DWIDTH 17 0
BBX 16 18 0 0
BITMAP
000FFFF200000000
000FFFF200000000
000FFFF200000000
000FFFF200000000
000FFFF200011000
000FFFF2007EA000
000FFFF25DFFF300
000FFFFCFFFFB200
000FFFFFFFC40000
029FFFFFD6000000
8EFFFFF810000000
CFFFFFF200000000
4F8FFFF200000000
020FFFF200000000
000FFFF200000000
000FFFFFFFFFFFF4
000FFFFFFFFFFFF4
000FFFFFFFFFFFF4
ENDCHAR
STARTCHAR lslash
ENCODING 322
SWIDTH 600 0
DWIDTH 17 0
BBX 15 20 1 0
BITMAP
9FFFFFFFD0000000
9FFFFFFFD0000000
9FFFFFFFD0000000
00004FFFD0000000
00004FFFD0001000
00004FFFD03BA000
00004FFFE9FFF300
00004FFFFFFFE600
00008FFFFFFA2000
005DFFFFFB300000
0BFFFFFFE0000000
07FFEFFFD0000000
01D74FFFD0000000
00004FFFD0000000
00003FFFD0000000
00002FFFF1000000
00000DFFFA103200
000007FFFFFFF900
000000BFFFFFFE00
00000007CEFEB810
ENDCHAR
STARTCHAR Nacute
ENCODING 323
SWIDTH 600 0
DWIDTH 17 0
BBX 14 25 1 0
BITMAP
000000002B2000
00000004EFC100
0000007FFFF800
000009FFFF7000
00000AFFC30000
000000B7000000
00000000000000
2FFFF40000FFFE
2FFFFB0000FFFE
2FFFFF2000FFFE
2FFFFF9000FFFE
2FFFFFE100FFFE
2FFFCFF600FFFE
2FFF7FFD00FFFE
2FFF7BFF40EFFE
2FFF95FFB0DFFE
2FFFA0DFF2CFFE
2FFFB07FF8AFFE
2FFFC01FFE9FFE
2FFFC009FFCFFE
2FFFC003FFFFFE
2FFFC000CFFFFE
2FFFC0005FFFFE
2FFFC0000EFFFE
2FFFC00007FFFE
ENDCHAR
STARTCHAR nacute
ENCODING 324
SWIDTH 600 0
DWIDTH 17 0
BBX 14 23 2 0
BITMAP
00000000870000
00000005FF7000
0000004FFFF600
000002EFFFB100
00001DFFF90000
00001CFF700000
000001B4000000
00000000000000
00000000000000
FFF7029DFEA200
FFF97FFFFFFE10
FFFFFFFFFFFF90
FFFFF911AFFFD0
FFFF90002FFFF1
FFFF20000FFFF2
FFFF20000FFFF2
FFFF20000FFFF2
FFFF20000FFFF2
FFFF20000FFFF2
FFFF20000FFFF2
FFFF20000FFFF2
FFFF20000FFFF2
FFFF20000FFFF2
ENDCHAR
STARTCHAR uni0145
ENCODING 325
SWIDTH 600 0
DWIDTH 17 0
BBX 14 25 1 -7
BITMAP
2FFFF40000FFFE
2FFFFB0000FFFE
2FFFFF2000FFFE
2FFFFF9000FFFE
2FFFFFE100FFFE
2FFFCFF600FFFE
2FFF7FFD00FFFE
2FFF7BFF40EFFE
2FFF95FFB0DFFE
2FFFA0DFF2CFFE
2FFFB07FF8AFFE
2FFFC01FFE9FFE
2FFFC009FFCFFE
2FFFC003FFFFFE
2FFFC000CFFFFE
2FFFC0005FFFFE
2FFFC0000EFFFE
2FFFC00007FFFE
00000000000000
000001EC710000
000007FFFA0000
0000004FFF0000
0000026FFE0000
0000AFFFF60000
00008EC8300000
ENDCHAR
STARTCHAR uni0146
ENCODING 326
SWIDTH 600 0
DWIDTH 17 0
BBX 14 21 2 -7
BITMAP
FFF7029DFEA200
FFF97FFFFFFE10
FFFFFFFFFFFF90
FFFFF911AFFFD0
FFFF90002FFFF1
FFFF20000FFFF2
FFFF20000FFFF2
FFFF20000FFFF2
FFFF20000FFFF2
FFFF20000FFFF2
FFFF20000FFFF2
FFFF20000FFFF2
FFFF20000FFFF2
FFFF20000FFFF2
00000000000000
00000DC8200000
00004FFFD00000
000003DFF30000
000014EFF20000
0007FFFF800000
0005EC94000000
ENDCHAR
STARTCHAR Ncaron
ENCODING 327
SWIDTH 600 0
DWIDTH 17 0
BBX 14 24 1 0
BITMAP
0004C60002C700
000AFF915EFE20
0001CFFEFFF400
00002DFFFF5000
00000000000000
00000000000000
2FFFF40000FFFE
2FFFFB0000FFFE
2FFFFF2000FFFE
2FFFFF9000FFFE
2FFFFFE100FFFE
2FFFCFF600FFFE
2FFF7FFD00FFFE
2FFF7BFF40EFFE
2FFF95FFB0DFFE
2FFFA0DFF2CFFE
2FFFB07FF8AFFE
2FFFC01FFE9FFE
2FFFC009FFCFFE
2FFFC003FFFFFE
2FFFC000CFFFFE
2FFFC0005FFFFE
2FFFC0000EFFFE
2FFFC00007FFFE
ENDCHAR
STARTCHAR ncaron
ENCODING 328
SWIDTH 600 0
DWIDTH 17 0
BBX 14 21 2 0
BITMAP
005C200006C200
01FFE601AFFB00
006FFFBDFFE200
0008FFFFFF3000
0000AFFFF50000
00000000000000
00000000000000
FFF7029DFEA200
FFF97FFFFFFE10
FFFFFFFFFFFF90
FFFFF911AFFFD0
FFFF90002FFFF1
FFFF20000FFFF2
FFFF20000FFFF2
FFFF20000FFFF2
FFFF20000FFFF2
FFFF20000FFFF2
FFFF20000FFFF2
FFFF20000FFFF2
FFFF20000FFFF2
FFFF20000FFFF2
ENDCHAR
STARTCHAR napostrophe
ENCODING 329
SWIDTH 600 0
DWIDTH 17 0
BBX 20 19 -2 0
BITMAP
04CFC400000000000000
1EFFFE10000000000000
4FFFFF70000000000000
2FFFFF90000000000000
05DFFFA0000000000000
0005FF80EFF704BEEB30
000AFF40EFF97FFFFFE2
006FFC00EFFFFFFFFFF8
1AFFE300EFFFF619FFFC
1EFE4000EFFF8003FFFF
06910000EFFF2001FFFF
00000000EFFF2001FFFF
00000000EFFF2001FFFF
00000000EFFF2001FFFF
00000000EFFF2001FFFF
00000000EFFF2001FFFF
00000000EFFF2001FFFF
00000000EFFF2001FFFF
00000000EFFF2001FFFF
ENDCHAR
STARTCHAR Eng
ENCODING 330
SWIDTH 600 0
DWIDTH 17 0
BBX 15 18 1 0
BITMAP
3FFFC05CEEB40000
3FFFDAFFFFFF7000
3FFFFFFFFFFFF300
3FFFFF713DFFFA00
3FFFF50005FFFF10
3FFFF00000EFFF40
3FFFF00000CFFF60
3FFFF00000BFFF70
3FFFF00000AFFF80
3FFFF00000AFFF80
3FFFF00000AFFF80
3FFFF00000BFFF60
3FFFF00000DFFF50
3FFFF00001FFFF20
3FFFF00117FFFD00
3FFFF008FFFFF600
3FFFF00DFFFFB000
3FFFF01CEEC70000
ENDCHAR
STARTCHAR eng
ENCODING 331
SWIDTH 600 0
DWIDTH 17 0
BBX 14 20 2 -6
BITMAP
FFF7029DFE9200
FFF97FFFFFFD10
FFFFFFFFFFFF80
FFFFF912BFFFD0
FFFF90003FFFF1
FFFF20001FFFF2
FFFF20000FFFF2
FFFF20000FFFF2
FFFF20000FFFF2
FFFF20000FFFF2
FFFF20000FFFF2
FFFF20000FFFF2
FFFF20000FFFF2
FFFF20000FFFF2
000000000FFFF2
000000001FFFF0
000000117FFFC0
0000008FFFFF70
000000CFFFFC10
000000CEFD8100
ENDCHAR
STARTCHAR Omacron
ENCODING 332
SWIDTH 600 0
DWIDTH 17 0
BBX 15 23 1 0
BITMAP
000CFFFFFFF90000
000CFFFFFFF90000
000CFFFFFFF90000
0000000000000000
0000000000000000
00006BEFDA500000
003DFFFFFFFB1000
02EFFFFFFFFFC000
0BFFFD315EFFF800
2FFFF30006FFFE00
8FFFB00000EFFF40
BFFF700000AFFF80
DFFF5000008FFFA0
EFFF5000008FFFB0
EFFF5000008FFFA0
DFFF6000008FFFA0
BFFF800000BFFF70
7FFFB00000EFFF40
2FFFF30006FFFE00
0AFFFD315EFFF700
01EFFFFFFFFFC000
002DFFFFFFFB1000
00006BEFDA500000
ENDCHAR
STARTCHAR omacron
ENCODING 333
SWIDTH 600 0
DWIDTH 17 0
BBX 15 19 1 0
BITMAP
000BFFFFFFF80000
000BFFFFFFF80000
000BFFFFFFF80000
0000000000000000
0000000000000000
00006BEFDA500000
003DFFFFFFFB2000
03EFFFFFFFFFD100
0CFFFB204DFFF900
4FFFF10004FFFF10
8FFFB00000EFFF50
AFFF900000CFFF70
AFFF900000CFFF70
8FFFB00000EFFF50
4FFFF10004FFFF10
0CFFFB204DFFF900
03EFFFFFFFFFD100
003DFFFFFFFB2000
00006BEFDA500000
ENDCHAR
STARTCHAR Obreve
ENCODING 334
SWIDTH 600 0
DWIDTH 17 0
BBX 15 24 1 0
BITMAP
001BE40007D90000
000DFD314EFA0000
0005FFFFFFE20000
00004BDFDA200000
0000000000000000
0000000000000000
00006BEFDA500000
003DFFFFFFFB1000
02EFFFFFFFFFC000
0BFFFD315EFFF800
2FFFF30006FFFE00
8FFFB00000EFFF40
BFFF700000AFFF80
DFFF5000008FFFA0
EFFF5000008FFFB0
EFFF5000008FFFA0
DFFF6000008FFFA0
BFFF800000BFFF70
7FFFB00000EFFF40
2FFFF30006FFFE00
0AFFFD315EFFF700
01EFFFFFFFFFC000
002DFFFFFFFB1000
00006BEFDA500000
ENDCHAR
STARTCHAR obreve
ENCODING 335
SWIDTH 600 0
DWIDTH 17 0
BBX 15 22 1 0
BITMAP
0002500002420000
004FF40008FF1000
001FFD315EFE0000
000CFFFFFFF90000
0003EFFFFFD10000
00002AEFD9100000
0000000000000000
0000000000000000
00006BEFDA500000
003DFFFFFFFB2000
03EFFFFFFFFFD100
0CFFFB204DFFF900
4FFFF10004FFFF10
8FFFB00000EFFF50
AFFF900000CFFF70
AFFF900000CFFF70
8FFFB00000EFFF50
4FFFF10004FFFF10
0CFFFB204DFFF900
03EFFFFFFFFFD100
003DFFFFFFFB2000
00006BEFDA500000
ENDCHAR
STARTCHAR Ohungarumlaut
ENCODING 336
SWIDTH 600 0
DWIDTH 17 0
BBX 15 25 1 0
BITMAP
000001C6000B8100
00000AFFA07FFD00
00006FFC12FFE300
0002EFD10CFE3000
00028C2017D40000
0000000000000000
0000000000000000
00006BEFDA500000
003DFFFFFFFB1000
02EFFFFFFFFFC000
0BFFFD315EFFF800
2FFFF30006FFFE00
8FFFB00000EFFF40
BFFF700000AFFF80
DFFF5000008FFFA0
EFFF5000008FFFB0
EFFF5000008FFFA0
DFFF6000008FFFA0
BFFF800000BFFF70
7FFFB00000EFFF40
2FFFF30006FFFE00
0AFFFD315EFFF700
01EFFFFFFFFFC000
002DFFFFFFFB1000
00006BEFDA500000
ENDCHAR
STARTCHAR ohungarumlaut
ENCODING 337
SWIDTH 600 0
DWIDTH 17 0
BBX 15 22 1 0
BITMAP
000001C6101C6100
000008FFA08FFB00
00001EFF21EFF200
00008FF708FF8000
0001EFD01EFD0000
00006C4006C40000
0000000000000000
0000000000000000
00006BEFDA500000
003DFFFFFFFB2000
03EFFFFFFFFFD100
0CFFFB204DFFF900
4FFFF10004FFFF10
8FFFB00000EFFF50
AFFF900000CFFF70
AFFF900000CFFF70
8FFFB00000EFFF50
4FFFF10004FFFF10
0CFFFB204DFFF900
03EFFFFFFFFFD100
003DFFFFFFFB2000
00006BEFDA500000
ENDCHAR
STARTCHAR OE
ENCODING 338
SWIDTH 600 0
DWIDTH 17 0
BBX 17 18 0 0
BITMAP
000028CEFFFFFFFF60
0007FFFFFFFFFFFF60
008FFFFFFFFFFFFF60
03FFFE51CFFE222210
0AFFF700CFFE000000
1FFFF200CFFE000000
4FFFE000CFFE000000
6FFFC000CFFFFFF400
7FFFC000CFFFFFF400
7FFFC000CFFFFFF400
6FFFC000CFFE000000
4FFFE000CFFE000000
0FFFF200CFFE000000
0AFFF800CFFE000000
03FFFF51CFFE222210
008FFFFFFFFFFFFFA0
0008FFFFFFFFFFFFA0
000039DEFFFFFFFFA0
ENDCHAR
STARTCHAR oe
ENCODING 339
SWIDTH 600 0
DWIDTH 17 0
BBX 17 14 0 0
BITMAP
0007DFC5007DEB3000
01CFFFFF48FFFFF300
09FFFFFFDFFEEFFC00
1FFFC17FFFA01EFF30
5FFF501FFF300AFF70
8FFF200CFFFFFFFF80
9FFF100BFFFFFFFF90
9FFF100BFFFFFFFF80
8FFF200CFF30000000
6FFF501FFF80000000
1FFFB17FFFE5016000
09FFFFFFEFFFEFF600
01CFFFFF58FFFFFE10
0018DFD5006CFDA300
ENDCHAR
STARTCHAR Racute
ENCODING 340
SWIDTH 600 0
DWIDTH 17 0
BBX 16 25 1 0
BITMAP
000000005A000000
00000007FF900000
000001AFFFF40000
00002CFFFE500000
00001DFFA1000000
000002C400000000
0000000000000000
1FFFFFFFEC930000
1FFFFFFFFFFF9000
1FFFFFFFFFFFF800
1FFFF1013AFFFF10
1FFFF10000DFFF50
1FFFF10000AFFF70
1FFFF10000AFFF60
1FFFF10001EFFF40
1FFFF1014CFFFE00
1FFFFFFFFFFFF600
1FFFFFFFFFFF7000
1FFFFFFFFFF70000
1FFFF107FFFE1000
1FFFF100DFFF9000
1FFFF1005FFFF300
1FFFF1000BFFFC00
1FFFF10002FFFF60
1FFFF100008FFFE2
ENDCHAR
STARTCHAR racute
ENCODING 341
SWIDTH 600 0
DWIDTH 17 0
BBX 13 23 3 0
BITMAP
00000000860000
00000006FF6000
0000004FFFF500
000003EFFFA100
00001DFFF80000
00001CFF600000
000001B4000000
00000000000000
00000000000000
BFFA0039DFEC20
BFFC08FFFFFF10
BFFD8FFFFFFB00
BFFFFFB4102300
BFFFF700000000
BFFFA000000000
BFFF5000000000
BFFF5000000000
BFFF5000000000
BFFF5000000000
BFFF5000000000
BFFF5000000000
BFFF5000000000
BFFF5000000000
ENDCHAR
STARTCHAR uni0156
ENCODING 342
SWIDTH 600 0
DWIDTH 17 0
BBX 16 25 1 -7
BITMAP
1FFFFFFFEC930000
1FFFFFFFFFFF9000
1FFFFFFFFFFFF800
1FFFF1013AFFFF10
1FFFF10000DFFF50
1FFFF10000AFFF70
1FFFF10000AFFF60
1FFFF10001EFFF40
1FFFF1014CFFFE00
1FFFFFFFFFFFF600
1FFFFFFFFFFF7000
1FFFFFFFFFF70000
1FFFF107FFFE1000
1FFFF100DFFF9000
1FFFF1005FFFF300
1FFFF1000BFFFC00
1FFFF10002FFFF60
1FFFF100008FFFE2
0000000000000000
0000008DA4000000
000000DFFF400000
00000019FF900000
0000013AFF700000
00002FFFFD100000
00000EDB61000000
ENDCHAR
STARTCHAR uni0157
ENCODING 343
SWIDTH 600 0
DWIDTH 17 0
BBX 14 21 2 -7
BITMAP
0BFFA0039DFEC2
0BFFC08FFFFFF1
0BFFD8FFFFFFB0
0BFFFFFB410230
0BFFFF70000000
0BFFFA00000000
0BFFF500000000
0BFFF500000000
0BFFF500000000
0BFFF500000000
0BFFF500000000
0BFFF500000000
0BFFF500000000
0BFFF500000000
00000000000000
01EC8100000000
06FFFC00000000
003EFF10000000
015EFF10000000
9FFFF700000000
6EC93000000000
ENDCHAR
STARTCHAR Rcaron
ENCODING 344
SWIDTH 600 0
DWIDTH 17 0
BBX 16 24 1 0
BITMAP
0006C30005C50000
001DFF708FFC0000
0002EFFEFFD10000
00004FFFFE200000
0000000000000000
0000000000000000
1FFFFFFFEC930000
1FFFFFFFFFFF9000
1FFFFFFFFFFFF800
1FFFF1013AFFFF10
1FFFF10000DFFF50
1FFFF10000AFFF70
1FFFF10000AFFF60
1FFFF10001EFFF40
1FFFF1014CFFFE00
1FFFFFFFFFFFF600
1FFFFFFFFFFF7000
1FFFFFFFFFF70000
1FFFF107FFFE1000
1FFFF100DFFF9000
1FFFF1005FFFF300
1FFFF1000BFFFC00
1FFFF10002FFFF60
1FFFF100008FFFE2
ENDCHAR
STARTCHAR rcaron
ENCODING 345
SWIDTH 600 0
DWIDTH 17 0
BBX 13 21 3 0
BITMAP
005B200006B100
02FFE501AFFA00
007FFFADFFD200
0009FFFFFE3000
0000BFFFF50000
00000000000000
00000000000000
BFFA0039DFEC20
BFFC08FFFFFF10
BFFD8FFFFFFB00
BFFFFFB4102300
BFFFF700000000
BFFFA000000000
BFFF5000000000
BFFF5000000000
BFFF5000000000
BFFF5000000000
BFFF5000000000
BFFF5000000000
BFFF5000000000
BFFF5000000000
ENDCHAR
STARTCHAR Sacute
ENCODING 346
SWIDTH 600 0
DWIDTH 17 0
BBX 15 25 1 0
BITMAP
000000001A400000
00000002DFE20000
0000004EFFFC0000
000006FFFFA10000
000006FFD5000000
0000008910000000
0000000000000000
00005ADFED940000
002CFFFFFFFFC300
01DFFFFFFFFFF700
08FFFC3014AF9000
0CFFF50000030000
0DFFF90000000000
0AFFFFC500000000
03FFFFFFD8200000
006FFFFFFFF92000
0003AFFFFFFFE300
0000028DFFFFFD00
000000006DFFFF40
0000000002FFFF60
0086000000DFFF50
07FFC62017FFFE10
4FFFFFFFFFFFF600
07EFFFFFFFFE6000
0016ADEFEB720000
ENDCHAR
STARTCHAR sacute
ENCODING 347
SWIDTH 600 0
DWIDTH 17 0
BBX 15 23 1 0
BITMAP
0000000009600000
000000007FF60000
00000005FFFF5000
0000003EFFFA1000
000002DFFF800000
000002DFF6000000
0000001B40000000
0000000000000000
0000000000000000
00017CEFEC940000
005EFFFFFFFFC400
03FFFFFFFFFFF400
08FFFB2015AF8000
09FFFB1000020000
05FFFFFD96200000
00AFFFFFFFFB4000
0005BFFFFFFFF600
00000158CFFFFE00
0071000003FFFF10
08FE942016FFFF00
3FFFFFFFFFFFF800
07EFFFFFFFFF9000
00059DEFEC930000
ENDCHAR
STARTCHAR Scircumflex
ENCODING 348
SWIDTH 600 0
DWIDTH 17 0
BBX 15 23 1 0
BITMAP
00000BFFFF900000
00009FFEFFF70000
0007FFC23DFF5000
0002B90001AA2000
0000000000000000
00005ADFED940000
002CFFFFFFFFC300
01DFFFFFFFFFF700
08FFFC3014AF9000
0CFFF50000030000
0DFFF90000000000
0AFFFFC500000000
03FFFFFFD8200000
006FFFFFFFF92000
0003AFFFFFFFE300
0000028DFFFFFD00
000000006DFFFF40
0000000002FFFF60
0086000000DFFF50
07FFC62017FFFE10
4FFFFFFFFFFFF600
07EFFFFFFFFE6000
0016ADEFEB720000
ENDCHAR
STARTCHAR scircumflex
ENCODING 349
SWIDTH 600 0
DWIDTH 17 0
BBX 15 21 1 0
BITMAP
00000BFFFF400000
00009FFFFFE30000
0007FFFAEFFD1000
002FFE501BFFA000
0006B200006B1000
0000000000000000
0000000000000000
00017CEFEC940000
005EFFFFFFFFC400
03FFFFFFFFFFF400
08FFFB2015AF8000
09FFFB1000020000
05FFFFFD96200000
00AFFFFFFFFB4000
0005BFFFFFFFF600
00000158CFFFFE00
0071000003FFFF10
08FE942016FFFF00
3FFFFFFFFFFFF800
07EFFFFFFFFF9000
00059DEFEC930000
ENDCHAR
STARTCHAR uni015E
ENCODING 350
SWIDTH 600 0
DWIDTH 17 0
BBX 15 25 1 -7
BITMAP
00005ADFED940000
002CFFFFFFFFC300
01DFFFFFFFFFF700
08FFFC3014AF9000
0CFFF50000030000
0DFFF90000000000
0AFFFFC500000000
03FFFFFFD8200000
006FFFFFFFF92000
0003AFFFFFFFE300
0000028DFFFFFD00
000000006DFFFF40
0000000002FFFF60
0086000000DFFF50
07FFC62017FFFE10
4FFFFFFFFFFFF600
07EFFFFFFFFE6000
0016ADEFEB720000
000000BFB0000000
000003FF40000000
00000AFFD5000000
0000014EFF100000
0000014EFF200000
00008FFFFA000000
00006EDA50000000
ENDCHAR
STARTCHAR uni015F
ENCODING 351
SWIDTH 600 0
DWIDTH 17 0
BBX 15 21 1 -7
BITMAP
00017CEFEC940000
005EFFFFFFFFC400
03FFFFFFFFFFF400
08FFFB2015AF8000
09FFFB1000020000
05FFFFFD96200000
00AFFFFFFFFB4000
0005BFFFFFFFF600
00000158CFFFFE00
0071000003FFFF10
08FE942016FFFF00
3FFFFFFFFFFFF800
07EFFFFFFFFF9000
00059DEFEC930000
0000008FD0000000
000001EF70000000
000007FFE7000000
0000013CFF400000
0000013CFF500000
00006FFFFC000000
00003EDA60000000
ENDCHAR
STARTCHAR Scaron
ENCODING 352
SWIDTH 600 0
DWIDTH 17 0
BBX 15 24 1 0
BITMAP
0002B90001AA1000
0007FFC23DFF5000
00009FFEFFF70000
00000BFFFF900000
0000000000000000
0000000000000000
00005ADFED940000
002CFFFFFFFFC300
01DFFFFFFFFFF700
08FFFC3014AF9000
0CFFF50000030000
0DFFF90000000000
0AFFFFC500000000
03FFFFFFD8200000
006FFFFFFFF92000
0003AFFFFFFFE300
0000028DFFFFFD00
000000006DFFFF40
0000000002FFFF60
0086000000DFFF50
07FFC62017FFFE10
4FFFFFFFFFFFF600
07EFFFFFFFFE6000
0016ADEFEB720000
ENDCHAR
STARTCHAR scaron
ENCODING 353
SWIDTH 600 0
DWIDTH 17 0
BBX 15 21 1 0
BITMAP
0006B200006B1000
002FFE501BFFA000
0007FFFAEFFD1000
00009FFFFFE30000
00000BFFFF400000
0000000000000000
0000000000000000
00017CEFEC940000
005EFFFFFFFFC400
03FFFFFFFFFFF400
08FFFB2015AF8000
09FFFB1000020000
05FFFFFD96200000
00AFFFFFFFFB4000
0005BFFFFFFFF600
00000158CFFFFE00
0071000003FFFF10
08FE942016FFFF00
3FFFFFFFFFFFF800
07EFFFFFFFFF9000
00059DEFEC930000
ENDCHAR
STARTCHAR uni0162
ENCODING 354
SWIDTH 600 0
DWIDTH 17 0
BBX 16 25 0 -7
BITMAP
2FFFFFFFFFFFFFFE
2FFFFFFFFFFFFFFE
2FFFFFFFFFFFFFFE
000000AFFF700000
000000AFFF700000
000000AFFF700000
000000AFFF700000
000000AFFF700000
000000AFFF700000
000000AFFF700000
000000AFFF700000
000000AFFF700000
000000AFFF700000
000000AFFF700000
000000AFFF700000
000000AFFF700000
000000AFFF700000
000000AFFF700000
0000000DF8000000
0000005FF2000000
000000CFFC400000
00000015FFE00000
00000015FFF00000
00000AFFFF800000
000008EC94000000
ENDCHAR
STARTCHAR uni0163
ENCODING 355
SWIDTH 600 0
DWIDTH 17 0
BBX 15 25 1 -7
BITMAP
00007FFF00000000
00009FFF00000000
0000BFFF00000000
0000DFFF00000000
8DEFFFFFFFFFFD00
9FFFFFFFFFFFFD00
9FFFFFFFFFFFFD00
0002FFFF00000000
0002FFFF00000000
0002FFFF00000000
0002FFFF00000000
0002FFFF00000000
0001FFFF10000000
0000FFFF40000000
0000CFFFD4113500
00005FFFFFFFFE00
000008FFFFFFFF30
0000004ADFFEB820
00000000CFA00000
00000004FF400000
0000000BFFD50000
000000015EFF1000
000000014EFF1000
0000009FFFF90000
0000007EDA500000
ENDCHAR
STARTCHAR Tcaron
ENCODING 356
SWIDTH 600 0
DWIDTH 17 0
BBX 16 24 0 0
BITMAP
00007C30005C5000
0001DFF609FFB000
00003EFFEFFD1000
000004FFFFE20000
0000000000000000
0000000000000000
2FFFFFFFFFFFFFFE
2FFFFFFFFFFFFFFE
2FFFFFFFFFFFFFFE
000000AFFF700000
000000AFFF700000
000000AFFF700000
000000AFFF700000
000000AFFF700000
000000AFFF700000
000000AFFF700000
000000AFFF700000
000000AFFF700000
000000AFFF700000
000000AFFF700000
000000AFFF700000
000000AFFF700000
000000AFFF700000
000000AFFF700000
ENDCHAR
STARTCHAR tcaron
ENCODING 357
SWIDTH 600 0
DWIDTH 17 0
BBX 15 23 1 0
BITMAP
0000000006FFF400
0000000006FFF300
0000000006FFF300
0000000005FFF200
0000000005FFF000
00007FFF05FFD000
00009FFF04FFB000
0000BFFF04FF9000
0000DFFF00000000
8DEFFFFFFFFFFD00
9FFFFFFFFFFFFD00
9FFFFFFFFFFFFD00
0002FFFF00000000
0002FFFF00000000
0002FFFF00000000
0002FFFF00000000
0002FFFF00000000
0001FFFF10000000
0000FFFF40000000
0000CFFFD4113500
00005FFFFFFFFE00
000008FFFFFFFF30
0000004ADFFEB820
ENDCHAR
STARTCHAR Tbar
ENCODING 358
SWIDTH 600 0
DWIDTH 17 0
BBX 16 18 0 0
BITMAP
2FFFFFFFFFFFFFFE
2FFFFFFFFFFFFFFE
2FFFFFFFFFFFFFFE
000000AFFF700000
000000AFFF700000
000000AFFF700000
000000AFFF700000
005DEFFFFFFFFF30
006FFFFFFFFFFF30
006FFFFFFFFFFF30
000000AFFF700000
000000AFFF700000
000000AFFF700000
000000AFFF700000
000000AFFF700000
000000AFFF700000
000000AFFF700000
000000AFFF700000
ENDCHAR
STARTCHAR tbar
ENCODING 359
SWIDTH 600 0
DWIDTH 17 0
BBX 15 19 1 0
BITMAP
0000244400000000
00008FFF00000000
00009FFF00000000
0000BFFF00000000
0000DFFF00000000
8DEFFFFFFFFFFD00
9FFFFFFFFFFFFD00
9FFFFFFFFFFFFD00
0002FFFF00000000
0002FFFF00000000
7DEFFFFFFFFFF500
9FFFFFFFFFFFF500
9FFFFFFFFFFFF500
0002FFFF00000000
0001FFFF30000000
0000DFFFC3113500
00006FFFFFFFFE00
00000AFFFFFFFF30
0000005ADFFEB820
ENDCHAR
STARTCHAR Utilde
ENCODING 360
SWIDTH 600 0
DWIDTH 17 0
BBX 14 24 1 0
BITMAP
0006DFB3008A80
005FFFFF62EFC0
00CFFFFFFFFF90
01FFD18FFFFF20
019A6005DFC400
00000000000000
3FFFE00000FFFF
3FFFE00000FFFF
3FFFE00000FFFF
3FFFE00000FFFF
3FFFE00000FFFF
3FFFE00000FFFF
3FFFE00000FFFF
3FFFE00000FFFF
3FFFE00000FFFF
3FFFE00000FFFF
3FFFE00000FFFF
3FFFE00000FFFF
1FFFF00001FFFD
0DFFF40005FFFB
08FFFC314DFFF6
02EFFFFFFFFFC0
004EFFFFFFFD20
00018CEFEB7100
ENDCHAR
STARTCHAR utilde
ENCODING 361
SWIDTH 600 0
DWIDTH 17 0
BBX 14 21 1 0
BITMAP
0005CEA200A950
004FFFFE45FF80
00AFFFFFFFFF50
00EFD29FFFFD10
009A7005DFB200
00000000000000
00000000000000
4FFFD00006FFFB
4FFFD00006FFFB
4FFFD00006FFFB
4FFFD00006FFFB
4FFFD00006FFFB
4FFFD00006FFFB
4FFFD00006FFFB
4FFFD00006FFFB
4FFFD00007FFFB
3FFFF0001DFFFB
1FFFF812BFFFFB
0BFFFFFFFEFFFB
03FFFFFFD3DFFB
003BEFD810BFFB
ENDCHAR
STARTCHAR Umacron
ENCODING 362
SWIDTH 600 0
DWIDTH 17 0
BBX 14 23 1 0
BITMAP
000CFFFFFFF900
000CFFFFFFF900
000CFFFFFFF900
00000000000000
00000000000000
3FFFE00000FFFF
3FFFE00000FFFF
3FFFE00000FFFF
3FFFE00000FFFF
3FFFE00000FFFF
3FFFE00000FFFF
3FFFE00000FFFF
3FFFE00000FFFF
3FFFE00000FFFF
3FFFE00000FFFF
3FFFE00000FFFF
3FFFE00000FFFF
1FFFF00001FFFD
0DFFF40005FFFB
08FFFC314DFFF6
02EFFFFFFFFFC0
004EFFFFFFFD20
00018CEFEB7100
ENDCHAR
STARTCHAR umacron
ENCODING 363
SWIDTH 600 0
DWIDTH 17 0
BBX 14 19 1 0
BITMAP
000CFFFFFFF700
000CFFFFFFF700
000CFFFFFFF700
00000000000000
00000000000000
4FFFD00006FFFB
4FFFD00006FFFB
4FFFD00006FFFB
4FFFD00006FFFB
4FFFD00006FFFB
4FFFD00006FFFB
4FFFD00006FFFB
4FFFD00006FFFB
4FFFD00007FFFB
3FFFF0001DFFFB
1FFFF812BFFFFB
0BFFFFFFFEFFFB
03FFFFFFD3DFFB
003BEFD810BFFB
ENDCHAR
STARTCHAR Ubreve
ENCODING 364
SWIDTH 600 0
DWIDTH 17 0
BBX 14 24 1 0
BITMAP
001BE40007D900
000DFD314EFA00
0005FFFFFFE200
00004BDFDA2000
00000000000000
00000000000000
3FFFE00000FFFF
3FFFE00000FFFF
3FFFE00000FFFF
3FFFE00000FFFF
3FFFE00000FFFF
3FFFE00000FFFF
3FFFE00000FFFF
3FFFE00000FFFF
3FFFE00000FFFF
3FFFE00000FFFF
3FFFE00000FFFF
3FFFE00000FFFF
1FFFF00001FFFD
0DFFF40005FFFB
08FFFC314DFFF6
02EFFFFFFFFFC0
004EFFFFFFFD20
00018CEFEB7100
ENDCHAR
STARTCHAR ubreve
ENCODING 365
SWIDTH 600 0
DWIDTH 17 0
BBX 14 22 1 0
BITMAP
00025000024100
005FF30009FF00
002FFC315FFD00
000DFFFFFFF700
0004FFFFFFC100
00003AEFD81000
00000000000000
00000000000000
4FFFD00006FFFB
4FFFD00006FFFB
4FFFD00006FFFB
4FFFD00006FFFB
4FFFD00006FFFB
4FFFD00006FFFB
4FFFD00006FFFB
4FFFD00006FFFB
4FFFD00007FFFB
3FFFF0001DFFFB
1FFFF812BFFFFB
0BFFFFFFFEFFFB
03FFFFFFD3DFFB
003BEFD810BFFB
ENDCHAR
STARTCHAR Uring
ENCODING 366
SWIDTH 600 0
DWIDTH 17 0
BBX 14 25 1 0
BITMAP
000006DEC40000
00006FFFFF3000
0000BF71AF8000
0000BF71AF8000
00006FFFFF3000
000007DEC40000
00000000000000
3FFFE00000FFFF
3FFFE00000FFFF
3FFFE00000FFFF
3FFFE00000FFFF
3FFFE00000FFFF
3FFFE00000FFFF
3FFFE00000FFFF
3FFFE00000FFFF
3FFFE00000FFFF
3FFFE00000FFFF
3FFFE00000FFFF
3FFFE00000FFFF
1FFFF00001FFFD
0DFFF40005FFFB
08FFFC314DFFF6
02EFFFFFFFFFC0
004EFFFFFFFD20
00018CEFEB7100
ENDCHAR
STARTCHAR uring
ENCODING 367
SWIDTH 600 0
DWIDTH 17 0
BBX 14 23 1 0
BITMAP
000019EFD60000
0000BFFFFF6000
0003FF71CFD000
0005FF208FF000
0003FF71CFD000
0000BFFFFF6000
000019EFD60000
00000000000000
00000000000000
4FFFD00006FFFB
4FFFD00006FFFB
4FFFD00006FFFB
4FFFD00006FFFB
4FFFD00006FFFB
4FFFD00006FFFB
4FFFD00006FFFB
4FFFD00006FFFB
4FFFD00007FFFB
3FFFF0001DFFFB
1FFFF812BFFFFB
0BFFFFFFFEFFFB
03FFFFFFD3DFFB
003BEFD810BFFB
ENDCHAR
STARTCHAR Uhungarumlaut
ENCODING 368
SWIDTH 600 0
DWIDTH 17 0
BBX 14 25 1 0
BITMAP
000001C6000B81
00000AFFA07FFD
00006FFC12FFE3
0002EFD10CFE30
00028C2017D400
00000000000000
00000000000000
3FFFE00000FFFF
3FFFE00000FFFF
3FFFE00000FFFF
3FFFE00000FFFF
3FFFE00000FFFF
3FFFE00000FFFF
3FFFE00000FFFF
3FFFE00000FFFF
3FFFE00000FFFF
3FFFE00000FFFF
3FFFE00000FFFF
3FFFE00000FFFF
1FFFF00001FFFD
0DFFF40005FFFB
08FFFC314DFFF6
02EFFFFFFFFFC0
004EFFFFFFFD20
00018CEFEB7100
ENDCHAR
STARTCHAR uhungarumlaut
ENCODING 369
SWIDTH 600 0
DWIDTH 17 0
BBX 14 22 1 0
BITMAP
000002C6002C60
000009FF909FF9
00002FFE22FFE2
00009FF609FF60
0002FFC02FFC00
00016C3006C300
00000000000000
00000000000000
4FFFD00006FFFB
4FFFD00006FFFB
4FFFD00006FFFB
4FFFD00006FFFB
4FFFD00006FFFB
4FFFD00006FFFB
4FFFD00006FFFB
4FFFD00006FFFB
4FFFD00007FFFB
3FFFF0001DFFFB
1FFFF812BFFFFB
0BFFFFFFFEFFFB
03FFFFFFD3DFFB
003BEFD810BFFB
ENDCHAR
STARTCHAR Uogonek
ENCODING 370
SWIDTH 600 0
DWIDTH 17 0
BBX 14 25 1 -7
BITMAP
3FFFE00000FFFF
3FFFE00000FFFF
3FFFE00000FFFF
3FFFE00000FFFF
3FFFE00000FFFF
3FFFE00000FFFF
3FFFE00000FFFF
3FFFE00000FFFF
3FFFE00000FFFF
3FFFE00000FFFF
3FFFE00000FFFF
3FFFE00000FFFE
1FFFF00001FFFD
0EFFF40005FFFA
09FFFC314DFFF5
02EFFFFFFFFFB0
004EFFFFFFFC10
00028CFFFE7000
000001CFD20000
000008FF200000
00000EFC000000
00003FFE221000
00002FFFFF7000
00000CFFFFD000
000002AEEB3000
ENDCHAR
STARTCHAR uogonek
ENCODING 371
SWIDTH 600 0
DWIDTH 17 0
BBX 15 21 1 -7
BITMAP
4FFFD00006FFFB00
4FFFD00006FFFB00
4FFFD00006FFFB00
4FFFD00006FFFB00
4FFFD00006FFFB00
4FFFD00006FFFB00
4FFFD00006FFFB00
4FFFD00006FFFB00
4FFFD00007FFFB00
3FFFF0001DFFFB00
1FFFF812BFFFFB00
0BFFFFFFFEFFFB00
03FFFFFFD3DFFB00
003BEFD810BFFA00
0000000005EE7100
000000004FF30000
00000000CFB00000
00000000FFE31200
00000000EFFFFC00
00000000AFFFFF30
0000000019DFC500
ENDCHAR
STARTCHAR Wcircumflex
ENCODING 372
SWIDTH 600 0
DWIDTH 17 0
BBX 17 23 0 0
BITMAP
000004FFFFE2000000
00003EFFEFFD100000
0001DFF609FFB00000
00007C30005C500000
000000000000000000
CFFF600000005FFF90
AFFF700000006FFF80
8FFF800000007FFF60
6FFF900000007FFF40
4FFFA00576008FFF20
2FFFB00EFF209FFF00
0FFFC03FFF50AFFD00
0DFFC07FFF90BFFB00
0BFFD0AFFFC0BFF900
09FFE0EFCFF1CFF800
07FFF2FF8FF4DFF600
05FFF5FF4FF7DFF400
03FFF8FD1FFAEFF200
01FFFCFA0DFDEFF000
00EFFFF70AFFFFD000
00CFFFF507FFFFB000
00AFFFF204FFFFA000
008FFFE001FFFF8000
ENDCHAR
STARTCHAR wcircumflex
ENCODING 373
SWIDTH 600 0
DWIDTH 17 0
BBX 17 21 0 0
BITMAP
000003EFFFD1000000
00001DFFFFFB000000
0000CFFEAFFF900000
0007FFC204DFF40000
0000A800001A800000
000000000000000000
000000000000000000
CFFF200000003FFF90
AFFF400222005FFF70
7FFF602FFF206FFF50
5FFF805FFF508FFF20
2FFFA08FFF80AFFF00
0FFFC0AFDFB0CFFD00
0DFFE0DF9FD0EFFB00
0AFFF2FF6FF1FFF800
08FFF6FF3FF5FFF600
05FFFAFD1FF9FFF400
03FFFEFB0DFDFFF100
01FFFFF80BFFFFE000
00DFFFF608FFFFC000
00BFFFF306FFFFA000
ENDCHAR
STARTCHAR Ycircumflex
ENCODING 374
SWIDTH 600 0
DWIDTH 17 0
BBX 17 23 0 0
BITMAP
000004FFFFE2000000
00003EFFEFFD100000
0001DFF609FFB00000
00007C30005C500000
000000000000000000
5FFFF2000003FFFF20
0CFFF8000009FFF900
05FFFE00001EFFF200
00CFFF50007FFF9000
005FFFC000DFFF2000
000DFFF304FFFA0000
0005FFF90BFFF20000
0000DFFE3FFFA00000
00005FFFDFFF200000
00000DFFFFFA000000
000006FFFFF3000000
000000DFFFA0000000
000000AFFF70000000
000000AFFF70000000
000000AFFF70000000
000000AFFF70000000
000000AFFF70000000
000000AFFF70000000
ENDCHAR
STARTCHAR ycircumflex
ENCODING 375
SWIDTH 600 0
DWIDTH 17 0
BBX 15 27 1 -6
BITMAP
00001DFFFE300000
0000BFFFFFD10000
0009FFFAEFFC1000
004FFD402CFF8000
0007A100008A1000
0000000000000000
0000000000000000
DFFF2000001FFFC0
7FFF8000006FFF60
1EFFD00000BFFF10
09FFF40001FFFA00
02FFFA0006FFF400
00AFFE100BFFD000
003FFF601FFF8000
000CFFB05FFF2000
0005FFF1AFFC0000
0000DFF6EFF60000
00007FFDFFE10000
00001EFFFFA00000
000008FFFF400000
000003FFFD000000
000006FFF8000000
00000DFFF2000000
0112AFFF90000000
08FFFFFE10000000
0CFFFFE300000000
0DFFD82000000000
ENDCHAR
STARTCHAR Ydieresis
ENCODING 376
SWIDTH 600 0
DWIDTH 17 0
BBX 17 24 0 0
BITMAP
0002CE9001BEB10000
000AFFF407FFF70000
000AFFF407FFF70000
0002CE9001BEB10000
000000000000000000
000000000000000000
5FFFF2000003FFFF20
0CFFF8000009FFF900
05FFFE00001EFFF200
00CFFF50007FFF9000
005FFFC000DFFF2000
000DFFF304FFFA0000
0005FFF90BFFF20000
0000DFFE3FFFA00000
00005FFFDFFF200000
00000DFFFFFA000000
000006FFFFF3000000
000000DFFFA0000000
000000AFFF70000000
000000AFFF70000000
000000AFFF70000000
000000AFFF70000000
000000AFFF70000000
000000AFFF70000000
ENDCHAR
STARTCHAR Zacute
ENCODING 377
SWIDTH 600 0
DWIDTH 17 0
BBX 15 25 1 0
BITMAP
000000001A400000
00000002DFE20000
0000004EFFFC0000
000006FFFFA10000
000006FFD5000000
0000008910000000
0000000000000000
09FFFFFFFFFFFF30
09FFFFFFFFFFFF30
09FFFFFFFFFFFD10
000000003FFFF400
00000000DFFF9000
00000008FFFD1000
0000003FFFF40000
000000CFFF900000
000008FFFD100000
00003FFFF4000000
0000CFFF90000000
0007FFFD10000000
003FFFF500000000
00CFFFA000000000
07FFFE1000000000
2FFFFFFFFFFFFF50
7FFFFFFFFFFFFF50
7FFFFFFFFFFFFF50
ENDCHAR
STARTCHAR zacute
ENCODING 378
SWIDTH 600 0
DWIDTH 17 0
BBX 15 23 1 0
BITMAP
0000000003B10000
000000002DFC1000
00000001CFFFB000
0000000AFFFE3000
0000008FFFD20000
0000008FFB100000
0000000790000000
0000000000000000
0000000000000000
03FFFFFFFFFFFE00
03FFFFFFFFFFFE00
03FFFFFFFFFFF700
00000003FFFFA000
0000001DFFFC1000
000000CFFFE20000
000009FFFF400000
00006FFFF7000000
0004FFFFA0000000
002EFFFC10000000
00CFFFE200000000
09FFFFFFFFFFFF20
1FFFFFFFFFFFFF20
1FFFFFFFFFFFFF20
ENDCHAR
STARTCHAR Zdotaccent
ENCODING 379
SWIDTH 600 0
DWIDTH 17 0
BBX 15 24 1 0
BITMAP
0000008EE7000000
000005FFFF300000
000008FFFF600000
000005FFFF300000
0000008EE7000000
0000000000000000
09FFFFFFFFFFFF30
09FFFFFFFFFFFF30
09FFFFFFFFFFFD10
000000003FFFF400
00000000DFFF9000
00000008FFFD1000
0000003FFFF40000
000000CFFF900000
000008FFFD100000
00003FFFF4000000
0000CFFF90000000
0007FFFD10000000
003FFFF500000000
00CFFFA000000000
07FFFE1000000000
2FFFFFFFFFFFFF50
7FFFFFFFFFFFFF50
7FFFFFFFFFFFFF50
ENDCHAR
STARTCHAR zdotaccent
ENCODING 380
SWIDTH 600 0
DWIDTH 17 0
BBX 15 21 1 0
BITMAP
0000007DEA100000
000004FFFFA00000
000008FFFFD00000
000005FFFFA00000
0000007DEA200000
0000000000000000
0000000000000000
03FFFFFFFFFFFE00
03FFFFFFFFFFFE00
03FFFFFFFFFFF700
00000003FFFFA000
0000001DFFFC1000
000000CFFFE20000
000009FFFF400000
00006FFFF7000000
0004FFFFA0000000
002EFFFC10000000
00CFFFE200000000
09FFFFFFFFFFFF20
1FFFFFFFFFFFFF20
1FFFFFFFFFFFFF20
ENDCHAR
STARTCHAR Zcaron
ENCODING 381
SWIDTH 600 0
DWIDTH 17 0
BBX 15 24 1 0
BITMAP
0002B90001AA1000
0007FFC23DFF5000
00009FFEFFF70000
00000BFFFF900000
0000000000000000
0000000000000000
09FFFFFFFFFFFF30
09FFFFFFFFFFFF30
09FFFFFFFFFFFD10
000000003FFFF400
00000000DFFF9000
00000008FFFD1000
0000003FFFF40000
000000CFFF900000
000008FFFD100000
00003FFFF4000000
0000CFFF90000000
0007FFFD10000000
003FFFF500000000
00CFFFA000000000
07FFFE1000000000
2FFFFFFFFFFFFF50
7FFFFFFFFFFFFF50
7FFFFFFFFFFFFF50
ENDCHAR
STARTCHAR zcaron
ENCODING 382
SWIDTH 600 0
DWIDTH 17 0
BBX 15 21 1 0
BITMAP
0002C600002C5000
000BFFA106EFF100
0002EFFDBFFF6000
00003FFFFFF80000
000005FFFFA00000
0000000000000000
0000000000000000
03FFFFFFFFFFFE00
03FFFFFFFFFFFE00
03FFFFFFFFFFF700
00000003FFFFA000
0000001DFFFC1000
000000CFFFE20000
000009FFFF400000
00006FFFF7000000
0004FFFFA0000000
002EFFFC10000000
00CFFFE200000000
09FFFFFFFFFFFF20
1FFFFFFFFFFFFF20
1FFFFFFFFFFFFF20
ENDCHAR
STARTCHAR longs
ENCODING 383
SWIDTH 600 0
DWIDTH 17 0
BBX 15 20 2 0
BITMAP
00000028CEFDB820
000005FFFFFFFF20
00003FFFFFFFFD00
0000AFFFC3113500
0000EFFF40000000
0000FFFF10000000
9DEFFFFF10000000
BFFFFFFF10000000
BFFFFFFF10000000
0000FFFF10000000
0000FFFF10000000
0000FFFF10000000
0000FFFF10000000
0000FFFF10000000
0000FFFF10000000
0000FFFF10000000
0000FFFF10000000
0000FFFF10000000
0000FFFF10000000
0000FFFF10000000
ENDCHAR
STARTCHAR uni0180
ENCODING 384
SWIDTH 600 0
DWIDTH 17 0
BBX 16 20 0 0
BITMAP
00FFFF2000000000
00FFFF2000000000
AEFFFFFFFFF40000
CFFFFFFFFFF40000
CFFFFFFFFFF40000
00FFFF1000000000
00FFFF1000000000
00FFFF16CEEC6000
00FFFFCFFFFFFB00
00FFFFFFFFFFFF80
00FFFFE512BFFFE1
00FFFF40002FFFF4
00FFFF20000DFFF6
00FFFF20000CFFF7
00FFFF20000DFFF6
00FFFF50002FFFF2
00FFFFE514DFFFC0
00FFFFFFFFFFFF30
00FFFADFFFFFF500
00FFF518DFD92000
ENDCHAR
STARTCHAR uni018A
ENCODING 394
SWIDTH 600 0
DWIDTH 17 0
BBX 17 18 0 0
BITMAP
00039CEFEDA6000000
01AFFFFFFFFFE40000
0CFFFFFFFFFFFF5000
6FFF8CFFF27FFFE100
AFF90BFFF007FFF800
DFF50BFFF001FFFD00
DFF50BFFF000CFFF10
BFFA0BFFF000AFFF30
6FFF7BFFF0009FFF40
1CFF3BFFF0009FFF30
01B90BFFF000AFFF20
00000BFFF000BFFF10
00000BFFF000EFFC00
00000BFFF006FFF700
00000BFFF04EFFE100
00000BFFFFFFFF6000
00000BFFFFFFF60000
00000BFFFEC8200000
ENDCHAR
STARTCHAR uni018F
ENCODING 399
SWIDTH 600 0
DWIDTH 17 0
BBX 15 18 1 0
BITMAP
00028CEFDA400000
007FFFFFFFFA1000
005FFFFFFFFFB000
0009D5116EFFF600
0000100005FFFD00
0000000000DFFF30
0000000000AFFF70
00000000008FFF90
8FFFFFFFFFFFFFA0
9FFFFFFFFFFFFFA0
8FFFFFFFFFFFFF90
6FFF8000008FFF60
3FFFB00000CFFF30
0DFFF20002FFFD00
06FFFC314DFFF600
00BFFFFFFFFFB000
001BFFFFFFFA1000
00005BEFEA500000
ENDCHAR
STARTCHAR uni0192
ENCODING 402
SWIDTH 600 0
DWIDTH 17 0
BBX 15 21 1 -3
BITMAP
000000006BEFEC30
0000000BFFFFFF20
0000007FFFFFFD00
000000DFFF811200
000002FFFC000000
000005FFF9000000
002DEFFFFFFFB000
002FFFFFFFFFB000
002FFFFFFFFFB000
00000CFFF2000000
00000DFFF0000000
00000FFFE0000000
00001FFFC0000000
00003FFFA0000000
00005FFF80000000
00008FFF60000000
0000CFFF30000000
1216FFFE00000000
5FFFFFF700000000
8FFFFFB000000000
7DFEC70000000000
ENDCHAR
STARTCHAR uni0193
ENCODING 403
SWIDTH 600 0
DWIDTH 17 0
BBX 16 23 1 0
BITMAP
000000000004CFEB
00000000005FFFFB
0000000000EFFFF7
0000000003FFF711
0000000004FFF200
000016BDFEFFF400
0005EFFFFFFFFC00
006FFFFFFFFFF500
03FFFFB3017E7000
0BFFFC0000020000
3FFFF30000000000
7FFFC00000000000
AFFF900000000000
BFFF8001FFFFFF50
BFFF8001FFFFFF50
AFFF9001FFFFFF50
8FFFC000006FFF50
4FFFF200006FFF50
0DFFFA00006FFF50
05FFFFA301AFFF50
008FFFFFFFFFFF50
0006EFFFFFFFF800
000017BEFEC71000
ENDCHAR
STARTCHAR Ohorn
ENCODING 416
SWIDTH 600 0
DWIDTH 17 0
BBX 16 23 1 0
BITMAP
00000000000016C2
000000000001EFF7
000000000000DFF9
000000000000CFF8
000000000001EFF4
00006BEFDA6BFFA0
003DFFFFFFFFC500
02EFFFFFFFFFD100
0BFFFD315EFFF900
2FFFF30006FFFE10
8FFFB00000EFFF50
BFFF700000AFFF80
DFFF5000008FFFA0
EFFF5000008FFFB0
EFFF5000008FFFA0
DFFF6000008FFF90
BFFF800000BFFF70
7FFFB00000EFFF40
2FFFF30006FFFD00
0AFFFD315EFFF700
01EFFFFFFFFFC000
002DFFFFFFFB1000
00006BEFDA500000
ENDCHAR
STARTCHAR ohorn
ENCODING 417
SWIDTH 600 0
DWIDTH 17 0
BBX 16 19 1 0
BITMAP
00000000000017C1
000000000001FFF6
000000000000DFF8
000000000000EFF7
000000000004FFF2
00006BEFDA8EFF60
003DFFFFFFFFB200
03EFFFFFFFFFD100
0CFFFB204DFFF900
4FFFF10004FFFF10
8FFFB00000EFFF50
AFFF900000CFFF70
AFFF900000CFFF60
8FFFB00000EFFF50
4FFFF10004FFFF10
0CFFFB204DFFF900
03EFFFFFFFFFC100
003DFFFFFFFB1000
00006BEFDA500000
ENDCHAR
STARTCHAR Uhorn
ENCODING 431
SWIDTH 600 0
DWIDTH 17 0
BBX 18 23 1 0
BITMAP
0000000000000028C0
00000000000003FFF4
00000000000001FFF7
00000000000001FFF6
00000000000019FFF3
3FFFE00000FFFFFFA0
3FFFE00000FFFFD700
3FFFE00000FFFF0000
3FFFE00000FFFF0000
3FFFE00000FFFF0000
3FFFE00000FFFF0000
3FFFE00000FFFF0000
3FFFE00000FFFF0000
3FFFE00000FFFF0000
3FFFE00000FFFF0000
3FFFE00000FFFF0000
3FFFE00000FFFF0000
1FFFF00001FFFE0000
0DFFF40005FFFB0000
08FFFC314DFFF60000
02EFFFFFFFFFD10000
004EFFFFFFFD300000
00018CEFEC71000000
ENDCHAR
STARTCHAR uhorn
ENCODING 432
SWIDTH 600 0
DWIDTH 17 0
BBX 17 20 1 0
BITMAP
000000000000018C00
0000000000004FFF30
0000000000001FFF50
0000000000000FFF50
0000000000003FFF20
000000000003CFF900
4FFFD00006FFFF8000
4FFFD00006FFFB0000
4FFFD00006FFFB0000
4FFFD00006FFFB0000
4FFFD00006FFFB0000
4FFFD00006FFFB0000
4FFFD00006FFFB0000
4FFFD00006FFFB0000
4FFFD00007FFFB0000
3FFFF0001DFFFB0000
1FFFF812BFFFFB0000
0BFFFFFFFEFFFB0000
03FFFFFFD3DFFB0000
003BEFD810BFFB0000
ENDCHAR
STARTCHAR uni01C2
ENCODING 450
SWIDTH 600 0
DWIDTH 17 0
BBX 14 26 1 -6
BITMAP
00000AFFF70000
00000AFFF70000
00000AFFF70000
00000AFFF70000
00000AFFF70000
00000AFFF70000
00000AFFF70000
00000AFFF70000
1CDEEFFFFFFFFE
2FFFFFFFFFFFFE
2FFFFFFFFFFFFE
00000AFFF70000
00000AFFF70000
00000AFFF70000
1CDEEFFFFFFFFE
2FFFFFFFFFFFFE
2FFFFFFFFFFFFE
00000AFFF70000
00000AFFF70000
00000AFFF70000
00000AFFF70000
00000AFFF70000
00000AFFF70000
00000AFFF70000
00000AFFF70000
00000AFFF70000
ENDCHAR
STARTCHAR uni01CD
ENCODING 461
SWIDTH 600 0
DWIDTH 17 0
BBX 17 24 0 0
BITMAP
00007C30005C500000
0001DFF609FFB00000
00003EFFEFFD100000
000004FFFFE2000000
000000000000000000
000000000000000000
000003FFFFF1000000
000008FFFFF5000000
00000DFFFFFA000000
00003FFFBFFE000000
00007FFE5FFF400000
0000CFFB1FFF900000
0002FFF70DFFE00000
0007FFF409FFF30000
000BFFF005FFF80000
001FFFC002FFFD0000
006FFF8000DFFF3000
00AFFFFFFFFFFF7000
01FFFFFFFFFFFFC000
05FFFFFFFFFFFFF200
0AFFF700000CFFF700
0EFFF2000007FFFB00
4FFFD0000003FFFF10
9FFF90000000EFFF60
ENDCHAR
STARTCHAR uni01CE
ENCODING 462
SWIDTH 600 0
DWIDTH 17 0
BBX 14 21 1 0
BITMAP
0003C300004C30
000DFF7008FFD0
0004FFFCCFFE30
00006FFFFFF500
000008FFFF7000
00000000000000
00000000000000
00048CEFEC8200
05DFFFFFFFFE40
05FFFFFFFFFFE2
00CE83114DFFF8
0010000005FFFC
0000379CDFFFFE
005CFFFFFFFFFF
07FFFFFFFFFFFF
1EFFFC6312FFFF
4FFFC00002FFFF
4FFFD3026DFFFF
0EFFFFFFFFFFFF
04FFFFFFF9AFFF
003BEFD9207FFF
ENDCHAR
STARTCHAR uni01CF
ENCODING 463
SWIDTH 600 0
DWIDTH 17 0
BBX 13 24 2 0
BITMAP
007C30005C5000
01DFF609FFB000
003EFFEFFD1000
0004FFFFE20000
00000000000000
00000000000000
EFFFFFFFFFFFB0
EFFFFFFFFFFFB0
EFFFFFFFFFFFB0
0000AFFF700000
0000AFFF700000
0000AFFF700000
0000AFFF700000
0000AFFF700000
0000AFFF700000
0000AFFF700000
0000AFFF700000
0000AFFF700000
0000AFFF700000
0000AFFF700000
0000AFFF700000
EFFFFFFFFFFFB0
EFFFFFFFFFFFB0
EFFFFFFFFFFFB0
ENDCHAR
STARTCHAR uni01D0
ENCODING 464
SWIDTH 600 0
DWIDTH 17 0
BBX 13 21 2 0
BITMAP
0007B100007B10
003FFE402BFF80
0008FFFAEFFC10
0000AFFFFFE200
00001CFFFF3000
00000000000000
00000000000000
CFFFFFFFFE0000
CFFFFFFFFE0000
CFFFFFFFFE0000
000003FFFE0000
000003FFFE0000
000003FFFE0000
000003FFFE0000
000003FFFE0000
000003FFFE0000
000003FFFE0000
000003FFFE0000
000003FFFE0000
000003FFFE0000
000003FFFE0000
ENDCHAR
STARTCHAR uni01D1
ENCODING 465
SWIDTH 600 0
DWIDTH 17 0
BBX 15 24 1 0
BITMAP
0007C30005C50000
001DFF609FFB0000
0003EFFEFFD10000
00004FFFFE200000
0000000000000000
0000000000000000
00006BEFDA500000
003DFFFFFFFB1000
02EFFFFFFFFFC000
0BFFFD315EFFF800
2FFFF30006FFFE00
8FFFB00000EFFF40
BFFF700000AFFF80
DFFF5000008FFFA0
EFFF5000008FFFB0
EFFF5000008FFFA0
DFFF6000008FFFA0
BFFF800000BFFF70
7FFFB00000EFFF40
2FFFF30006FFFE00
0AFFFD315EFFF700
01EFFFFFFFFFC000
002DFFFFFFFB1000
00006BEFDA500000
ENDCHAR
STARTCHAR uni01D2
ENCODING 466
SWIDTH 600 0
DWIDTH 17 0
BBX 15 21 1 0
BITMAP
000A800001A80000
007FFC204DFF4000
000CFFEAFFF90000
0001DFFFFFB00000
00003EFFFD100000
0000000000000000
0000000000000000
00006BEFDA500000
003DFFFFFFFB2000
03EFFFFFFFFFD100
0CFFFB204DFFF900
4FFFF10004FFFF10
8FFFB00000EFFF50
AFFF900000CFFF70
AFFF900000CFFF70
8FFFB00000EFFF50
4FFFF10004FFFF10
0CFFFB204DFFF900
03EFFFFFFFFFD100
003DFFFFFFFB2000
00006BEFDA500000
ENDCHAR
STARTCHAR uni01D3
ENCODING 467
SWIDTH 600 0
DWIDTH 17 0
BBX 14 24 1 0
BITMAP
0007C30005C500
001DFF609FFB00
0003EFFEFFD100
00004FFFFE2000
00000000000000
00000000000000
3FFFE00000FFFF
3FFFE00000FFFF
3FFFE00000FFFF
3FFFE00000FFFF
3FFFE00000FFFF
3FFFE00000FFFF
3FFFE00000FFFF
3FFFE00000FFFF
3FFFE00000FFFF
3FFFE00000FFFF
3FFFE00000FFFF
3FFFE00000FFFF
1FFFF00001FFFD
0DFFF40005FFFB
08FFFC314DFFF6
02EFFFFFFFFFC0
004EFFFFFFFD20
00018CEFEB7100
ENDCHAR
STARTCHAR uni01D4
ENCODING 468
SWIDTH 600 0
DWIDTH 17 0
BBX 14 21 1 0
BITMAP
001B700001B700
008FFB204EFF30
001DFFEAFFF800
0002EFFFFFA000
00003FFFFC1000
00000000000000
00000000000000
4FFFD00006FFFB
4FFFD00006FFFB
4FFFD00006FFFB
4FFFD00006FFFB
4FFFD00006FFFB
4FFFD00006FFFB
4FFFD00006FFFB
4FFFD00006FFFB
4FFFD00007FFFB
3FFFF0001DFFFB
1FFFF812BFFFFB
0BFFFFFFFEFFFB
03FFFFFFD3DFFB
003BEFD810BFFB
ENDCHAR
STARTCHAR uni01D5
ENCODING 469
SWIDTH 600 0
DWIDTH 17 0
BBX 14 26 1 0
BITMAP
000CFFFFFFF900
000CFFFFFFF900
00000000000000
001CE8000AEA00
006FFF003FFF20
001CE8000AEA00
00000000000000
00000000000000
3FFFE00000FFFF
3FFFE00000FFFF
3FFFE00000FFFF
3FFFE00000FFFF
3FFFE00000FFFF
3FFFE00000FFFF
3FFFE00000FFFF
3FFFE00000FFFF
3FFFE00000FFFF
3FFFE00000FFFF
3FFFE00000FFFF
3FFFE00000FFFF
1FFFF00001FFFD
0DFFF40005FFFB
08FFFC314DFFF6
02EFFFFFFFFFC0
004EFFFFFFFD20
00018CEFEB7100
ENDCHAR
STARTCHAR uni01D6
ENCODING 470
SWIDTH 600 0
DWIDTH 17 0
BBX 14 23 1 0
BITMAP
000CFFFFFFF700
000CFFFFFFF700
00000000000000
00000000000000
002CE7001BE900
006FFE005FFF10
002CE7001BE900
00000000000000
00000000000000
4FFFD00006FFFB
4FFFD00006FFFB
4FFFD00006FFFB
4FFFD00006FFFB
4FFFD00006FFFB
4FFFD00006FFFB
4FFFD00006FFFB
4FFFD00006FFFB
4FFFD00007FFFB
3FFFF0001DFFFB
1FFFF812BFFFFB
0BFFFFFFFEFFFB
03FFFFFFD3DFFB
003BEFD810BFFB
ENDCHAR
STARTCHAR uni01D7
ENCODING 471
SWIDTH 600 0
DWIDTH 17 0
BBX 14 28 1 0
BITMAP
00000000B60000
00000007FFB000
0000003FFE3000
000000CFE30000
0000005C300000
001CE8000AEA00
006FFF003FFF20
001CE8000AEA00
00000000000000
00000000000000
3FFFE00000FFFF
3FFFE00000FFFF
3FFFE00000FFFF
3FFFE00000FFFF
3FFFE00000FFFF
3FFFE00000FFFF
3FFFE00000FFFF
3FFFE00000FFFF
3FFFE00000FFFF
3FFFE00000FFFF
3FFFE00000FFFF
3FFFE00000FFFF
1FFFF00001FFFD
0DFFF40005FFFB
08FFFC314DFFF6
02EFFFFFFFFFC0
004EFFFFFFFD20
00018CEFEB7100
ENDCHAR
STARTCHAR uni01D8
ENCODING 472
SWIDTH 600 0
DWIDTH 17 0
BBX 14 25 1 0
BITMAP
00000002B20000
0000000AFE1000
0000004FF80000
000000CFB00000
0000005B100000
00000000000000
002CE7001BE900
006FFE005FFF10
002CE7001BE900
00000000000000
00000000000000
4FFFD00006FFFB
4FFFD00006FFFB
4FFFD00006FFFB
4FFFD00006FFFB
4FFFD00006FFFB
4FFFD00006FFFB
4FFFD00006FFFB
4FFFD00006FFFB
4FFFD00007FFFB
3FFFF0001DFFFB
1FFFF812BFFFFB
0BFFFFFFFEFFFB
03FFFFFFD3DFFB
003BEFD810BFFB
ENDCHAR
STARTCHAR uni01D9
ENCODING 473
SWIDTH 600 0
DWIDTH 17 0
BBX 14 28 1 0
BITMAP
0003C60008B200
0009FF92BFF600
0000AFFFFF7000
00001CFFF90000
00000000000000
001CE8000AEA00
006FFF003FFF20
001CE8000AEA00
00000000000000
00000000000000
3FFFE00000FFFF
3FFFE00000FFFF
3FFFE00000FFFF
3FFFE00000FFFF
3FFFE00000FFFF
3FFFE00000FFFF
3FFFE00000FFFF
3FFFE00000FFFF
3FFFE00000FFFF
3FFFE00000FFFF
3FFFE00000FFFF
3FFFE00000FFFF
1FFFF00001FFFD
0DFFF40005FFFB
08FFFC314DFFF6
02EFFFFFFFFFC0
004EFFFFFFFD20
00018CEFEB7100
ENDCHAR
STARTCHAR uni01DA
ENCODING 474
SWIDTH 600 0
DWIDTH 17 0
BBX 14 25 1 0
BITMAP
0002C40008A000
0009FF94CFF400
0000BFFFFF6000
00000BFFF60000
00000000000000
00000000000000
002CE7001BE900
006FFE005FFF10
002CE7001BE900
00000000000000
00000000000000
4FFFD00006FFFB
4FFFD00006FFFB
4FFFD00006FFFB
4FFFD00006FFFB
4FFFD00006FFFB
4FFFD00006FFFB
4FFFD00006FFFB
4FFFD00006FFFB
4FFFD00007FFFB
3FFFF0001DFFFB
1FFFF812BFFFFB
0BFFFFFFFEFFFB
03FFFFFFD3DFFB
003BEFD810BFFB
ENDCHAR
STARTCHAR uni01DB
ENCODING 475
SWIDTH 600 0
DWIDTH 17 0
BBX 14 28 1 0
BITMAP
00001890000000
0001DFF4000000
00005FFD100000
000005FFA00000
0000005C300000
001CE8000AEA00
006FFF003FFF20
001CE8000AEA00
00000000000000
00000000000000
3FFFE00000FFFF
3FFFE00000FFFF
3FFFE00000FFFF
3FFFE00000FFFF
3FFFE00000FFFF
3FFFE00000FFFF
3FFFE00000FFFF
3FFFE00000FFFF
3FFFE00000FFFF
3FFFE00000FFFF
3FFFE00000FFFF
3FFFE00000FFFF
1FFFF00001FFFD
0DFFF40005FFFB
08FFFC314DFFF6
02EFFFFFFFFFC0
004EFFFFFFFD20
00018CEFEB7100
ENDCHAR
STARTCHAR uni01DC
ENCODING 476
SWIDTH 600 0
DWIDTH 17 0
BBX 14 25 1 0
BITMAP
000004A0000000
00006FF5000000
00001DFD000000
000002EF700000
0000004B200000
00000000000000
002CE7001BE900
006FFE005FFF10
002CE7001BE900
00000000000000
00000000000000
4FFFD00006FFFB
4FFFD00006FFFB
4FFFD00006FFFB
4FFFD00006FFFB
4FFFD00006FFFB
4FFFD00006FFFB
4FFFD00006FFFB
4FFFD00006FFFB
4FFFD00007FFFB
3FFFF0001DFFFB
1FFFF812BFFFFB
0BFFFFFFFEFFFB
03FFFFFFD3DFFB
003BEFD810BFFB
ENDCHAR
STARTCHAR uni01E2
ENCODING 482
SWIDTH 600 0
DWIDTH 17 0
BBX 17 23 0 0
BITMAP
0000004FFFFFFFF300
0000004FFFFFFFF300
0000004FFFFFFFF300
000000000000000000
000000000000000000
000002FFFFFFFFFF60
000007FFFFFFFFFF60
00000DFFFFFFFFFF60
00003FFFCFFF500000
00008FFF8FFF500000
0000DFFE5FFF500000
0003FFFA4FFF500000
0008FFF64FFFFFFA00
000DFFF14FFFFFFA00
003FFFC04FFFFFFA00
008FFF804FFF500000
00DFFFFFFFFF500000
03FFFFFFFFFF500000
08FFFFFFFFFF500000
0DFFF4004FFF500000
3FFFE0004FFFFFFFA0
9FFF90004FFFFFFFA0
EFFF40004FFFFFFFA0
ENDCHAR
STARTCHAR uni01E3
ENCODING 483
SWIDTH 600 0
DWIDTH 17 0
BBX 17 19 0 0
BITMAP
00007FFFFFFFC00000
00007FFFFFFFC00000
00007FFFFFFFC00000
000000000000000000
000000000000000000
006BEFC5019EEB3000
1DFFFFFF6DFFFFF300
09FFFFFFFFFEFFFC00
01B511CFFF901EFF30
0000005FFF100AFF70
00027BEFFFFFFFFF80
019FFFFFFFFFFFFF90
0BFFFFFFFFFFFFFF80
4FFFD54FFF10000000
7FFF301FFF60000000
8FFF615EFFE6139000
5FFFFFFFFFFFFFF700
0CFFFFFA5FFFFFFE10
019EEC5003AEFD9300
ENDCHAR
STARTCHAR Gcaron
ENCODING 486
SWIDTH 600 0
DWIDTH 17 0
BBX 15 24 1 0
BITMAP
00018C20007C4000
0003EFE41AFF9000
00004FFFEFFB0000
000006FFFFD10000
0000000000000000
0000000000000000
000016BDFEC71000
0005EFFFFFFFE600
006FFFFFFFFFF700
03FFFFB3017E8000
0BFFFC0000020000
3FFFF30000000000
7FFFC00000000000
AFFF900000000000
BFFF8001FFFFFF50
BFFF8001FFFFFF50
AFFF9001FFFFFF50
8FFFC000006FFF50
4FFFF200006FFF50
0DFFFA00006FFF50
05FFFFA301AFFF50
008FFFFFFFFFFF50
0006EFFFFFFFF800
000017BEFEC71000
ENDCHAR
STARTCHAR gcaron
ENCODING 487
SWIDTH 600 0
DWIDTH 17 0
BBX 15 27 1 -6
BITMAP
0009910001990000
006FFD303DFF6000
000AFFF9FFFB0000
0001CFFFFFC10000
00002EFFFE200000
0000000000000000
0000000000000000
00029DFFFFFFFFE0
006FFFFFFFFFFFE0
04FFFFFFFFFFFFE0
0BFFF9119FFFFFE0
0EFFF0000FFF6000
0DFFF1001FFFA000
0AFFFB55CFFF9000
03FFFFFFFFFF3000
006FFFFFFFE60000
02DFD9BB96100000
09FFA10000000000
0BFFFFFFFFEC9200
07FFFFFFFFFFFF40
00AFEEFFFFFFFFC0
08FF2000015FFFF0
5FFE0000001EFFE0
8FFF931015CFFF80
5FFFFFFFFFFFFD10
09FFFFFFFFFFA100
0049CEFEDB720000
ENDCHAR
STARTCHAR uni01EA
ENCODING 490
SWIDTH 600 0
DWIDTH 17 0
BBX 15 25 1 -7
BITMAP
00006BEFDA400000
002DFFFFFFFB1000
01EFFFFFFFFFB000
0AFFFD315EFFF700
2FFFF20005FFFE00
7FFFB00000EFFF40
BFFF700000AFFF80
DFFF5000008FFFA0
EFFF5000008FFFB0
EFFF5000008FFFB0
DFFF6000008FFFA0
AFFF700000AFFF80
7FFFB00000EFFF40
2FFFF20005FFFE00
09FFFD305EFFF600
01DFFFFFFFFFB000
002CFFFFFFFA0000
00006BEFFD500000
000001CFA0000000
000008FF10000000
00000EFC00000000
00003FFE22100000
00002FFFFF700000
00000CFFFFD00000
000002AEEB300000
ENDCHAR
STARTCHAR uni01EB
ENCODING 491
SWIDTH 600 0
DWIDTH 17 0
BBX 15 21 1 -7
BITMAP
00006BEFDA500000
003DFFFFFFFB2000
03EFFFFFFFFFD100
0CFFFB204DFFF900
4FFFF10004FFFF10
8FFFB00000EFFF50
AFFF900000CFFF70
AFFF900000CFFF70
8FFFB00000EFFF50
4FFFF20004FFFF10
0CFFFB204DFFF900
03FFFFFFFFFFC100
004EFFFFFFFA1000
00017CFFFC300000
000001DF80000000
000009FD00000000
00001EF900000000
00003FFD21200000
00002FFFFFA00000
00000CFFFFF10000
000002AEEB400000
ENDCHAR
STARTCHAR uni01F4
ENCODING 500
SWIDTH 600 0
DWIDTH 17 0
BBX 15 25 1 0
BITMAP
0000000007900000
000000009FF60000
0000001CFFFF2000
000003DFFFD30000
000003EFF8000000
0000004C30000000
0000000000000000
000016BDFEC71000
0005EFFFFFFFE600
006FFFFFFFFFF700
03FFFFB3017E8000
0BFFFC0000020000
3FFFF30000000000
7FFFC00000000000
AFFF900000000000
BFFF8001FFFFFF50
BFFF8001FFFFFF50
AFFF9001FFFFFF50
8FFFC000006FFF50
4FFFF200006FFF50
0DFFFA00006FFF50
05FFFFA301AFFF50
008FFFFFFFFFFF50
0006EFFFFFFFF800
000017BEFEC71000
ENDCHAR
STARTCHAR uni01F5
ENCODING 501
SWIDTH 600 0
DWIDTH 17 0
BBX 15 29 1 -6
BITMAP
000000000B300000
00000000AFE30000
00000008FFFE2000
0000006FFFF70000
000004FFFE500000
000003EFE3000000
0000003B20000000
0000000000000000
0000000000000000
00029DFFFFFFFFE0
006FFFFFFFFFFFE0
04FFFFFFFFFFFFE0
0BFFF9119FFFFFE0
0EFFF0000FFF6000
0DFFF1001FFFA000
0AFFFB55CFFF9000
03FFFFFFFFFF3000
006FFFFFFFE60000
02DFD9BB96100000
09FFA10000000000
0BFFFFFFFFEC9200
07FFFFFFFFFFFF40
00AFEEFFFFFFFFC0
08FF2000015FFFF0
5FFE0000001EFFE0
8FFF931015CFFF80
5FFFFFFFFFFFFD10
09FFFFFFFFFFA100
0049CEFEDB720000
ENDCHAR
STARTCHAR uni01F8
ENCODING 504
SWIDTH 600 0
DWIDTH 17 0
BBX 14 25 1 0
BITMAP
00000A60000000
00007FF8000000
0003FFFFB10000
00004DFFFD2000
0000018FFE2000
00000003C30000
00000000000000
2FFFF40000FFFE
2FFFFB0000FFFE
2FFFFF2000FFFE
2FFFFF9000FFFE
2FFFFFE100FFFE
2FFFCFF600FFFE
2FFF7FFD00FFFE
2FFF7BFF40EFFE
2FFF95FFB0DFFE
2FFFA0DFF2CFFE
2FFFB07FF8AFFE
2FFFC01FFE9FFE
2FFFC009FFCFFE
2FFFC003FFFFFE
2FFFC000CFFFFE
2FFFC0005FFFFE
2FFFC0000EFFFE
2FFFC00007FFFE
ENDCHAR
STARTCHAR uni01F9
ENCODING 505
SWIDTH 600 0
DWIDTH 17 0
BBX 14 23 2 0
BITMAP
0001B300000000
001CFD20000000
00BFFFC1000000
003EFFFA000000
0002DFFF800000
00001BFF800000
00000097000000
00000000000000
00000000000000
FFF7029DFEA200
FFF97FFFFFFE10
FFFFFFFFFFFF90
FFFFF911AFFFD0
FFFF90002FFFF1
FFFF20000FFFF2
FFFF20000FFFF2
FFFF20000FFFF2
FFFF20000FFFF2
FFFF20000FFFF2
FFFF20000FFFF2
FFFF20000FFFF2
FFFF20000FFFF2
FFFF20000FFFF2
ENDCHAR
STARTCHAR Aringacute
ENCODING 506
SWIDTH 600 0
DWIDTH 17 0
BBX 17 28 0 0
BITMAP
000000000060000000
000000001BF5000000
00000002CFFD000000
0000002DFF70000000
000002ED9EC1000000
00000AF408F7000000
00000BF81BF8000000
000007FFFFF4000000
0000007DEC50000000
000000000000000000
000003FFFFF1000000
000008FFFFF5000000
00000DFFFFFA000000
00003FFFAFFE000000
00007FFE4FFF400000
0000CFFB1FFF900000
0002FFF70DFFE00000
0007FFF409FFF30000
000BFFF005FFF80000
001FFFB002FFFD0000
006FFF8000DFFF3000
00AFFFFFFFFFFF7000
01FFFFFFFFFFFFC000
05FFFFFFFFFFFFF200
0AFFF700000CFFF700
0EFFF2000007FFFB00
4FFFD0000003FFFF10
9FFF90000000EFFF60
ENDCHAR
STARTCHAR aringacute
ENCODING 507
SWIDTH 600 0
DWIDTH 17 0
BBX 14 25 1 0
BITMAP
00000000061000
000000009FB000
0000001BFFD300
000003DFFC2000
00003FF77FE200
0000AFC00DF800
0000AFE23FF900
00004FFFFFF300
000005CEEB4000
00000000000000
00000000000000
00048CEFEC8200
05DFFFFFFFFE40
05FFFFFFFFFFE2
00CE83114DFFF8
0010000005FFFC
0000379CDFFFFE
005CFFFFFFFFFF
07FFFFFFFFFFFF
1EFFFC6312FFFF
4FFFC00002FFFF
4FFFD3026DFFFF
0EFFFFFFFFFFFF
04FFFFFFF9BFFF
003BEFD9207FFF
ENDCHAR
STARTCHAR AEacute
ENCODING 508
SWIDTH 600 0
DWIDTH 17 0
BBX 17 25 0 0
BITMAP
000000000001A40000
00000000002CFE2000
0000000004EFFFC000
000000006FFFFA1000
000000006FFE500000
000000000891000000
000000000000000000
000002FFFFFFFFFF60
000007FFFFFFFFFF60
00000DFFFFFFFFFF60
00003FFFCFFF500000
00008FFF8FFF500000
0000DFFE5FFF500000
0003FFFA4FFF500000
0008FFF64FFFFFFA00
000DFFF14FFFFFFA00
003FFFC04FFFFFFA00
008FFF804FFF500000
00DFFFFFFFFF500000
03FFFFFFFFFF500000
08FFFFFFFFFF500000
0DFFF4004FFF500000
3FFFE0004FFFFFFFA0
9FFF90004FFFFFFFA0
EFFF40004FFFFFFFA0
ENDCHAR
STARTCHAR aeacute
ENCODING 509
SWIDTH 600 0
DWIDTH 17 0
BBX 17 23 0 0
BITMAP
000000000095000000
0000000008FF500000
000000005FFFF40000
00000004FFFF900000
0000002EFFF7000000
0000002DFE50000000
00000002C300000000
000000000000000000
000000000000000000
006BEFC5019EEB3000
1DFFFFFF6DFFFFF300
09FFFFFFFFFEFFFC00
01B511CFFF901EFF30
0000005FFF100AFF70
00027BEFFFFFFFFF80
019FFFFFFFFFFFFF90
0BFFFFFFFFFFFFFF80
4FFFD54FFF10000000
7FFF301FFF60000000
8FFF615EFFE6139000
5FFFFFFFFFFFFFF700
0CFFFFFA5FFFFFFE10
019EEC5003AEFD9300
ENDCHAR
STARTCHAR Oslashacute
ENCODING 510
SWIDTH 600 0
DWIDTH 17 0
BBX 17 26 0 -1
BITMAP
0000000005A0000000
000000008FF8000000
0000001AFFFF400000
000002CFFFE5000000
000001DFF910000000
0000002C4000000000
000000000000049100
000006BEFEB51EFD10
0003DFFFFFFFEFF800
002EFFFFFFFFFFC000
00BFFFD316FFFF8000
02FFFF2001EFFFE000
08FFFB000AFFFFF500
0BFFF7006FFFFFF800
0DFFF503EFEBFFFA00
0EFFF51DFF68FFFB00
0EFFF59FFA08FFFA00
0DFFFBFFD108FFFA00
0BFFFFFF300AFFF700
07FFFFF7000EFFF400
02FFFFB0005FFFE000
00BFFFE415EFFF7000
02EFFFFFFFFFFC0000
0BFFEFFFFFFFB10000
3EFB16BEFDA5000000
02A200000000000000
ENDCHAR
STARTCHAR oslashacute
ENCODING 511
SWIDTH 600 0
DWIDTH 17 0
BBX 15 24 1 -1
BITMAP
000000001B200000
00000000BFD20000
0000000AFFFE1000
0000007FFFF60000
000005FFFE400000
000005FFD2000000
0000005B10000000
0000000000000000
0000000000004000
00006BEFEA56FA00
003DFFFFFFFFF700
03EFFFFFFFFFE100
0CFFFC216FFFF900
4FFFF200CFFFFF10
8FFFB00AFEEFFF50
AFFF908FE3CFFF70
AFFF96FF50CFFF70
8FFFDFF600EFFF50
4FFFFF8004FFFF10
0CFFFE304DFFF900
03FFFFFFFFFFD100
0AFFFFFFFFFB2000
1CE36BDFDA500000
0030000000000000
ENDCHAR
STARTCHAR uni0218
ENCODING 536
SWIDTH 600 0
DWIDTH 17 0
BBX 15 25 1 -7
BITMAP
00005ADFED940000
002CFFFFFFFFC300
01DFFFFFFFFFF700
08FFFC3014AF9000
0CFFF50000030000
0DFFF90000000000
0AFFFFC500000000
03FFFFFFD8200000
006FFFFFFFF92000
0003AFFFFFFFE300
0000028DFFFFFD00
000000006DFFFF40
0000000002FFFF60
0086000000DFFF50
07FFC62017FFFE10
4FFFFFFFFFFFF600
07EFFFFFFFFE6000
0016ADEFEB720000
0000000000000000
000001DC81000000
000006FFFC000000
0000003EFF200000
0000015EFF100000
00009FFFF7000000
00006EC930000000
ENDCHAR
STARTCHAR uni0219
ENCODING 537
SWIDTH 600 0
DWIDTH 17 0
BBX 15 21 1 -7
BITMAP
00017CEFEC940000
005EFFFFFFFFC400
03FFFFFFFFFFF400
08FFFB2015AF8000
09FFFB1000020000
05FFFFFD96200000
00AFFFFFFFFB4000
0005BFFFFFFFF600
00000158CFFFFE00
0071000003FFFF10
08FE942016FFFF00
3FFFFFFFFFFFF800
07EFFFFFFFFF9000
00059DEFEC930000
0000000000000000
000000DC82000000
000004FFFD000000
0000003DFF300000
0000014EFF200000
00007FFFF8000000
00005EC940000000
ENDCHAR
STARTCHAR uni021A
ENCODING 538
SWIDTH 600 0
DWIDTH 17 0
BBX 16 25 0 -7
BITMAP
2FFFFFFFFFFFFFFE
2FFFFFFFFFFFFFFE
2FFFFFFFFFFFFFFE
000000AFFF700000
000000AFFF700000
000000AFFF700000
000000AFFF700000
000000AFFF700000
000000AFFF700000
000000AFFF700000
000000AFFF700000
000000AFFF700000
000000AFFF700000
000000AFFF700000
000000AFFF700000
000000AFFF700000
000000AFFF700000
000000AFFF700000
0000000000000000
0000001EC7100000
0000007FFFA00000
00000004FFF00000
00000026FFE00000
00000AFFFF600000
000008EC83000000
ENDCHAR
STARTCHAR uni021B
ENCODING 539
SWIDTH 600 0
DWIDTH 17 0
BBX 15 25 1 -7
BITMAP
00007FFF00000000
00009FFF00000000
0000BFFF00000000
0000DFFF00000000
8DEFFFFFFFFFFD00
9FFFFFFFFFFFFD00
9FFFFFFFFFFFFD00
0002FFFF00000000
0002FFFF00000000
0002FFFF00000000
0002FFFF00000000
0002FFFF00000000
0001FFFF10000000
0000FFFF40000000
0000CFFFD4113500
00005FFFFFFFFE00
000008FFFFFFFF30
0000004ADFFEB820
0000000000000000
00000003EB700000
00000009FFF90000
000000015FFE0000
000000027FFC0000
000000CFFFF40000
0000009EC8200000
ENDCHAR
STARTCHAR uni0237
ENCODING 567
SWIDTH 600 0
DWIDTH 17 0
BBX 11 20 1 -6
BITMAP
0CFFFFFFFFE0
0CFFFFFFFFE0
0CFFFFFFFFE0
0000003FFFE0
0000003FFFE0
0000003FFFE0
0000003FFFE0
0000003FFFE0
0000003FFFE0
0000003FFFE0
0000003FFFE0
0000003FFFE0
0000003FFFE0
0000003FFFD0
0000004FFFD0
0000007FFFA0
074114EFFF60
2FFFFFFFFD10
9FFFFFFFD300
38CEFEC71000
ENDCHAR
STARTCHAR uni0243
ENCODING 579
SWIDTH 600 0
DWIDTH 17 0
BBX 16 18 0 0
BITMAP
00AFFFFFFEDB6100
00AFFFFFFFFFFE30
00AFFFFFFFFFFFB0
00AFFF70016FFFD0
00AFFF70027FFF70
00AFFFFFFFFFE700
00AFFFFFFFFF8200
00AFFFFFFFFFFE40
00AFFF70028FFFF2
00AFFF70000AFFF8
9EFFFFFFF706FFFB
BFFFFFFFF705FFFC
BFFFFFFFF707FFFB
00AFFF70000CFFF8
00AFFF70029FFFF3
00AFFFFFFFFFFF90
00AFFFFFFFFFF900
00AFFFFFFED93000
ENDCHAR
STARTCHAR uni0250
ENCODING 592
SWIDTH 600 0
DWIDTH 17 0
BBX 14 14 2 0
BITMAP
FFF7039DFEA300
FFFA9FFFFFFF50
FFFFFFFFFFFFE0
FFFFFA303DFFF3
FFFF70000CFFF3
FFFF2136CFFFE1
FFFFFFFFFFFF60
FFFFFFFFFFC400
EFFFFDCA730000
CFFF4000000200
8FFFD41138EC00
2EFFFFFFFFFF50
04EFFFFFFFFD50
0028CEFEC84000
ENDCHAR
STARTCHAR uni0251
ENCODING 593
SWIDTH 600 0
DWIDTH 17 0
BBX 14 14 1 0
BITMAP
0003AEFD718FFC
007FFFFFFCCFFC
05FFFFFFFFFFFC
0DFFFC316FFFFC
5FFFE10008FFFC
8FFFA00005FFFC
AFFF900005FFFC
AFFF900005FFFC
9FFFA00005FFFC
5FFFE10008FFFC
1EFFFB216FFFFC
08FFFFFFFFFFFC
00AFFFFFFBDFFC
0005BEEB50AFFC
ENDCHAR
STARTCHAR uni0252
ENCODING 594
SWIDTH 600 0
DWIDTH 17 0
BBX 14 14 2 0
BITMAP
FFF707CEEB5000
FFFBCFFFFFF900
FFFFFFFFFFFF60
FFFFE513DFFFD0
FFFF50003FFFF3
FFFF20000EFFF6
FFFF20000CFFF7
FFFF20000CFFF6
FFFF20000EFFF5
FFFF50004FFFF1
FFFFE514EFFFA0
FFFFFFFFFFFE20
FFFADFFFFFE400
FFF518DFD92000
ENDCHAR
STARTCHAR uni0253
ENCODING 595
SWIDTH 600 0
DWIDTH 17 0
BBX 14 20 2 0
BITMAP
0029DEEDA10000
05FFFFFFE00000
2EFFFFFFB00000
9FFFD412300000
DFFF5000000000
EFFF2000000000
FFFF16CEEB5000
FFFFBFFFFFF900
FFFFFFFFFFFF50
FFFFE513CFFFD0
FFFF40003FFFF2
FFFF20000DFFF5
FFFF20000CFFF6
FFFF20000CFFF5
FFFF20000EFFF4
FFFF50004FFFF1
FFFFE514EFFF90
FFFFFFFFFFFE20
FFF9DFFFFFE300
FFF518DFD91000
ENDCHAR
STARTCHAR uni0254
ENCODING 596
SWIDTH 600 0
DWIDTH 17 0
BBX 14 14 1 0
BITMAP
0049DEFDA60000
1CFFFFFFFFD400
0AFFFFFFFFFF40
01C93116EFFFE1
000000003FFFF7
0000000009FFFB
0000000005FFFD
0000000005FFFD
0000000008FFFB
002000002EFFF7
06F82016EFFFE1
2EFFFFFFFFFF40
3CFFFFFFFFD400
005ADEFDA60000
ENDCHAR
STARTCHAR uni0255
ENCODING 597
SWIDTH 600 0
DWIDTH 17 0
BBX 15 16 1 -2
BITMAP
000016ADFED93000
0005EFFFFFFFFA00
006FFFFFFFFFF900
03FFFFC4113AC000
0AFFFB0000001000
0EFFF20000000000
1FFFD0028DED9100
1FFFE07EFFFFFD10
0EFFFBFFFFFFFF60
0AFFFFFFB31AFF90
02FFFFFC103CFF70
006FFFFFFFFFFF20
00AFFFFFFFFFF600
03FFFAADEFD93000
09FFE10000000000
004A800000000000
ENDCHAR
STARTCHAR uni0256
ENCODING 598
SWIDTH 600 0
DWIDTH 17 0
BBX 17 26 1 -6
BITMAP
0000000007FFFA0000
0000000007FFFA0000
0000000007FFFA0000
0000000007FFFA0000
0000000007FFFA0000
0000000007FFFA0000
0003AEFC55FFFA0000
007FFFFFFDFFFA0000
05FFFFFFFFFFFA0000
0DFFFC317FFFFA0000
5FFFE10008FFFA0000
8FFFA00007FFFA0000
AFFF900007FFFA0000
AFFF900007FFFA0000
9FFFA00007FFFA0000
5FFFE10009FFFA0000
1EFFFB217FFFFA0000
08FFFFFFFFFFFA0000
00AFFFFFFCFFFA0000
0006BEEB45FFFA0000
0000000005FFFA0000
0000000004FFFA0000
0000000002FFFE2100
0000000000BFFFFD00
00000000003EFFFF10
000000000003AEFD30
ENDCHAR
STARTCHAR uni0257
ENCODING 599
SWIDTH 600 0
DWIDTH 17 0
BBX 17 20 1 0
BITMAP
000000000004BEFE30
00000000006FFFFF10
0000000001EFFFFC00
0000000004FFFE2000
0000000005FFFA0000
0000000006FFF90000
0003AEFC65FFF90000
007FFFFFFDFFF90000
05FFFFFFFFFFF90000
0EFFFC217FFFF90000
5FFFE10009FFF90000
8FFFA00008FFF90000
AFFF900008FFF90000
AFFF900008FFF90000
9FFFA00008FFF90000
6FFFE1000BFFF90000
1FFFFB218FFFF90000
08FFFFFFFFFFF90000
00BFFFFFF9FFF90000
0006CEEB40DFF90000
ENDCHAR
STARTCHAR uni0258
ENCODING 600
SWIDTH 600 0
DWIDTH 17 0
BBX 15 14 1 0
BITMAP
00018CEFDA400000
005EFFFFFFFA1000
04FFFFFFFFFFB000
0DFFD4114DFFF600
4FFF500002FFFD00
6FFFFFFFFFFFFF20
7FFFFFFFFFFFFF30
6FFFFFFFFFFFFF30
0000000001FFFF10
0000000008FFFC00
00B831139FFFF500
06FFFFFFFFFF9000
09FFFFFFFFF80000
0028CEFEC8200000
ENDCHAR
STARTCHAR uni0259
ENCODING 601
SWIDTH 600 0
DWIDTH 17 0
BBX 15 14 1 0
BITMAP
0016ADFED9300000
05EFFFFFFFFA1000
02EFFFFFFFFFB000
007A42128FFFF600
0000000006FFFD00
0000000000EFFF20
6FFFFFFFFFFFFF40
7FFFFFFFFFFFFF30
6FFFFFFFFFFFFF20
3FFF600001FFFC00
0DFFE5114CFFF600
05FFFFFFFFFFA000
006FFFFFFFF90000
00028DEFD9300000
ENDCHAR
STARTCHAR uni025A
ENCODING 602
SWIDTH 600 0
DWIDTH 17 0
BBX 18 14 0 0
BITMAP
028CEED93000000000
1EFFFFFFF600000000
0AFFFFFFFF46DA3000
02B4029FFFFFFF9000
0000002FFFFFFFD120
00003AFFFFFA8FFFD0
004BFFFFFFF71EFFF3
5CFFFFC9FFF703CFB2
DFFFB405FFF6000000
AFFA0008FFF3000000
6FFF514EFFD0000000
1DFFFFFFFF50000000
03EFFFFFF800000000
0029DFEA4000000000
ENDCHAR
STARTCHAR uni025B
ENCODING 603
SWIDTH 600 0
DWIDTH 17 0
BBX 14 14 2 0
BITMAP
0028BDEFEB8300
07FFFFFFFFFFA0
3FFFFFFFFFFF70
6FFFD410149C00
3FFFD310000000
05EFFFFFF50000
017FFFFFF50000
4EFFFFFFF50000
CFFF8200000000
FFFF1000000200
EFFFB31014AF30
7FFFFFFFFFFFC0
09FFFFFFFFFFA1
0038CEFFEC9300
ENDCHAR
STARTCHAR uni025C
ENCODING 604
SWIDTH 600 0
DWIDTH 17 0
BBX 15 14 1 0
BITMAP
0038CEFFEC830000
2BFFFFFFFFFF8000
1EFFFFFFFFFFF500
06F941012BFFF800
002000002AFFF500
0000CFFFFFFF9000
0000CFFFFFF92000
0000CFFFFFFFF500
0000000017FFFE00
0220000000FFFF10
0AF941013AFFFF00
4FFFFFFFFFFFF800
3BFFFFFFFFFF9000
0039CEFFEB820000
ENDCHAR
STARTCHAR uni025E
ENCODING 606
SWIDTH 600 0
DWIDTH 17 0
BBX 15 14 1 0
BITMAP
00005ADFEDA50000
003DFFFFFFFFB000
03EFFFFFFFFFF700
0CFFFD5118FFFA00
4FFFE10017FFF700
8FFF900DFFFFB100
AFFF700DFFFB3000
AFFF600DFFFFF700
8FFF800015EFFF10
4FFFD10000CFFF40
0DFFFC4116FFFF20
04FFFFFFFFFFFC00
004DFFFFFFFFC200
00016BEFFDA60000
ENDCHAR
STARTCHAR uni025F
ENCODING 607
SWIDTH 600 0
DWIDTH 17 0
BBX 15 20 1 -6
BITMAP
0CFFFFFFFFE00000
0CFFFFFFFFE00000
0CFFFFFFFFE00000
0000003FFFE00000
0000003FFFE00000
0000003FFFE00000
01CDDEFFFFFFFF90
01FFFFFFFFFFFF90
01FFFFFFFFFFFF90
0000003FFFE00000
0000003FFFE00000
0000003FFFE00000
0000003FFFE00000
0000003FFFE00000
0000004FFFD00000
0000007FFFA00000
074114EFFF600000
2FFFFFFFFD100000
9FFFFFFFD3000000
38CEFEC710000000
ENDCHAR
STARTCHAR uni0260
ENCODING 608
SWIDTH 600 0
DWIDTH 17 0
BBX 17 24 1 -6
BITMAP
000000000003AEFE40
00000000005FFFFF20
0000000001EFFFFD00
0000000003FFFE3000
00029EFC55FFFA0000
005EFFFFFCFFFA0000
03FFFFFFFFFFFA0000
0CFFFC217FFFFA0000
3FFFF20009FFFA0000
7FFFB00007FFFA0000
9FFF900007FFFA0000
9FFF900007FFFA0000
8FFFA00007FFFA0000
5FFFE10008FFFA0000
1EFFF9105EFFFA0000
07FFFFFEFFFFFA0000
00AFFFFFFDFFFA0000
0006DFFD66FFFA0000
0000011007FFF90000
000000000BFFF80000
00A942028FFFF40000
03FFFFFFFFFFB00000
07FFFFFFFFFB100000
0038CEFED940000000
ENDCHAR
STARTCHAR uni0261
ENCODING 609
SWIDTH 600 0
DWIDTH 17 0
BBX 14 20 1 -6
BITMAP
0003AEFC708FFC
006FFFFFFBCFFC
04FFFFFFFFFFFC
0DFFFD317FFFFC
4FFFF20008FFFC
8FFFB00005FFFC
AFFF800005FFFC
AFFF800005FFFC
9FFFA00005FFFC
5FFFE10006FFFC
1EFFFB216EFFFC
07FFFFFFFFFFFC
009FFFFFFDFFFC
0005BEEC62FFFC
0000000003FFFB
0000000008FFF9
00A942028FFFF4
03FFFFFFFFFFB0
09FFFFFFFFFB10
0049CEFEDA4000
ENDCHAR
STARTCHAR uni0262
ENCODING 610
SWIDTH 600 0
DWIDTH 17 0
BBX 14 14 1 0
BITMAP
000017BEFEC820
0005EFFFFFFFF7
007FFFFFFFFFF5
03FFFFB4115D80
0AFFFB00000000
1FFFF300000000
2FFFF003FFFFFD
2FFFF103FFFFFD
1FFFF303FFFFFD
0CFFFA00009FFD
06FFFF9202BFFD
00AFFFFFFFFFFD
0009FFFFFFFFF7
000039CEFEB720
ENDCHAR
STARTCHAR uni0263
ENCODING 611
SWIDTH 600 0
DWIDTH 17 0
BBX 15 20 1 -6
BITMAP
DFFF3000003FFFB0
7FFF8000008FFF50
1FFFE00000EFFD00
0AFFF40004FFF700
03FFFA000AFFF100
00CFFE101EFFA000
006FFF506FFF4000
000EFFA0BFFD0000
0008FFF2FFF60000
0002FFFBFFE10000
0000AFFFFF900000
00005FFFFF400000
0000BFFFFFB00000
0005FFF9FFF40000
000BFFB0BFFB0000
000EFF606FFE0000
000EFF919FFE0000
000AFFFFFFFA0000
0002EFFFFFE20000
00002AEFEA200000
ENDCHAR
STARTCHAR uni0264
ENCODING 612
SWIDTH 600 0
DWIDTH 17 0
BBX 15 14 1 0
BITMAP
9DEEB50006CEEC70
CFFFFFA2CFFFFF90
5FFFFFFFFFFFFF20
0315DFFFFFC31300
0000BFFFFF800000
000AFFFFFFF70000
006FFFD5EFFF3000
00DFFF306FFFA000
02FFFB000EFFE000
02FFFB000EFFE000
01FFFF416FFFC000
009FFFFFFFFF6000
001CFFFFFFFA0000
00006CEFEB500000
ENDCHAR
STARTCHAR uni0265
ENCODING 613
SWIDTH 600 0
DWIDTH 17 0
BBX 14 20 1 -6
BITMAP
5FFFC00005FFFC
5FFFC00005FFFC
5FFFC00005FFFC
5FFFC00005FFFC
5FFFC00005FFFC
5FFFC00005FFFC
5FFFC00005FFFC
5FFFC00005FFFC
5FFFC00005FFFC
4FFFE0000BFFFC
1FFFF712AFFFFC
0CFFFFFFFFFFFC
03FFFFFFE7FFFC
003BEED813FFFC
0000000004FFFC
0000000005FFFC
0000000005FFFC
0000000005FFFC
0000000005FFFC
0000000005FFFC
ENDCHAR
STARTCHAR uni0266
ENCODING 614
SWIDTH 600 0
DWIDTH 17 0
BBX 14 20 2 0
BITMAP
0029DEEDA10000
05FFFFFFE00000
2EFFFFFFB00000
9FFFD412300000
DFFF5000000000
EFFF2000000000
FFFF029DFEA200
FFFE5EFFFFFD10
FFFFFFFFFFFF80
FFFFF911AFFFD0
FFFF90003FFFF1
FFFF20000FFFF2
FFFF20000FFFF2
FFFF20000FFFF2
FFFF20000FFFF2
FFFF20000FFFF2
FFFF20000FFFF2
FFFF20000FFFF2
FFFF20000FFFF2
FFFF20000FFFF2
ENDCHAR
STARTCHAR uni0267
ENCODING 615
SWIDTH 600 0
DWIDTH 17 0
BBX 14 26 2 -6
BITMAP
0029DEEDA10000
05FFFFFFE00000
2EFFFFFFB00000
9FFFD412300000
DFFF5000000000
EFFF2000000000
FFFF029DFE9200
FFFE5EFFFFFD10
FFFFFFFFFFFF80
FFFFF912BFFFD0
FFFF90003FFFF0
FFFF20001FFFF1
FFFF20000FFFF2
FFFF20000FFFF2
FFFF20000FFFF2
FFFF20000FFFF2
FFFF20000FFFF2
FFFF20000FFFF2
FFFF20000FFFF2
FFFF20000FFFF2
000000000FFFF1
000000002FFFF0
000000118FFFC0
000000DFFFFF70
000002FFFFFC00
000003DFFD7000
ENDCHAR
STARTCHAR uni0268
ENCODING 616
SWIDTH 600 0
DWIDTH 17 0
BBX 14 21 2 0
BITMAP
000002BED50000
00000CFFFF2000
00000FFFFF5000
00000DFFFF3000
000003BED60000
00000000000000
00000000000000
CFFFFFFFFE0000
CFFFFFFFFE0000
CFFFFFFFFE0000
000003FFFE0000
000003FFFE0000
000003FFFE0000
09CDEFFFFFFFF9
0CFFFFFFFFFFF9
0CFFFFFFFFFFF9
000003FFFE0000
000003FFFE0000
000003FFFE0000
000003FFFE0000
000003FFFE0000
ENDCHAR
STARTCHAR uni026A
ENCODING 618
SWIDTH 600 0
DWIDTH 17 0
BBX 13 14 2 0
BITMAP
CFFFFFFFFFFF90
CFFFFFFFFFFF90
CFFFFFFFFFFF90
0000AFFF700000
0000AFFF700000
0000AFFF700000
0000AFFF700000
0000AFFF700000
0000AFFF700000
0000AFFF700000
0000AFFF700000
CFFFFFFFFFFF90
CFFFFFFFFFFF90
CFFFFFFFFFFF90
ENDCHAR
STARTCHAR uni026B
ENCODING 619
SWIDTH 600 0
DWIDTH 17 0
BBX 15 20 1 0
BITMAP
9FFFFFFFD0000000
9FFFFFFFD0000000
9FFFFFFFD0000000
00004FFFD0000000
00004FFFD0000000
00004FFFD0000000
00004FFFD0000000
02BEFFFFD0463000
0DFFFFFFF1BFF100
4FFFFFFFFFFFE000
7FF76FFFFFFF8000
15814FFFFEE90000
00004FFFD0000000
00004FFFD0000000
00003FFFD0000000
00002FFFF1000000
00000DFFFA103200
000007FFFFFFF900
000000BFFFFFFE00
00000007CEFEB810
ENDCHAR
STARTCHAR uni026C
ENCODING 620
SWIDTH 600 0
DWIDTH 17 0
BBX 15 20 1 0
BITMAP
9FFFFFFFD0000000
9FFFFFFFD0000000
9FFFFFFFD0000000
00004FFFD0000000
06EEBFFFD0000000
4FFFFFFFD0000000
AFFFFFFFD0000000
CF91BFFFD0000000
BFB14FFFD0000000
8FFFFFFFFFFF8000
2EFFFFFFFFFF8000
029EFFFFFFFF8000
00004FFFD0000000
00004FFFD0000000
00003FFFE0000000
00002FFFF1000000
00000EFFFA203200
000008FFFFFFF900
000000CFFFFFFE00
00000017CEFEB810
ENDCHAR
STARTCHAR uni026D
ENCODING 621
SWIDTH 600 0
DWIDTH 17 0
BBX 15 26 1 -6
BITMAP
9FFFFFFFD0000000
9FFFFFFFD0000000
9FFFFFFFD0000000
00004FFFD0000000
00004FFFD0000000
00004FFFD0000000
00004FFFD0000000
00004FFFD0000000
00004FFFD0000000
00004FFFD0000000
00004FFFD0000000
00004FFFD0000000
00004FFFD0000000
00004FFFD0000000
00004FFFD0000000
00004FFFD0000000
00004FFFD0000000
00004FFFD0000000
00004FFFD0000000
00003FFFD0000000
00003FFFE0000000
00001FFFF1000000
00000DFFFA113200
000006FFFFFFF900
000000BFFFFFFE00
00000007CEFEB810
ENDCHAR
STARTCHAR uni026E
ENCODING 622
SWIDTH 600 0
DWIDTH 17 0
BBX 16 26 1 -6
BITMAP
DFFF400000000000
DFFF400000000000
DFFF400000000000
DFFF400000000000
DFFF400000000000
DFFF400000000000
DFFFFFFFFFFFFFF2
DFFFFFFFFFFFFFF2
DFFFFFFFFFFFFFD1
DFFF400003FFFF40
DFFF40000CFFF800
DFFF40008FFFB000
DFFF4004FFFE2000
DFFF401DFFF50000
DFFF409FFFFD9200
DFFF40DFFFFFFE40
DFFF404FFFFFFFE1
DFFF4003017FFFF7
DFFF4000000AFFFA
DFFF40000006FFFB
000000000007FFFA
00000400000BFFF7
00005FB3129FFFF2
0002EFFFFFFFFF80
0001AFFFFFFFF900
0000039DEFDA4000
ENDCHAR
STARTCHAR uni026F
ENCODING 623
SWIDTH 600 0
DWIDTH 17 0
BBX 16 14 0 0
BITMAP
4FFFA05FFD01FFFC
4FFFA05FFD01FFFC
4FFFA05FFD01FFFC
4FFFA05FFD01FFFC
4FFFA05FFD01FFFC
4FFFA05FFD01FFFC
4FFFA05FFD01FFFC
4FFFA05FFD01FFFC
4FFFA05FFD01FFFC
4FFFA09FFD04FFFC
3FFFC2EFFF2BFFFC
1EFFFFFFFFFFFFFC
09FFFF7CFFFE9FFC
01AEE803CEC35FFC
ENDCHAR
STARTCHAR uni0270
ENCODING 624
SWIDTH 600 0
DWIDTH 17 0
BBX 16 20 0 -6
BITMAP
4FFFA05FFD01FFFC
4FFFA05FFD01FFFC
4FFFA05FFD01FFFC
4FFFA05FFD01FFFC
4FFFA05FFD01FFFC
4FFFA05FFD01FFFC
4FFFA05FFD01FFFC
4FFFA05FFD01FFFC
4FFFA05FFD01FFFC
4FFFA06FFD02FFFC
3FFFC1CFFF28FFFC
1EFFFFFFFFFFFFFC
09FFFFDFFFFFEFFC
01AEEA26DFC4DFFC
000000000000FFFC
000000000001FFFC
000000000001FFFC
000000000001FFFC
000000000001FFFC
000000000001FFFC
ENDCHAR
STARTCHAR uni0271
ENCODING 625
SWIDTH 600 0
DWIDTH 17 0
BBX 16 20 1 -6
BITMAP
FFF25DEB119EE700
FFF8FFFF9AFFFF50
FFFFFFFFFFFFFFC0
FFFF84FFFC1EFFE0
FFFF11FFF50DFFF1
FFFE01FFF20DFFF1
FFFE01FFF20DFFF1
FFFE01FFF20DFFF1
FFFE01FFF20DFFF1
FFFE01FFF20DFFF1
FFFE01FFF20DFFF1
FFFE01FFF20DFFF1
FFFE01FFF20DFFF1
FFFE01FFF20DFFF1
00000000000DFFF1
00000000000DFFF0
00000000012FFFE0
000000000AFFFFA0
000000000EFFFE30
000000002DFEB300
ENDCHAR
STARTCHAR uni0272
ENCODING 626
SWIDTH 600 0
DWIDTH 17 0
BBX 17 20 -1 -6
BITMAP
000BFFB018DFEA2000
000BFFD4EFFFFFE200
000BFFFFFFFFFFF900
000BFFFFB219FFFD00
000BFFFD1002FFFF10
000BFFF60000FFFF20
000BFFF60000FFFF20
000BFFF60000FFFF20
000BFFF60000FFFF20
000BFFF60000FFFF20
000BFFF60000FFFF20
000BFFF60000FFFF20
000BFFF60000FFFF20
000BFFF60000FFFF20
000BFFF60000000000
000BFFF50000000000
012EFFF30000000000
0DFFFFD00000000000
2FFFFF500000000000
4DFEB4000000000000
ENDCHAR
STARTCHAR uni0273
ENCODING 627
SWIDTH 600 0
DWIDTH 17 0
BBX 16 20 2 -6
BITMAP
FFF703ADFD800000
FFF97FFFFFFA0000
FFFFFFFFFFFF4000
FFFFF812CFFF8000
FFFF90006FFFB000
FFFF20004FFFC000
FFFF20004FFFD000
FFFF20004FFFD000
FFFF20004FFFD000
FFFF20004FFFD000
FFFF20004FFFD000
FFFF20004FFFD000
FFFF20004FFFD000
FFFF20004FFFD000
000000004FFFD000
000000002FFFD000
000000001FFFF310
000000000BFFFFF1
0000000002EFFFF4
00000000002AEFE5
ENDCHAR
STARTCHAR uni0274
ENCODING 628
SWIDTH 600 0
DWIDTH 17 0
BBX 13 14 2 0
BITMAP
EFFF30002FFFB0
EFFFC0002FFFB0
EFFFF7002FFFB0
EFFFFE202FFFB0
EFFFFFB02FFFB0
EFFCFFF51FFFB0
EFFAAFFD1FFFB0
EFFC2FFF7EFFB0
EFFD08FFEDFFB0
EFFE01DFFFFFB0
EFFE004FFFFFB0
EFFE000AFFFFB0
EFFE0001EFFFB0
EFFE00006FFFB0
ENDCHAR
STARTCHAR uni0275
ENCODING 629
SWIDTH 600 0
DWIDTH 17 0
BBX 15 14 1 0
BITMAP
00017BEFEA500000
004DFFFFFFFC2000
03EFFFFFFFFFD100
0CFFF72029FFF900
4FFF800000BFFF10
8FFFFFFFFFFFFF50
AFFFFFFFFFFFFF70
AFFFFFFFFFFFFF70
8FFF6000009FFF50
4FFFB00001EFFF10
0CFFFA213BFFF900
03EFFFFFFFFFD100
004EFFFFFFFC2000
00017BEFEB500000
ENDCHAR
STARTCHAR uni0276
ENCODING 630
SWIDTH 600 0
DWIDTH 17 0
BBX 17 14 0 0
BITMAP
00028DFFFFFFFFFF50
004EFFFFFFFFFFFF50
03EFFFFFFFFFFFFF50
0BFFFC31CFFE000000
1FFFF300CFFE000000
5FFFD000CFFFFFF700
6FFFC000CFFFFFF700
6FFFC000CFFFFFF700
5FFFD000CFFE000000
2FFFF200CFFE000000
0BFFFC21CFFE000000
03FFFFFFFFFFFFFF90
005EFFFFFFFFFFFF90
00029DFFFFFFFFFF90
ENDCHAR
STARTCHAR uni0278
ENCODING 632
SWIDTH 600 0
DWIDTH 17 0
BBX 17 26 0 -6
BITMAP
0000005FFF20000000
0000005FFF20000000
0000005FFF20000000
0000005FFF20000000
0000005FFF20000000
0000005FFF20000000
00007CFFFFEB500000
002DFFFFFFFFFB1000
01DFFFFFFFFFFFB000
08FFF96FFF4BFFF500
0EFFC05FFF21EFFB00
2FFF705FFF20AFFE00
4FFF505FFF208FFF10
4FFF505FFF208FFF10
2FFF705FFF20AFFE00
0EFFC05FFF21EFFB00
08FFF96FFF4BFFF500
01DFFFFFFFFFFFB000
002DFFFFFFFFFB1000
00007CFFFFEB500000
0000005FFF20000000
0000005FFF20000000
0000005FFF20000000
0000005FFF20000000
0000005FFF20000000
0000005FFF20000000
ENDCHAR
STARTCHAR uni0279
ENCODING 633
SWIDTH 600 0
DWIDTH 17 0
BBX 13 14 1 0
BITMAP
000000008FFF80
000000008FFF80
000000008FFF80
000000008FFF80
000000008FFF80
000000008FFF80
000000008FFF80
000000009FFF80
00000001EFFF80
0000001BFFFF80
031026DFEFFF80
0EFFFFFE4FFF80
4FFFFFE40EFF80
4DFEC8100DFF80
ENDCHAR
STARTCHAR uni027A
ENCODING 634
SWIDTH 600 0
DWIDTH 17 0
BBX 13 20 1 0
BITMAP
000000008FFF80
000000008FFF80
000000008FFF80
000000008FFF80
000000008FFF80
000000008FFF80
000000008FFF80
000000008FFF80
000000008FFF80
000000008FFF80
000000008FFF80
000000008FFF80
000000008FFF80
000000009FFF80
00000002EFFF80
0000001CFFFF80
042026DFEFFF80
0EFFFFFE3FFF80
4FFFFFD30EFF80
4DFEC7100DFF80
ENDCHAR
STARTCHAR uni027B
ENCODING 635
SWIDTH 600 0
DWIDTH 17 0
BBX 15 20 1 -6
BITMAP
0000000EFFF30000
0000000EFFF30000
0000000EFFF30000
0000000EFFF30000
0000000EFFF30000
0000000EFFF30000
0000000EFFF30000
0000000EFFF30000
0000003FFFF30000
000001CFFFF30000
04114CFFFFF30000
0EFFFFE9FFF30000
4FFFFE57FFF30000
4DFEA307FFF30000
00000007FFF30000
00000005FFF40000
00000004FFF91200
00000000EFFFFF20
000000006FFFFF60
0000000005CEFD60
ENDCHAR
STARTCHAR uni027D
ENCODING 637
SWIDTH 600 0
DWIDTH 17 0
BBX 13 20 3 -6
BITMAP
BFFA0028DFEC20
BFFB05EFFFFF10
BFFD4FFFFFFB00
BFFEEFC5102300
BFFFFA00000000
BFFFD100000000
BFFF6000000000
BFFF5000000000
BFFF5000000000
BFFF5000000000
BFFF5000000000
BFFF5000000000
BFFF5000000000
BFFF5000000000
BFFF6000000000
9FFFA000000000
5FFFF720251000
0DFFFFFFFF4000
03EFFFFFFF8000
0018CEFEC94000
ENDCHAR
STARTCHAR uni027E
ENCODING 638
SWIDTH 600 0
DWIDTH 17 0
BBX 13 14 3 0
BITMAP
00017BEFFEDA20
006EFFFFFFFF10
06FFFFFFFFFC00
1EFFFE72013300
6FFFF400000000
9FFFB000000000
BFFF7000000000
BFFF6000000000
BFFF5000000000
BFFF5000000000
BFFF5000000000
BFFF5000000000
BFFF5000000000
BFFF5000000000
ENDCHAR
STARTCHAR uni0280
ENCODING 640
SWIDTH 600 0
DWIDTH 17 0
BBX 14 14 2 0
BITMAP
EFFFFFFEDB6000
EFFFFFFFFFFB00
EFFFFFFFFFFF70
EFFF3002AFFFC0
EFFF30004FFFD0
EFFF3002AFFFB0
EFFFFFFFFFFF40
EFFFFFFFFFF700
EFFFFFFFFF6000
EFFF308FFFD000
EFFF301DFFF800
EFFF3004FFFF30
EFFF3000AFFFC0
EFFF30002EFFF8
ENDCHAR
STARTCHAR uni0281
ENCODING 641
SWIDTH 600 0
DWIDTH 17 0
BBX 14 14 1 0
BITMAP
AFFFD10006FFFB
1CFFFB0006FFFB
02EFFF7006FFFB
004FFFF406FFFB
0009FFFFFFFFFB
008FFFFFFFFFFB
05FFFFFFFFFFFB
0CFFFA2006FFFB
0FFFF10006FFFB
0FFFF10006FFFB
0EFFF91006FFFB
08FFFFFFFFFFFB
01CFFFFFFFFFFB
0006BDFFFFFFFB
ENDCHAR
STARTCHAR uni0282
ENCODING 642
SWIDTH 600 0
DWIDTH 17 0
BBX 15 20 1 -6
BITMAP
00017CEFEC940000
005EFFFFFFFFC400
03FFFFFFFFFFF400
08FFFB2015AF8000
09FFFB1000020000
05FFFFFD96200000
00AFFFFFFFFB4000
0005BFFFFFFFF600
00000158CFFFFE00
0071000003FFFF10
08FE942016FFFF00
3FFFFFFFFFFFF800
8FFFFFFFFFFF9000
8FFFACEFEC930000
7FFF200000000000
6FFF400000000000
3FFFA11000000000
0DFFFFD000000000
05FFFFF200000000
005CEFD400000000
ENDCHAR
STARTCHAR uni0283
ENCODING 643
SWIDTH 600 0
DWIDTH 17 0
BBX 15 26 1 -6
BITMAP
000000018DEFDA40
0000003EFFFFFF60
000000DFFFFFFF10
000004FFFE412500
000007FFF9000000
000009FFF8000000
000009FFF8000000
000009FFF8000000
000009FFF8000000
000009FFF8000000
000009FFF8000000
000009FFF8000000
000009FFF8000000
000009FFF8000000
000009FFF8000000
000009FFF8000000
000009FFF8000000
000009FFF8000000
000009FFF8000000
000009FFF8000000
000009FFF7000000
00000BFFF5000000
05314FFFF3000000
2FFFFFFFC0000000
8FFFFFFE30000000
39DFFD9200000000
ENDCHAR
STARTCHAR uni0284
ENCODING 644
SWIDTH 600 0
DWIDTH 17 0
BBX 15 26 1 -6
BITMAP
000000029DEFDA40
0000004FFFFFFF60
000001EFFFFFFF10
000005FFFE412500
000008FFF9000000
000009FFF8000000
000009FFF8000000
000009FFF8000000
000009FFF8000000
000009FFF8000000
000009FFF8000000
09DDEFFFFFFFFB00
0BFFFFFFFFFFFB00
0BFFFFFFFFFFFB00
000009FFF8000000
000009FFF8000000
000009FFF8000000
000009FFF8000000
000009FFF8000000
000009FFF8000000
000009FFF7000000
00000BFFF5000000
05314FFFF3000000
2FFFFFFFC0000000
8FFFFFFE30000000
39DFFD9200000000
ENDCHAR
STARTCHAR uni0287
ENCODING 647
SWIDTH 600 0
DWIDTH 17 0
BBX 15 18 1 -4
BITMAP
38CEFED920000000
6FFFFFFFF6000000
2FFFFFFFFF200000
052115EFFF800000
0000007FFFC00000
0000004FFFD00000
0000003FFFE00000
0000003FFFE00000
0000003FFFE00000
0000003FFFE00000
0000003FFFE00000
1FFFFFFFFFFFFF60
1FFFFFFFFFFFFF60
1FFFFFFFFFFFED50
0000003FFFA00000
0000003FFF800000
0000003FFF600000
0000003FFF400000
ENDCHAR
STARTCHAR uni0288
ENCODING 648
SWIDTH 600 0
DWIDTH 17 0
BBX 15 24 1 -6
BITMAP
00007FFF00000000
00009FFF00000000
0000BFFF00000000
0000DFFF00000000
8DEFFFFFFFFFFD00
9FFFFFFFFFFFFD00
9FFFFFFFFFFFFD00
0002FFFF00000000
0002FFFF00000000
0002FFFF00000000
0002FFFF00000000
0002FFFF00000000
0002FFFF00000000
0002FFFF00000000
0002FFFF00000000
0002FFFF00000000
0002FFFF00000000
0002FFFF00000000
0001FFFF00000000
0000EFFF40000000
0000AFFFD4113500
00004FFFFFFFFE00
000007FFFFFFFF30
0000003ADFEDB820
ENDCHAR
STARTCHAR uni0289
ENCODING 649
SWIDTH 600 0
DWIDTH 17 0
BBX 18 14 -1 0
BITMAP
000FFFF2000BFFF600
000FFFF2000BFFF600
000FFFF2000BFFF600
4DEFFFFFFFFFFFFFFC
5FFFFFFFFFFFFFFFFC
5FFFFFFFFFFFFFFFFC
000FFFF2000BFFF600
000FFFF2000BFFF600
000FFFF2000BFFF600
000EFFF4001DFFF600
000CFFFA12BFFFF600
0007FFFFFFFFFFF600
0001DFFFFFE7FFF600
00002AEFD921FFF600
ENDCHAR
STARTCHAR uni028A
ENCODING 650
SWIDTH 600 0
DWIDTH 17 0
BBX 15 15 1 0
BITMAP
0000000023333320
EFFFFF407FFFFFB0
EFFFFF407FFFFFB0
EFFFFF306FFFFFB0
01CFF9000CFFC320
08FFF10005FFF500
1FFFB00000EFFD00
6FFF900000CFFF30
8FFF900000CFFF50
8FFFA00000DFFF50
5FFFE10004FFFF20
1EFFFC203DFFFB00
04FFFFFFFFFFE200
005EFFFFFFFD3000
00017CEFEB600000
ENDCHAR
STARTCHAR uni028B
ENCODING 651
SWIDTH 600 0
DWIDTH 17 0
BBX 15 14 1 0
BITMAP
4FFFD004EFEA3000
4FFFD002FFFFE300
4FFFD000FFFFFD00
4FFFD00016FFFF30
4FFFD00000EFFF60
4FFFD00000CFFF70
4FFFD00000CFFF60
4FFFD00000DFFF50
3FFFE00001FFFF20
1FFFF30006FFFD00
0BFFFC314EFFF600
03FFFFFFFFFFC000
005EFFFFFFFB1000
00018CEFDA500000
ENDCHAR
STARTCHAR uni028C
ENCODING 652
SWIDTH 600 0
DWIDTH 17 0
BBX 15 14 1 0
BITMAP
00003FFFFD000000
00009FFFFF400000
0000EFFFFFA00000
0005FFFAFFE10000
000AFFD4FFF60000
001FFF80EFFB0000
006FFF40AFFF2000
00BFFE005FFF8000
02FFF9001FFFD000
07FFF4000BFFF400
0DFFE00006FFF900
3FFFA00001FFFE10
9FFF500000BFFF60
EFFE0000006FFFB0
ENDCHAR
STARTCHAR uni028D
ENCODING 653
SWIDTH 600 0
DWIDTH 17 0
BBX 17 14 0 0
BITMAP
00DFFFF206FFFF8000
00FFFFF509FFFFA000
02FFFFF70BFFFFC000
04FFFDFA0EFEFFF000
07FFF9FC1FFAFFF200
09FFD7FE3FF6FFF500
0BFFC4FF6FD4FFF700
0EFFB1FF9FA2FFFA00
1FFF90EFDF70FFFC00
3FFF70BFFF40DFFE00
5FFF508FFF20BFFF20
8FFF305FFE009FFF40
AFFF100222007FFF70
CFFF000000005FFF90
ENDCHAR
STARTCHAR uni028E
ENCODING 654
SWIDTH 600 0
DWIDTH 17 0
BBX 16 20 0 0
BITMAP
00000000028DFFB0
000000003EFFFFA0
00000001EFFFFF60
00000009FFFA2110
0000002FFFC00000
0000008FFF600000
000000DFFF100000
000004FFFF300000
00000AFFFFA00000
00001FFFFFF20000
00007FFCAFF90000
0000DFF86FFE1000
0004FFF31FFF7000
000AFFE00AFFE100
001FFF9005FFF600
006FFF4000EFFD00
00CFFD00008FFF50
03FFF800002FFFC0
09FFF300000BFFF4
1EFFD0000005FFFB
ENDCHAR
STARTCHAR uni028F
ENCODING 655
SWIDTH 600 0
DWIDTH 17 0
BBX 15 14 1 0
BITMAP
CFFF8000009FFFA0
4FFFE10002FFFF20
0AFFF80009FFF800
02FFFE101EFFE100
008FFF607FFF6000
001EFFC0EFFD0000
0007FFF9FFF50000
0000DFFFFFB00000
00005FFFFF300000
00000CFFFA000000
000009FFF8000000
000009FFF8000000
000009FFF8000000
000009FFF8000000
ENDCHAR
STARTCHAR uni0290
ENCODING 656
SWIDTH 600 0
DWIDTH 17 0
BBX 17 20 1 -6
BITMAP
03FFFFFFFFFFFD0000
03FFFFFFFFFFFD0000
03FFFFFFFFFFF70000
00000004FFFFA00000
0000002EFFFC100000
000001CFFFE2000000
00000AFFFF40000000
00007FFFF700000000
0004FFFFA000000000
002EFFFC1000000000
01CFFFE20000000000
0AFFFFFFFFFFFF0000
1FFFFFFFFFFFFF0000
1FFFFFFFFFFFFF0000
0000000001FFFF0000
0000000000EFFF1000
0000000000CFFF6100
00000000007FFFFF30
00000000001CFFFF70
0000000000018DFE80
ENDCHAR
STARTCHAR uni0291
ENCODING 657
SWIDTH 600 0
DWIDTH 17 0
BBX 16 18 1 -4
BITMAP
03FFFFFFFFFFC000
03FFFFFFFFFFC000
03FFFFFFFFFF6000
0000000BFFFA0000
0000007FFFD10000
000003FFFF300000
00001DFFF71BEC40
0000AFFFB0CFFFE1
0007FFFE16FFFFF5
003FFFF40DF91DF7
01DFFF804FD13EF5
0AFFFFFEEFFFFFE1
1FFFFFFFFFFFFF60
1FFFFFFFFFFEB400
00000008F9000000
0000000BF5000000
0000000CF2000000
0000000010000000
ENDCHAR
STARTCHAR uni0292
ENCODING 658
SWIDTH 600 0
DWIDTH 17 0
BBX 14 20 1 -6
BITMAP
09FFFFFFFFFFF4
09FFFFFFFFFFF4
09FFFFFFFFFFC1
00000003EFFE20
0000002DFFF300
000001CFFF5000
00000BFFF80000
0000AFFFA00000
0008FFFFFD9200
001EFFFFFFFE40
0006FFFFFFFFE2
000062028FFFF9
0000000009FFFD
0000000004FFFE
0000000005FFFD
019100000AFFF9
0AFD62139FFFF3
5FFFFFFFFFFF80
06EFFFFFFFF700
0016BDEEC92000
ENDCHAR
STARTCHAR uni0294
ENCODING 660
SWIDTH 600 0
DWIDTH 17 0
BBX 14 20 1 0
BITMAP
0017BDFEC93000
07EFFFFFFFF900
5FFFFFFFFFFF90
0BFE6113AFFFF3
01A100000BFFF8
0000000006FFFB
0000000007FFFB
000000000DFFF8
00000000AFFFF2
0000002CFFFF80
000007EFFFF900
00004FFFFF7000
00004FFFE40000
00004FFFD00000
00004FFFD00000
00004FFFD00000
00004FFFD00000
00004FFFD00000
00004FFFD00000
00004FFFD00000
ENDCHAR
STARTCHAR uni0295
ENCODING 661
SWIDTH 600 0
DWIDTH 17 0
BBX 14 20 2 0
BITMAP
0005ADEEDA5000
02CFFFFFFFFD40
1DFFFFFFFFFFF1
8FFFE72028FF70
DFFF6000004900
FFFF2000000000
FFFF3000000000
DFFF8000000000
7FFFF600000000
0CFFFF91000000
01CFFFFD400000
001BFFFFF00000
00008FFFF00000
00002FFFF00000
00002FFFF00000
00002FFFF00000
00002FFFF00000
00002FFFF00000
00002FFFF00000
00002FFFF00000
ENDCHAR
STARTCHAR uni0298
ENCODING 664
SWIDTH 600 0
DWIDTH 17 0
BBX 15 20 1 0
BITMAP
00005BEFDA300000
000AFFFFFFF80000
00AFFFFFFFFF7000
05FFFD315EFFF200
0BFFF20005FFF900
2FFFB00000DFFE00
5FFF7000009FFF20
8FFF4002007FFF50
9FFF32DFC05FFF60
AFFF28FFF55FFF70
AFFF27FFF45FFF70
9FFF31AD805FFF60
8FFF4000007FFF50
5FFF6000009FFF20
2FFFA00000DFFE00
0BFFF20005FFF900
04FFFC304EFFF200
00AFFFFFFFFF7000
000AFFFFFFF80000
00005BEFDA300000
ENDCHAR
STARTCHAR uni0299
ENCODING 665
SWIDTH 600 0
DWIDTH 17 0
BBX 13 14 3 0
BITMAP
EFFFFFFEDA5000
EFFFFFFFFFFA00
EFFFFFFFFFFF40
EFFF1002BFFF70
EFFF1002BFFF40
EFFFFFFFFFF800
EFFFFFFFFF9200
EFFFFFFFFFFE30
EFFF10018FFFC0
EFFF10001FFFF0
EFFF10018FFFE0
EFFFFFFFFFFF90
EFFFFFFFFFFC10
EFFFFFFEDB6000
ENDCHAR
STARTCHAR uni029C
ENCODING 668
SWIDTH 600 0
DWIDTH 17 0
BBX 13 14 2 0
BITMAP
FFFF20005FFFC0
FFFF20005FFFC0
FFFF20005FFFC0
FFFF20005FFFC0
FFFF20005FFFC0
FFFF20005FFFC0
FFFFFFFFFFFFC0
FFFFFFFFFFFFC0
FFFFFFFFFFFFC0
FFFF20005FFFC0
FFFF20005FFFC0
FFFF20005FFFC0
FFFF20005FFFC0
FFFF20005FFFC0
ENDCHAR
STARTCHAR uni029D
ENCODING 669
SWIDTH 600 0
DWIDTH 17 0
BBX 15 28 0 -7
BITMAP
00000002BED50000
0000000CFFFF2000
0000000FFFFF5000
0000000DFFFF3000
00000003BED60000
0000000000000000
0000000000000000
00CFFFFFFFFE0000
00CFFFFFFFFE0000
00CFFFFFFFFE0000
00000003FFFE0000
00000003FFFE0000
00000003FFFE0000
00000003FFFE0000
00000003FFFE0000
00000003FFFE0000
00000003FFFE0000
00000003FFFE0000
00000003FFFE0000
005BEFECFFFE0000
07FFFFFFFFFE0000
1FFFFFFFFFFD0000
4FFE2029FFFF5000
3FFE303DFFFFE200
0DFFFFFFFFFFFA00
03EFFFFFFDAFFF40
0029DFEC712FFF70
0000000000099200
ENDCHAR
STARTCHAR uni029E
ENCODING 670
SWIDTH 600 0
DWIDTH 17 0
BBX 15 20 0 -6
BITMAP
0CFFF600007FFFA0
02FFFE10007FFFA0
007FFFA0007FFFA0
000CFFF4008FFFA0
0002FFFD16FFFFA0
00007FFFCFFFFFA0
00000CFFFFFFFFA0
000002FFFFFFFFA0
000004FFFFBFFFA0
00004EFFF67FFFA0
0004EFFF707FFFA0
003EFFF8007FFFA0
03EFFF90007FFFA0
3EFFFA00007FFFA0
00000000007FFFA0
00000000007FFFA0
00000000007FFFA0
00000000007FFFA0
00000000007FFFA0
00000000007FFFA0
ENDCHAR
STARTCHAR uni029F
ENCODING 671
SWIDTH 600 0
DWIDTH 17 0
BBX 12 14 3 0
BITMAP
9FFF80000000
9FFF80000000
9FFF80000000
9FFF80000000
9FFF80000000
9FFF80000000
9FFF80000000
9FFF80000000
9FFF80000000
9FFF80000000
9FFF80000000
9FFFFFFFFFFF
9FFFFFFFFFFF
9FFFFFFFFFFF
ENDCHAR
STARTCHAR uni02A1
ENCODING 673
SWIDTH 600 0
DWIDTH 17 0
BBX 15 20 1 0
BITMAP
0016BDEED9400000
06EFFFFFFFFA1000
5FFFFFFFFFFFB000
0BFE72029FFFF400
01A200000AFFF900
0000000006FFFB00
0000000007FFFA00
000000000DFFF500
000000009FFFC000
00000009FFFE2000
000003CFFFD20000
6DFFFFFFFFFFFF20
7FFFFFFFFFFFFF20
7FFFFFFFFFFFFF20
00004FFFD0000000
00004FFFD0000000
00004FFFD0000000
00004FFFD0000000
00004FFFD0000000
00004FFFD0000000
ENDCHAR
STARTCHAR uni02A2
ENCODING 674
SWIDTH 600 0
DWIDTH 17 0
BBX 15 20 1 0
BITMAP
00006BEFEDA50000
003DFFFFFFFFC300
01EFFFFFFFFFFE10
09FFFE62139FF700
0DFFF60000049000
0FFFF20000000000
0EFFF30000000000
0AFFF90000000000
02FFFF5000000000
005FFFF600000000
0005EFFFA1000000
5DFFFFFFFFFFFF30
6FFFFFFFFFFFFF30
6FFFFFFFFFFFFF30
000002FFFF000000
000002FFFF000000
000002FFFF000000
000002FFFF000000
000002FFFF000000
000002FFFF000000
ENDCHAR
STARTCHAR uni02A4
ENCODING 676
SWIDTH 600 0
DWIDTH 17 0
BBX 19 26 -1 -6
BITMAP
0000000BFF8000000000
0000000BFF8000000000
0000000BFF8000000000
0000000BFF8000000000
0000000AFF8000000000
0000000AFF8000000000
0008EE99FFFFFFFFFA00
009FFFFEFFFFFFFFFA00
04FFFFFFFFFFFFFFF600
0AFFF43FFF8005FFD000
0EFFA00BFF800DFF6000
2FFF700BFF806FFE0000
3FFF600BFF80DFF70000
3FFF600BFF87FFE00000
2FFF700BFF8EFFFB3000
0EFFA00BFF8CFFFFE200
0AFFF43FFF84FFFFF900
04FFFFFFFF8013DFFE10
00AFFFFCFF80007FFF20
0008EE81BB60005FFF40
000000000000005FFF40
000000000000008FFF10
00000000004714EFFC00
0000000001DFFFFFF600
0000000007FFFFFFA000
00000000006BEFC60000
ENDCHAR
STARTCHAR uni02A6
ENCODING 678
SWIDTH 600 0
DWIDTH 17 0
BBX 17 18 0 0
BITMAP
004EEE300000000000
006FFF300000000000
008FFF300000000000
00AFFF300000000000
AEFFFFFFFFFFFDA300
CFFFFFFFFFFFFFFF40
CFFFFFFFFFFFFFFD00
00EFFF30EFFE117400
00EFFF30AFFF700000
00EFFF302EFFFB2000
00EFFF3003DFFFE300
00EFFF30001AFFFC00
00DFFF4000009FFF50
00CFFF7000002FFF70
008FFFE62002AFFF60
002EFFFFFFFFFFFF20
0004EFFFFFFFFFE500
000016BDEFEDB71000
ENDCHAR
STARTCHAR uni02A7
ENCODING 679
SWIDTH 600 0
DWIDTH 17 0
BBX 19 26 0 -6
BITMAP
00000000000006CEFD20
000000000000AFFFFE00
004FFF300005FFFFFA00
006FFF30000BFFF91100
008FFF30000DFFF40000
00AFFF30000EFFF30000
BEFFFFFFFFFFFFF30000
CFFFFFFFFFFFFFF30000
CFFFFFFFFFFFFFF30000
00EFFF30000EFFF30000
00EFFF30000EFFF30000
00EFFF30000EFFF30000
00EFFF30000EFFF30000
00EFFF30000EFFF30000
00EFFF30000EFFF30000
00CFFF40000EFFF30000
00BFFFA1200EFFF30000
006FFFFFF40EFFF30000
000CFFFFF70EFFF30000
00018DFEC60EFFF30000
00000000000EFFF20000
00000000000FFFF00000
00000000116FFFD00000
000000007FFFFF800000
00000000BFFFFC100000
00000000BEFD81000000
ENDCHAR
STARTCHAR h.sups
ENCODING 688
SWIDTH 600 0
DWIDTH 17 0
BBX 10 14 4 10
BITMAP
3551000000
9FF4000000
9FF4000000
9FF4000000
9FF48EEA10
9FFCFFFF80
9FFFFFFFD0
9FFA22EFF1
9FF400CFF2
9FF400CFF2
9FF400CFF2
9FF400CFF2
9FF400CFF2
9FF400BFF2
ENDCHAR
STARTCHAR j.sups
ENCODING 690
SWIDTH 600 0
DWIDTH 17 0
BBX 9 17 3 7
BITMAP
00003CE900
00008FFF20
00003DEA00
0000000000
09FFFFFD00
09FFFFFD00
09FFFFFD00
00001FFD00
00001FFD00
00001FFD00
00001FFD00
00001FFD00
00001FFD00
03217FFB00
0BFFFFF800
1FFFFFE200
18DFEA2000
ENDCHAR
STARTCHAR r.sups
ENCODING 691
SWIDTH 600 0
DWIDTH 17 0
BBX 8 10 6 10
BITMAP
FF707DFC
FF88FFF9
FFCFFFF6
FFFE5111
FFF50000
FFE00000
FFE00000
FFE00000
FFE00000
EED00000
ENDCHAR
STARTCHAR w.sups
ENCODING 695
SWIDTH 600 0
DWIDTH 17 0
BBX 14 10 1 10
BITMAP
CFF105FF400EFB
9FF308FF802FF7
5FF60CFFD05FF4
2FF91FDEF28FF1
0EFC4FACF5BFC0
0AFE7F8AF8DF90
07FFBF57FCFF60
03FFFF24FFFF20
00EFFE01FFFE00
00BFFC00DFFB00
ENDCHAR
STARTCHAR y.sups
ENCODING 696
SWIDTH 600 0
DWIDTH 17 0
BBX 11 13 3 7
BITMAP
3FFB000BFE10
0BFF101FFA00
05FF605FF400
00DFB0AFE000
007FF1EF9000
001FF7FF4000
0009FEFE0000
0003FFF80000
0000DFF30000
0005FFD00000
03FFFF700000
06FFFC000000
07FD91000000
ENDCHAR
STARTCHAR uni02B9
ENCODING 697
SWIDTH 600 0
DWIDTH 17 0
BBX 6 9 6 10
BITMAP
0FFFF1
1FFFD0
2FFFA0
3FFF80
4FFF40
5FFF10
6FFC00
7FF800
8FF400
ENDCHAR
STARTCHAR uni02BB
ENCODING 699
SWIDTH 600 0
DWIDTH 17 0
BBX 7 11 5 8
BITMAP
0003B400
006FFC00
05FFF800
1EFE4000
7FF70000
BFF20000
CFFEC300
CFFFFE00
9FFFFF10
3FFFFD00
05DFB300
ENDCHAR
STARTCHAR uni02BC
ENCODING 700
SWIDTH 600 0
DWIDTH 17 0
BBX 7 11 5 8
BITMAP
05DFC300
2FFFFE10
4FFFFF60
2FFFFF80
06DFFF90
0005FF70
000BFF30
007FFC00
1AFFE200
1EFE3000
07910000
ENDCHAR
STARTCHAR uni02BE
ENCODING 702
SWIDTH 600 0
DWIDTH 17 0
BBX 6 9 6 15
BITMAP
CEC600
CFFFB0
CFFFF6
02BFFA
004FFB
02AFFA
CFFFF6
CFFFB0
CEC700
ENDCHAR
STARTCHAR uni02BF
ENCODING 703
SWIDTH 600 0
DWIDTH 17 0
BBX 6 9 5 15
BITMAP
018CE9
1DFFF9
9FFFF9
DFF820
FFF100
DFF820
9FFFF9
1DFFF9
018CF9
ENDCHAR
STARTCHAR uni02C1
ENCODING 705
SWIDTH 600 0
DWIDTH 17 0
BBX 9 12 4 12
BITMAP
006CFEA300
0AFFFFFF50
6FFFFFFFB0
BFF9116D20
DFF1000000
BFF4000000
5FFD100000
09FFE50000
008FFF3000
000BFF3000
000BFF3000
0004661000
ENDCHAR
STARTCHAR circumflex
ENCODING 710
SWIDTH 600 0
DWIDTH 17 0
BBX 11 5 3 16
BITMAP
003EFFFD1000
01DFFFFFB000
0CFFEAFFF900
7FFC204DFF40
0A800001A800
ENDCHAR
STARTCHAR caron
ENCODING 711
SWIDTH 600 0
DWIDTH 17 0
BBX 11 5 3 16
BITMAP
0A800001A800
7FFC204DFF40
0CFFEAFFF900
01DFFFFFB000
003EFFFD1000
ENDCHAR
STARTCHAR uni02C8
ENCODING 712
SWIDTH 600 0
DWIDTH 17 0
BBX 5 10 6 11
BITMAP
AFFF70
9FFF60
8FFF50
6FFF30
5FFF20
4FFF10
3FFE00
1FFD00
0FFC00
0EFB00
ENDCHAR
STARTCHAR uni02C9
ENCODING 713
SWIDTH 600 0
DWIDTH 17 0
BBX 9 3 4 16
BITMAP
BFFFFFFF80
BFFFFFFF80
BFFFFFFF80
ENDCHAR
STARTCHAR uni02CA
ENCODING 714
SWIDTH 600 0
DWIDTH 17 0
BBX 8 7 6 16
BITMAP
0001B200
000BFD20
00AFFFE1
07FFFF60
5FFFE400
5FFD2000
05B10000
ENDCHAR
STARTCHAR uni02CB
ENCODING 715
SWIDTH 600 0
DWIDTH 17 0
BBX 8 7 3 16
BITMAP
004A0000
04FF9000
3FFFF600
08FFFF40
006FFFE3
0004EFE3
00002C20
ENDCHAR
STARTCHAR uni02CC
ENCODING 716
SWIDTH 600 0
DWIDTH 17 0
BBX 5 10 6 -7
BITMAP
0EFB00
0FFC00
1FFD00
3FFE00
4FFF10
5FFF20
6FFF30
8FFF50
9FFF60
AFFF70
ENDCHAR
STARTCHAR uni02D0
ENCODING 720
SWIDTH 600 0
DWIDTH 17 0
BBX 8 15 4 0
BITMAP
2EEEEEED
08FFFFF5
01EFFFB0
006FFF30
000CF900
0003E100
00001000
00000000
00000000
0002C000
000BF700
005FFF20
00DFFFB0
08FFFFF5
2FFFFFFD
ENDCHAR
STARTCHAR uni02D1
ENCODING 721
SWIDTH 600 0
DWIDTH 17 0
BBX 8 6 4 9
BITMAP
2FFFFFFD
08FFFFF5
00DFFFB0
005FFF20
000BF700
0002C000
ENDCHAR
STARTCHAR breve
ENCODING 728
SWIDTH 600 0
DWIDTH 17 0
BBX 11 6 3 16
BITMAP
025000024200
4FF40008FF10
1FFD315EFE00
0CFFFFFFF900
03EFFFFFD100
002AEFD91000
ENDCHAR
STARTCHAR dotaccent
ENCODING 729
SWIDTH 600 0
DWIDTH 17 0
BBX 7 5 5 16
BITMAP
05DEC300
2FFFFD00
4FFFFF10
2FFFFE00
05DEC300
ENDCHAR
STARTCHAR ring
ENCODING 730
SWIDTH 600 0
DWIDTH 17 0
BBX 9 7 4 16
BITMAP
019EFD7000
0AFFFFF700
2FF81BFE00
4FF406FF10
2FF81BFE00
0AFFFFF700
019EFD7000
ENDCHAR
STARTCHAR ogonek
ENCODING 731
SWIDTH 600 0
DWIDTH 17 0
BBX 7 6 5 -6
BITMAP
02CF7000
0CFA0000
5FF50000
7FF91310
4FFFFF80
05CFEB50
ENDCHAR
STARTCHAR tilde
ENCODING 732
SWIDTH 600 0
DWIDTH 17 0
BBX 11 5 3 16
BITMAP
04CEB2009960
3FFFFE53FF90
9FFFFFFFFF60
CFE28FFFFE10
9A8005DFC300
ENDCHAR
STARTCHAR hungarumlaut
ENCODING 733
SWIDTH 600 0
DWIDTH 17 0
BBX 11 6 4 16
BITMAP
001C6101C610
008FFA08FFB0
01EFF21EFF20
08FF708FF800
1EFD01EFD000
06C4006C4000
ENDCHAR
STARTCHAR uni02DE
ENCODING 734
SWIDTH 600 0
DWIDTH 17 0
BBX 10 7 2 6
BITMAP
00018C0000
03AFFF1000
6FFFFF6000
7FFFFFC120
7FA3AFFFF1
31002EFFF6
000003CFB3
ENDCHAR
STARTCHAR uni02E0
ENCODING 736
SWIDTH 600 0
DWIDTH 17 0
BBX 10 13 3 7
BITMAP
2FFB000BFE
0BFF101FF9
05FF506FF3
00EFA0AFC0
009FE1FF70
003FFAFF10
000CFFFA00
0008FFF700
001EFCFD00
006FE1FF50
007FE2EF60
003FFFFF20
0005DED500
ENDCHAR
STARTCHAR l.sups
ENCODING 737
SWIDTH 600 0
DWIDTH 17 0
BBX 8 14 5 10
BITMAP
EFFFE000
EFFFE000
EFFFE000
00FFE000
00FFE000
00FFE000
00FFE000
00FFE000
00FFE000
00FFE000
00EFF402
00CFFFFB
006FFFFD
0007DFEA
ENDCHAR
STARTCHAR s.sups
ENCODING 738
SWIDTH 600 0
DWIDTH 17 0
BBX 9 10 4 10
BITMAP
028DEEA200
1DFFFFFE50
5FFFFFFF30
2FFA025600
03CFB62000
00037CFA10
1C6203FFA0
8FFFFFFFC0
7FFFFFFF60
039DFEB400
ENDCHAR
STARTCHAR x.sups
ENCODING 739
SWIDTH 600 0
DWIDTH 17 0
BBX 11 9 3 11
BITMAP
1EFE203FFC00
05FFA0AFF300
00AFF7FF8000
001EFFFD0000
0009FFF50000
003FFFFB0000
00DFD8FF7000
08FF50CFF300
3FFC003FFD10
ENDCHAR
STARTCHAR uni02E4
ENCODING 740
SWIDTH 600 0
DWIDTH 17 0
BBX 9 14 4 10
BITMAP
006CFEB300
0AFFFFFF60
6FFFFFFFB0
BFF9116D10
DFF1000100
BFF4000000
5FFD200000
09FFE50000
008FFF3000
000BFF3000
000BFF3000
000BFF3000
000BFF3000
0009DD3000
ENDCHAR
STARTCHAR uni0300
ENCODING 768
SWIDTH 600 0
DWIDTH 17 0
BBX 8 7 3 16
BITMAP
004A0000
04FF9000
3FFFF600
08FFFF40
006FFFE3
0004EFE3
00002C20
ENDCHAR
STARTCHAR uni0301
ENCODING 769
SWIDTH 600 0
DWIDTH 17 0
BBX 8 7 6 16
BITMAP
0001B200
000BFD20
00AFFFE1
07FFFF60
5FFFE400
5FFD2000
05B10000
ENDCHAR
STARTCHAR uni0302
ENCODING 770
SWIDTH 600 0
DWIDTH 17 0
BBX 11 5 3 16
BITMAP
003EFFFD1000
01DFFFFFB000
0CFFEAFFF900
7FFC204DFF40
0A800001A800
ENDCHAR
STARTCHAR uni0303
ENCODING 771
SWIDTH 600 0
DWIDTH 17 0
BBX 11 5 3 16
BITMAP
04CEB2009960
3FFFFE53FF90
9FFFFFFFFF60
CFE28FFFFE10
9A8005DFC300
ENDCHAR
STARTCHAR uni0304
ENCODING 772
SWIDTH 600 0
DWIDTH 17 0
BBX 9 3 4 16
BITMAP
BFFFFFFF80
BFFFFFFF80
BFFFFFFF80
ENDCHAR
STARTCHAR uni0305
ENCODING 773
SWIDTH 600 0
DWIDTH 17 0
BBX 9 3 4 16
BITMAP
BFFFFFFF80
BFFFFFFF80
BFFFFFFF80
ENDCHAR
STARTCHAR uni0306
ENCODING 774
SWIDTH 600 0
DWIDTH 17 0
BBX 11 6 3 16
BITMAP
025000024200
4FF40008FF10
1FFD315EFE00
0CFFFFFFF900
03EFFFFFD100
002AEFD91000
ENDCHAR
STARTCHAR uni0307
ENCODING 775
SWIDTH 600 0
DWIDTH 17 0
BBX 7 5 5 16
BITMAP
05DEC300
2FFFFD00
4FFFFF10
2FFFFE00
05DEC300
ENDCHAR
STARTCHAR uni0308
ENCODING 776
SWIDTH 600 0
DWIDTH 17 0
BBX 11 5 3 16
BITMAP
2CE8001AEA10
BFFF508FFF80
EFFF70AFFFB0
BFFF508FFF80
2CE9001BEB10
ENDCHAR
STARTCHAR uni0309
ENCODING 777
SWIDTH 600 0
DWIDTH 17 0
BBX 7 7 5 16
BITMAP
0DDA3000
0FFFF500
1FFFFD00
015FFF10
003EFF00
01FFF700
00CB5000
ENDCHAR
STARTCHAR uni030A
ENCODING 778
SWIDTH 600 0
DWIDTH 17 0
BBX 9 7 4 16
BITMAP
019EFD7000
0AFFFFF700
2FF81BFE00
4FF406FF10
2FF81BFE00
0AFFFFF700
019EFD7000
ENDCHAR
STARTCHAR uni030B
ENCODING 779
SWIDTH 600 0
DWIDTH 17 0
BBX 11 6 4 16
BITMAP
001C6101C610
008FFA08FFB0
01EFF21EFF20
08FF708FF800
1EFD01EFD000
06C4006C4000
ENDCHAR
STARTCHAR uni030C
ENCODING 780
SWIDTH 600 0
DWIDTH 17 0
BBX 11 5 3 16
BITMAP
0A800001A800
7FFC204DFF40
0CFFEAFFF900
01DFFFFFB000
003EFFFD1000
ENDCHAR
STARTCHAR uni030F
ENCODING 783
SWIDTH 600 0
DWIDTH 17 0
BBX 10 6 2 16
BITMAP
18B0018B00
DFF50DFF50
5FFC05FFC0
0BFF50AFF5
02EFC02EFC
007B4006B4
ENDCHAR
STARTCHAR uni0310
ENCODING 784
SWIDTH 600 0
DWIDTH 17 0
BBX 11 8 3 16
BITMAP
000013100000
0004EFD20000
000AFFF70000
1338FFF54300
9FC18B71EF60
4FFA213CFF10
09FFFFFFF600
005BEFEA4000
ENDCHAR
STARTCHAR uni0311
ENCODING 785
SWIDTH 600 0
DWIDTH 17 0
BBX 11 6 3 15
BITMAP
002AEFD81000
03EFFFFFD100
0CFFFFFFF900
1FFD315EFE00
4FF50008FF10
025000024200
ENDCHAR
STARTCHAR uni0312
ENCODING 786
SWIDTH 600 0
DWIDTH 17 0
BBX 5 7 6 16
BITMAP
007C00
0AFC20
4F9000
8FEC10
9FFF70
6FFF70
09EB10
ENDCHAR
STARTCHAR uni0313
ENCODING 787
SWIDTH 600 0
DWIDTH 17 0
BBX 5 7 6 15
BITMAP
3DE700
AFFF30
AFFF60
3DFF50
01CF20
4DF700
2C5000
ENDCHAR
STARTCHAR uni0318
ENCODING 792
SWIDTH 600 0
DWIDTH 17 0
BBX 6 7 6 -7
BITMAP
000AD8
000CF9
FFFFF9
FFFFF9
FFFFF9
000CF9
000AD8
ENDCHAR
STARTCHAR uni0319
ENCODING 793
SWIDTH 600 0
DWIDTH 17 0
BBX 6 7 5 -7
BITMAP
AD7000
CF8000
CFFFFD
CFFFFD
CFFFFD
CF8000
AD7000
ENDCHAR
STARTCHAR uni031A
ENCODING 794
SWIDTH 600 0
DWIDTH 17 0
BBX 6 6 6 14
BITMAP
FFFFF3
FFFFF3
FFFFF3
000FF3
000FF3
000330
ENDCHAR
STARTCHAR uni031B
ENCODING 795
SWIDTH 600 0
DWIDTH 17 0
BBX 6 7 8 12
BITMAP
0028B0
04FFF4
01FFF6
01FFF5
07FFE1
AFFE40
AC8100
ENDCHAR
STARTCHAR uni031C
ENCODING 796
SWIDTH 600 0
DWIDTH 17 0
BBX 6 6 5 -7
BITMAP
02AEF4
1DFFF4
4FFA10
4FFA10
0DFFF4
029DF4
ENDCHAR
STARTCHAR uni031D
ENCODING 797
SWIDTH 600 0
DWIDTH 17 0
BBX 8 5 4 -6
BITMAP
000CF900
000CF900
2FFFFFFE
2FFFFFFE
2FFFFFFE
ENDCHAR
STARTCHAR uni031E
ENCODING 798
SWIDTH 600 0
DWIDTH 17 0
BBX 8 5 4 -7
BITMAP
2FFFFFFE
2FFFFFFE
2FFFFFFE
000CF900
000CF900
ENDCHAR
STARTCHAR uni031F
ENCODING 799
SWIDTH 600 0
DWIDTH 17 0
BBX 8 7 4 -7
BITMAP
000AD700
000CF900
2FFFFFFE
2FFFFFFE
2FFFFFFE
000CF900
000AD700
ENDCHAR
STARTCHAR uni0320
ENCODING 800
SWIDTH 600 0
DWIDTH 17 0
BBX 8 3 4 -4
BITMAP
2FFFFFFE
2FFFFFFE
2FFFFFFE
ENDCHAR
STARTCHAR uni0323
ENCODING 803
SWIDTH 600 0
DWIDTH 17 0
BBX 7 5 5 -7
BITMAP
05DEC300
2FFFFD00
4FFFFF10
2FFFFE00
05DEC300
ENDCHAR
STARTCHAR uni0324
ENCODING 804
SWIDTH 600 0
DWIDTH 17 0
BBX 11 5 3 -6
BITMAP
2CE8001AEA10
BFFF508FFF80
EFFF70AFFFB0
BFFF508FFF80
2CE9001BEB10
ENDCHAR
STARTCHAR uni0325
ENCODING 805
SWIDTH 600 0
DWIDTH 17 0
BBX 9 7 4 -7
BITMAP
019EFD7000
0AFFFFF700
2FF81BFE00
4FF406FF10
2FF81BFE00
0AFFFFF700
019EFD7000
ENDCHAR
STARTCHAR uni0326
ENCODING 806
SWIDTH 600 0
DWIDTH 17 0
BBX 6 6 5 -7
BITMAP
01EC71
07FFFA
004FFF
026FFE
AFFFF6
8EC830
ENDCHAR
STARTCHAR uni0327
ENCODING 807
SWIDTH 600 0
DWIDTH 17 0
BBX 6 7 5 -7
BITMAP
00DF80
05FF20
0CFFC4
015FFE
015FFF
AFFFF8
8EC940
ENDCHAR
STARTCHAR uni0328
ENCODING 808
SWIDTH 600 0
DWIDTH 17 0
BBX 7 6 5 -6
BITMAP
02CF7000
0CFA0000
5FF50000
7FF91310
4FFFFF80
05CFEB50
ENDCHAR
STARTCHAR uni0329
ENCODING 809
SWIDTH 600 0
DWIDTH 17 0
BBX 4 6 6 -8
BITMAP
1FFE
2FFE
2FFE
3FFF
3FFF
4FFF
ENDCHAR
STARTCHAR uni032A
ENCODING 810
SWIDTH 600 0
DWIDTH 17 0
BBX 9 5 4 -6
BITMAP
4FFFFFFF10
4FFFFFFF10
4FFFFFFF10
4FD001FF10
4FD001FF10
ENDCHAR
STARTCHAR uni032C
ENCODING 812
SWIDTH 600 0
DWIDTH 17 0
BBX 11 5 3 -6
BITMAP
0A800001A800
7FFC204DFF40
0CFFEAFFF900
01DFFFFFB000
003EFFFD1000
ENDCHAR
STARTCHAR uni032E
ENCODING 814
SWIDTH 600 0
DWIDTH 17 0
BBX 11 6 3 -7
BITMAP
025000024200
4FF40008FF10
1FFD315EFE00
0CFFFFFFF900
03EFFFFFD100
002AEFD91000
ENDCHAR
STARTCHAR uni032F
ENCODING 815
SWIDTH 600 0
DWIDTH 17 0
BBX 11 6 3 -8
BITMAP
002AEFD81000
03EFFFFFD100
0CFFFFFFF900
1FFD315EFE00
4FF50008FF10
025000024200
ENDCHAR
STARTCHAR uni0330
ENCODING 816
SWIDTH 600 0
DWIDTH 17 0
BBX 11 5 3 -6
BITMAP
04CEB2009960
3FFFFE53FF90
9FFFFFFFFF60
CFE28FFFFE10
9A8005DFC300
ENDCHAR
STARTCHAR uni0331
ENCODING 817
SWIDTH 600 0
DWIDTH 17 0
BBX 9 3 4 -6
BITMAP
BFFFFFFF80
BFFFFFFF80
BFFFFFFF80
ENDCHAR
STARTCHAR uni0334
ENCODING 820
SWIDTH 600 0
DWIDTH 17 0
BBX 13 5 2 5
BITMAP
06CEC710007520
5FFFFFE823FFA0
BFFFFFFFFFFF80
DFE24AFFFFFF20
36600039DFC400
ENDCHAR
STARTCHAR uni0339
ENCODING 825
SWIDTH 600 0
DWIDTH 17 0
BBX 6 6 6 -7
BITMAP
7FD810
8FFFB0
02CFF1
02CFF1
8FFFA0
7FD810
ENDCHAR
STARTCHAR uni033A
ENCODING 826
SWIDTH 600 0
DWIDTH 17 0
BBX 9 5 4 -6
BITMAP
4FD001FF10
4FD001FF10
4FFFFFFF10
4FFFFFFF10
4FFFFFFF10
ENDCHAR
STARTCHAR uni033B
ENCODING 827
SWIDTH 600 0
DWIDTH 17 0
BBX 9 5 4 -7
BITMAP
4FFFFFFF10
4FD001FF10
4FD001FF10
4FFFFFFF10
4FFFFFFF10
ENDCHAR
STARTCHAR uni033C
ENCODING 828
SWIDTH 600 0
DWIDTH 17 0
BBX 11 5 3 -7
BITMAP
07DE709ED500
5FFFF8FFFF30
BFFFFFFFFF80
EFA1DFA1CFB0
BD609F608D90
ENDCHAR
STARTCHAR uni033D
ENCODING 829
SWIDTH 600 0
DWIDTH 17 0
BBX 7 6 5 16
BITMAP
05001400
7FB3DF40
1CFFFA00
05FFF300
6FFCFE30
3D507C10
ENDCHAR
STARTCHAR uni0342
ENCODING 834
SWIDTH 600 0
DWIDTH 17 0
BBX 11 5 3 16
BITMAP
04CEB2009960
3FFFFE53FF90
9FFFFFFFFF60
CFE28FFFFE10
9A8005DFC300
ENDCHAR
STARTCHAR uni0345
ENCODING 837
SWIDTH 600 0
DWIDTH 17 0
BBX 6 5 6 -6
BITMAP
3FFB00
2FFC10
1FFFF5
0BFFF7
02BFE7
ENDCHAR
STARTCHAR uni035F
ENCODING 863
SWIDTH 600 0
DWIDTH 17 0
BBX 29 3 -6 -5
BITMAP
CFFFFFFFFFFFFFFFFFFFFFFFFFFF90
CFFFFFFFFFFFFFFFFFFFFFFFFFFF90
CFFFFFFFFFFFFFFFFFFFFFFFFFFF90
ENDCHAR
STARTCHAR uni0361
ENCODING 865
SWIDTH 600 0
DWIDTH 17 0
BBX 26 6 -5 16
BITMAP
000000036ACDEFEDC962000000
000039EFFFFFFFFFFFFFD82000
004CFFFFFFFFFFFFFFFFFFFA20
1AFFFFEA85321012368BEFFFF8
2FFF940000000000000005BFFD
089200000000000000000003A6
ENDCHAR
STARTCHAR uni0374
ENCODING 884
SWIDTH 600 0
DWIDTH 17 0
BBX 6 8 6 11
BITMAP
0FFFF1
1FFFD0
2FFFA0
3FFF70
4FFF30
5FFD00
6FF900
7FF500
ENDCHAR
STARTCHAR uni0375
ENCODING 885
SWIDTH 600 0
DWIDTH 17 0
BBX 6 8 5 0
BITMAP
008FF4
00CFF3
02FFF2
06FFF1
0AFFF0
0DFFE0
1FFFD0
4FFFC0
ENDCHAR
STARTCHAR uni037A
ENCODING 890
SWIDTH 600 0
DWIDTH 17 0
BBX 6 5 6 -6
BITMAP
3FFB00
2FFC10
1FFFF5
0BFFF7
02BFE7
ENDCHAR
STARTCHAR uni037E
ENCODING 894
SWIDTH 600 0
DWIDTH 17 0
BBX 7 23 5 -7
BITMAP
05DFC300
4FFFFE10
AFFFFF70
CFFFFF90
AFFFFF70
4FFFFE10
05CEC300
00000000
00000000
00000000
04CED500
3FFFFF30
8FFFFFA0
8FFFFFD0
3FFFFFF0
05CFFFF0
0005FFD0
000AFFA0
006FFF30
3AFFF900
AFFF9000
4FD50000
03000000
ENDCHAR
STARTCHAR tonos
ENCODING 900
SWIDTH 600 0
DWIDTH 17 0
BBX 6 8 6 15
BITMAP
03DB95
05FFF9
07FFF5
09FFE1
0BFFA0
0DFF60
0FFF10
1ACB00
ENDCHAR
STARTCHAR dieresistonos
ENCODING 901
SWIDTH 600 0
DWIDTH 17 0
BBX 12 7 2 16
BITMAP
000001EC8000
000003FF9000
000006FF4000
09EB08FE2CE6
1FFF3BF96FFD
09EB0DF42CE6
00000CD00000
ENDCHAR
STARTCHAR Alphatonos
ENCODING 902
SWIDTH 600 0
DWIDTH 17 0
BBX 17 20 0 0
BITMAP
0ADA70000000000000
0DFFA0000000000000
0FFF608FFFFB000000
2FFF30CFFFFE000000
4FFE01FFFFFF400000
6FFB05FFEEFF800000
8FF809FFBBFFC00000
AFF40DFF88FFF10000
CFF13FFF65FFF50000
8CC07FFF32FFFA0000
0000BFFF00EFFE0000
0001FFFC00AFFF3000
0004FFF9007FFF7000
0008FFFFFFFFFFB000
000DFFFFFFFFFFF100
002FFFFFFFFFFFF400
006FFFA00009FFF900
00AFFF700006FFFD00
00EFFF300002FFFF20
04FFFE000000EFFF60
ENDCHAR
STARTCHAR anoteleia
ENCODING 903
SWIDTH 600 0
DWIDTH 17 0
BBX 7 7 5 9
BITMAP
05DFC300
4FFFFE10
AFFFFF70
CFFFFF90
AFFFFF70
4FFFFE10
05CEC300
ENDCHAR
STARTCHAR Epsilontonos
ENCODING 904
SWIDTH 600 0
DWIDTH 17 0
BBX 15 20 0 0
BITMAP
0CCA600000000000
0EFF800000000000
2FFF52FFFFFFFFA0
4FFF12FFFFFFFFA0
6FFD02FFFFFFFFA0
8FF902FFF8000000
AFF602FFF8000000
CFF302FFF8000000
EFE002FFF8000000
9CA002FFFFFFF700
000002FFFFFFF700
000002FFFFFFF700
000002FFF8000000
000002FFF8000000
000002FFF8000000
000002FFF8000000
000002FFF8000000
000002FFFFFFFFE0
000002FFFFFFFFE0
000002FFFFFFFFE0
ENDCHAR
STARTCHAR Etatonos
ENCODING 905
SWIDTH 600 0
DWIDTH 17 0
BBX 16 20 0 0
BITMAP
0CCA600000000000
0EFF800000000000
2FFF57FFF303FFF7
4FFF17FFF303FFF7
6FFD07FFF303FFF7
8FF907FFF303FFF7
AFF607FFF303FFF7
CFF307FFF303FFF7
EFE007FFF303FFF7
9CA007FFFFFFFFF7
000007FFFFFFFFF7
000007FFFFFFFFF7
000007FFF303FFF7
000007FFF303FFF7
000007FFF303FFF7
000007FFF303FFF7
000007FFF303FFF7
000007FFF303FFF7
000007FFF303FFF7
000007FFF303FFF7
ENDCHAR
STARTCHAR Iotatonos
ENCODING 906
SWIDTH 600 0
DWIDTH 17 0
BBX 15 20 0 0
BITMAP
0CCA600000000000
0EFF800000000000
2FFF56FFFFFFFFB0
4FFF16FFFFFFFFB0
6FFD06FFFFFFFFB0
8FF90000EFFF4000
AFF60000EFFF4000
CFF30000EFFF4000
EFE00000EFFF4000
9CA00000EFFF4000
00000000EFFF4000
00000000EFFF4000
00000000EFFF4000
00000000EFFF4000
00000000EFFF4000
00000000EFFF4000
00000000EFFF4000
000006FFFFFFFFB0
000006FFFFFFFFB0
000006FFFFFFFFB0
ENDCHAR
STARTCHAR Omicrontonos
ENCODING 908
SWIDTH 600 0
DWIDTH 17 0
BBX 16 20 0 0
BITMAP
0CCA600000000000
0EFF800000000000
2FFF5006CEEB4000
4FFF10AFFFFFF700
6FFD07FFFFFFFF40
8FF91EFFD23EFFC0
AFF65FFF7009FFF2
CFF39FFF3006FFF6
EFE0BFFF1004FFF9
9CA0DFFF0003FFFA
0000DFFF0002FFFB
0000DFFF0003FFFB
0000CFFF0003FFFA
0000BFFF2004FFF8
00008FFF4006FFF6
00004FFF700AFFF2
00000DFFE24FFFB0
000005FFFFFFFF30
0000008FFFFFF600
00000005BEEB4000
ENDCHAR
STARTCHAR Upsilontonos
ENCODING 910
SWIDTH 600 0
DWIDTH 17 0
BBX 18 20 0 0
BITMAP
07DB90000000000000
0AFFD0000000000000
0CFFA3FFF80004FFF4
0EFF60DFFC0008FFE0
1FFF307FFF100CFF90
2FFE002FFF501FFF40
4FFB000CFF905FFE00
6FF80007FFC09FF900
8FF40002FFF1DFF400
6BE10000CFF6FFD000
000000006FFEFF8000
000000001FFFFF3000
000000000BFFFD0000
0000000006FFF80000
0000000004FFF60000
0000000004FFF60000
0000000004FFF60000
0000000004FFF60000
0000000004FFF60000
0000000004FFF60000
ENDCHAR
STARTCHAR Omegatonos
ENCODING 911
SWIDTH 600 0
DWIDTH 17 0
BBX 16 20 0 0
BITMAP
0CCA600000000000
0EFF800000000000
2FFF5006CEEB4000
4FFF10AFFFFFF700
6FFD07FFFFFFFF40
8FF91EFFE24FFFC0
AFF66FFF700AFFF3
CFF3AFFF3006FFF7
EFE0CFFF1004FFF9
9CA0DFFF0003FFFA
0000DFFF0003FFFA
0000CFFF0003FFF9
0000AFFF1004FFF7
00006FFF3006FFF3
00001FFF5008FFD0
000009FF900CFF60
000002FFE02FFD00
0002FFFFF36FFFFE
0002FFFFF36FFFFE
0002FFFFF36FFFFE
ENDCHAR
STARTCHAR iotadieresistonos
ENCODING 912
SWIDTH 600 0
DWIDTH 17 0
BBX 14 23 1 0
BITMAP
000000ACA20000
000000CFE00000
000000FFA00000
04DD42FF59EB10
0AFF95FE1FFF40
04DD47FA08EB10
000007D5000000
00000000000000
00000000000000
4FFFFFFFD00000
4FFFFFFFD00000
4FFFFFFFC00000
00004FFFC00000
00004FFFB00000
00004FFFA00000
00004FFFA00000
00004FFFA00000
00003FFF900000
00002FFFB00000
00000FFFF61142
00000AFFFFFFF8
000002EFFFFFFD
00000019DFFEB7
ENDCHAR
STARTCHAR Alpha
ENCODING 913
SWIDTH 600 0
DWIDTH 17 0
BBX 17 18 0 0
BITMAP
000003FFFFF1000000
000008FFFFF5000000
00000DFFFFFA000000
00003FFFBFFE000000
00007FFE5FFF400000
0000CFFB1FFF900000
0002FFF70DFFE00000
0007FFF409FFF30000
000BFFF005FFF80000
001FFFC002FFFD0000
006FFF8000DFFF3000
00AFFFFFFFFFFF7000
01FFFFFFFFFFFFC000
05FFFFFFFFFFFFF200
0AFFF700000CFFF700
0EFFF2000007FFFB00
4FFFD0000003FFFF10
9FFF90000000EFFF60
ENDCHAR
ENDFONT
